<svg preserveAspectRatio="none" width="100%" height="100%" overflow="visible" style="display: block;" viewBox="0 0 46.3125 45.0625" fill="none" xmlns="http://www.w3.org/2000/svg">
<g id="Container">
<path id="Icon" d="M41 45.0625L27.3125 31.375L32.5625 26.125L46.25 39.8125L41 45.0625V45.0625M6.5 45.0625L1.25 39.8125L18.5 22.5625L14.25 18.3125L12.5 20.0625L9.3125 16.875V22L7.5625 23.75L0 16.1875L1.75 14.4375H6.875L3.75 11.3125L12.625 2.4375C13.4583 1.60417 14.3542 1 15.3125 0.625C16.2708 0.25 17.25 0.0625 18.25 0.0625C19.25 0.0625 20.2292 0.25 21.1875 0.625C22.1458 1 23.0417 1.60417 23.875 2.4375L18.125 8.1875L21.25 11.3125L19.5 13.0625L23.75 17.3125L29.375 11.6875C29.2083 11.2292 29.0729 10.75 28.9688 10.25C28.8646 9.75 28.8125 9.25 28.8125 8.75C28.8125 6.29167 29.6562 4.21875 31.3438 2.53125C33.0312 0.84375 35.1042 0 37.5625 0C38.1875 0 38.7812 0.0625 39.3438 0.1875C39.9062 0.3125 40.4792 0.5 41.0625 0.75L34.875 6.9375L39.375 11.4375L45.5625 5.25C45.8542 5.83333 46.0521 6.40625 46.1562 6.96875C46.2604 7.53125 46.3125 8.125 46.3125 8.75C46.3125 11.2083 45.4688 13.2812 43.7812 14.9688C42.0938 16.6562 40.0208 17.5 37.5625 17.5C37.0625 17.5 36.5625 17.4583 36.0625 17.375C35.5625 17.2917 35.0833 17.1458 34.625 16.9375L6.5 45.0625V45.0625" fill="#F56910"/>
</g>
</svg>
