<svg preserveAspectRatio="none" width="100%" height="100%" overflow="visible" style="display: block;" viewBox="0 0 50 45" fill="none" xmlns="http://www.w3.org/2000/svg">
<g id="Container">
<path id="Icon" d="M0 45V0H25V10H50V45H0V45M5 40H10V35H5V40V40M5 30H10V25H5V30V30M5 20H10V15H5V20V20M5 10H10V5H5V10V10M15 40H20V35H15V40V40M15 30H20V25H15V30V30M15 20H20V15H15V20V20M15 10H20V5H15V10V10M25 40H45V15H25V20H30V25H25V30H30V35H25V40V40M35 25V20H40V25H35V25M35 35V30H40V35H35V35" fill="#F56910"/>
</g>
</svg>
