<svg preserveAspectRatio="none" width="100%" height="100%" overflow="visible" style="display: block;" viewBox="0 0 45 45" fill="none" xmlns="http://www.w3.org/2000/svg">
<g id="Container">
<path id="Icon" d="M0 45V10H10V0H35V20H45V45H25V35H20V45H0V45M5 40H10V35H5V40V40M5 30H10V25H5V30V30M5 20H10V15H5V20V20M15 30H20V25H15V30V30M15 20H20V15H15V20V20M15 10H20V5H15V10V10M25 30H30V25H25V30V30M25 20H30V15H25V20V20M25 10H30V5H25V10V10M35 40H40V35H35V40V40M35 30H40V25H35V30V30" fill="#F56910"/>
</g>
</svg>
