<svg preserveAspectRatio="none" width="100%" height="100%" overflow="visible" style="display: block;" viewBox="0 0 45 52.5" fill="none" xmlns="http://www.w3.org/2000/svg">
<g id="Container">
<path id="Icon" d="M22.5 52.5L15 45H5C3.625 45 2.44792 44.5104 1.46875 43.5312C0.489583 42.5521 0 41.375 0 40V5C0 3.625 0.489583 2.44792 1.46875 1.46875C2.44792 0.489583 3.625 0 5 0H40C41.375 0 42.5521 0.489583 43.5312 1.46875C44.5104 2.44792 45 3.625 45 5V40C45 41.375 44.5104 42.5521 43.5312 43.5312C42.5521 44.5104 41.375 45 40 45H30L22.5 52.5V52.5M5 37.125C7.25 34.9167 9.86458 33.1771 12.8438 31.9062C15.8229 30.6354 19.0417 30 22.5 30C25.9583 30 29.1771 30.6354 32.1562 31.9062C35.1354 33.1771 37.75 34.9167 40 37.125V5V5V5H5V5V5V37.125V37.125M22.5 25C24.9167 25 26.9792 24.1458 28.6875 22.4375C30.3958 20.7292 31.25 18.6667 31.25 16.25C31.25 13.8333 30.3958 11.7708 28.6875 10.0625C26.9792 8.35417 24.9167 7.5 22.5 7.5C20.0833 7.5 18.0208 8.35417 16.3125 10.0625C14.6042 11.7708 13.75 13.8333 13.75 16.25C13.75 18.6667 14.6042 20.7292 16.3125 22.4375C18.0208 24.1458 20.0833 25 22.5 25V25M10 40H35C35 39.875 35 39.7708 35 39.6875C35 39.6042 35 39.5 35 39.375C33.25 37.9167 31.3125 36.8229 29.1875 36.0938C27.0625 35.3646 24.8333 35 22.5 35C20.1667 35 17.9375 35.3646 15.8125 36.0938C13.6875 36.8229 11.75 37.9167 10 39.375C10 39.5 10 39.6042 10 39.6875C10 39.7708 10 39.875 10 40V40M22.5 20C21.4583 20 20.5729 19.6354 19.8438 18.9062C19.1146 18.1771 18.75 17.2917 18.75 16.25C18.75 15.2083 19.1146 14.3229 19.8438 13.5938C20.5729 12.8646 21.4583 12.5 22.5 12.5C23.5417 12.5 24.4271 12.8646 25.1562 13.5938C25.8854 14.3229 26.25 15.2083 26.25 16.25C26.25 17.2917 25.8854 18.1771 25.1562 18.9062C24.4271 19.6354 23.5417 20 22.5 20V20M22.5 21.0625V21.0625V21.0625V21.0625V21.0625V21.0625V21.0625V21.0625V21.0625V21.0625V21.0625V21.0625V21.0625" fill="#F56910"/>
</g>
</svg>
