<svg width="82" height="17.6426" viewBox="0 0 82 17.6426" fill="none" xmlns="http://www.w3.org/2000/svg">
<g id="Vector">
<path d="M24.8272 12.7261C24.0721 12.7261 23.4061 12.5642 22.8293 12.2412C22.2525 11.9182 21.8076 11.4588 21.4946 10.8619C21.1817 10.266 21.0252 9.58006 21.0252 8.80492C21.0252 8.02978 21.1844 7.34926 21.5019 6.76245C21.8203 6.17563 22.2698 5.72165 22.8511 5.39868C23.4325 5.0757 24.1057 4.91376 24.8708 4.91376C25.8252 4.91376 26.6049 5.16486 27.2117 5.66706C27.8176 6.16927 28.1961 6.85251 28.3444 7.71681H26.6895C26.5803 7.2792 26.3611 6.93167 26.0336 6.67329C25.7051 6.41491 25.303 6.28572 24.8263 6.28572C24.1803 6.28572 23.6608 6.51953 23.2687 6.98625C22.8757 7.45297 22.6801 8.0598 22.6801 8.80492C22.6801 9.55003 22.8766 10.1741 23.2687 10.6463C23.6617 11.1185 24.1803 11.3541 24.8263 11.3541C25.323 11.3541 25.7361 11.2222 26.0636 10.9593C26.392 10.6955 26.6049 10.3406 26.705 9.89302H28.3453C28.1961 10.7773 27.814 11.4706 27.1972 11.9728C26.5803 12.475 25.7906 12.7261 24.8263 12.7261H24.8272Z" fill="#111111"/>
<path d="M29.7428 10.8701C29.4198 10.2788 29.2578 9.59552 29.2578 8.82038C29.2578 8.04525 29.4198 7.37655 29.7428 6.78519C30.0657 6.19383 30.5234 5.73439 31.1147 5.40595C31.7061 5.07752 32.3848 4.91376 33.1499 4.91376C33.915 4.91376 34.5937 5.07752 35.1851 5.40595C35.7765 5.73439 36.2341 6.19383 36.5571 6.78519C36.88 7.37655 37.042 8.05525 37.042 8.82038C37.042 9.58551 36.88 10.2788 36.5571 10.8701C36.2341 11.4615 35.7765 11.9191 35.1851 12.2421C34.5937 12.5651 33.915 12.727 33.1499 12.727C32.3848 12.727 31.7061 12.5651 31.1147 12.2421C30.5234 11.9191 30.0657 11.4615 29.7428 10.8701ZM35.4007 8.82038C35.4007 8.07527 35.1942 7.46662 34.7821 6.99444C34.3699 6.52226 33.8259 6.28663 33.1499 6.28663C32.4739 6.28663 31.9326 6.52226 31.525 6.99444C31.1174 7.46662 30.9136 8.07527 30.9136 8.82038C30.9136 9.5655 31.1174 10.1741 31.525 10.6463C31.9326 11.1185 32.4739 11.3541 33.1499 11.3541C33.8259 11.3541 34.3699 11.1185 34.7821 10.6463C35.1942 10.1741 35.4007 9.5655 35.4007 8.82038Z" fill="#111111"/>
<path d="M45.1018 8.43281V12.6369H43.4769V8.52197C43.4769 7.79687 43.3231 7.24463 43.0147 6.86707C42.7063 6.48951 42.2541 6.30027 41.6582 6.30027C41.0223 6.30027 40.5228 6.52135 40.1598 6.96351C39.7968 7.40567 39.6158 8.01431 39.6158 8.78945V12.636H38.0054V5.00383H39.4065L39.5857 6.00277C40.1625 5.27676 40.9768 4.91467 42.0303 4.91467C42.9347 4.91467 43.6725 5.19306 44.2438 5.74985C44.8152 6.30664 45.1009 7.20096 45.1009 8.43372L45.1018 8.43281Z" fill="#111111"/>
<path d="M53.823 12.6369H52.4219L52.2281 11.4888C51.6222 12.314 50.7916 12.7261 49.7381 12.7261C49.0421 12.7261 48.4207 12.5696 47.8748 12.2566C47.328 11.9437 46.9004 11.4915 46.5929 10.9002C46.2845 10.3088 46.1307 9.61554 46.1307 8.82038C46.1307 8.02523 46.2872 7.362 46.6002 6.77063C46.9132 6.17927 47.3435 5.72165 47.8894 5.39868C48.4361 5.0757 49.0521 4.91376 49.7381 4.91376C50.2948 4.91376 50.7816 5.01566 51.1992 5.21945C51.6168 5.42324 51.9543 5.70436 52.2127 6.06191V2.20077H53.823V12.6369ZM52.2281 8.85041C52.2281 8.08528 52.0243 7.46662 51.6168 6.99444C51.2092 6.52226 50.6724 6.28663 50.0064 6.28663C49.3405 6.28663 48.8037 6.52226 48.3961 6.99444C47.9885 7.46662 47.7847 8.07527 47.7847 8.82038C47.7847 9.5655 47.9885 10.1896 48.3961 10.6618C48.8037 11.134 49.3405 11.3696 50.0064 11.3696C50.6724 11.3696 51.2092 11.1358 51.6168 10.6691C52.0243 10.2023 52.2281 9.59552 52.2281 8.85041Z" fill="#111111"/>
<path d="M55.4551 10.8701C55.1322 10.2788 54.9702 9.59552 54.9702 8.82038C54.9702 8.04525 55.1322 7.37655 55.4551 6.78519C55.7781 6.19383 56.2357 5.73439 56.8271 5.40595C57.4185 5.07752 58.0972 4.91376 58.8623 4.91376C59.6274 4.91376 60.3061 5.07752 60.8975 5.40595C61.4889 5.73439 61.9465 6.19383 62.2695 6.78519C62.5924 7.37655 62.7544 8.05525 62.7544 8.82038C62.7544 9.58551 62.5924 10.2788 62.2695 10.8701C61.9465 11.4615 61.4889 11.9191 60.8975 12.2421C60.3061 12.5651 59.6274 12.727 58.8623 12.727C58.0972 12.727 57.4185 12.5651 56.8271 12.2421C56.2357 11.9191 55.7781 11.4615 55.4551 10.8701ZM61.1131 8.82038C61.1131 8.07527 60.9066 7.46662 60.4945 6.99444C60.0823 6.52226 59.5383 6.28663 58.8623 6.28663C58.1863 6.28663 57.645 6.52226 57.2374 6.99444C56.8298 7.46662 56.626 8.07527 56.626 8.82038C56.626 9.5655 56.8298 10.1741 57.2374 10.6463C57.645 11.1185 58.1863 11.3541 58.8623 11.3541C59.5383 11.3541 60.0823 11.1185 60.4945 10.6463C60.9066 10.1741 61.1131 9.5655 61.1131 8.82038Z" fill="#111111"/>
<path d="M65.6975 11.0939C66.0405 11.3478 66.4854 11.4742 67.0322 11.4742C67.5189 11.4742 67.9147 11.3823 68.2176 11.1986C68.5206 11.0148 68.6725 10.7691 68.6725 10.4607C68.6725 10.2024 68.6034 10.0086 68.4642 9.87938C68.325 9.75019 68.1385 9.6583 67.9047 9.60371C67.6709 9.54912 67.3106 9.49181 66.8238 9.43267C66.1579 9.35352 65.6084 9.24616 65.1762 9.11243C64.7441 8.97869 64.3956 8.76489 64.1327 8.47103C63.8698 8.17807 63.7379 7.78232 63.7379 7.28557C63.7379 6.81885 63.8698 6.40308 64.1327 6.04099C64.3965 5.67798 64.7586 5.39777 65.2208 5.19852C65.683 5.00019 66.207 4.90011 66.7938 4.90011C67.7582 4.90011 68.5406 5.11391 69.142 5.54151C69.7434 5.96911 70.0691 6.57048 70.1182 7.34562H68.5524C68.5124 6.99808 68.3386 6.71241 68.0302 6.4886C67.7218 6.26479 67.3342 6.15289 66.8675 6.15289C66.4008 6.15289 66.0223 6.24205 65.7348 6.42128C65.4464 6.6005 65.3027 6.84342 65.3027 7.15183C65.3027 7.38019 65.3746 7.55214 65.5192 7.66586C65.663 7.7805 65.8449 7.85965 66.0633 7.90423C66.2816 7.94881 66.6346 8.00158 67.1213 8.06071C67.7773 8.12986 68.3286 8.23721 68.7763 8.38096C69.2239 8.5247 69.5814 8.75397 69.8498 9.06694C70.1182 9.3799 70.2519 9.80477 70.2519 10.3415C70.2519 10.8183 70.1127 11.2386 69.8343 11.6016C69.5559 11.9646 69.1738 12.243 68.6862 12.4368C68.1994 12.6306 67.6527 12.7279 67.0458 12.7279C66.0223 12.7279 65.1944 12.4968 64.5639 12.0347C63.9325 11.5725 63.6078 10.9338 63.5877 10.1186H65.138C65.168 10.5162 65.3545 10.8419 65.6975 11.0949V11.0939Z" fill="#111111"/>
<path d="M70.6395 6.42037V5.00383H73.4726V12.6369H71.8477V6.42037H70.6395ZM73.6363 2.91678C73.6363 3.19517 73.5444 3.42626 73.3607 3.61003C73.1769 3.79381 72.9458 3.8857 72.6674 3.8857C72.389 3.8857 72.1552 3.79381 71.9669 3.61003C71.7776 3.42626 71.6839 3.19517 71.6839 2.91678C71.6839 2.63838 71.7785 2.4073 71.9669 2.22352C72.1561 2.03974 72.389 1.94785 72.6674 1.94785C72.9458 1.94785 73.1769 2.03974 73.3607 2.22352C73.5444 2.4073 73.6363 2.63838 73.6363 2.91678Z" fill="#111111"/>
<path d="M82 8.43281V12.6369H80.3751V8.52197C80.3751 7.79687 80.2214 7.24463 79.913 6.86707C79.6045 6.48951 79.1524 6.30027 78.5565 6.30027C77.9205 6.30027 77.421 6.52135 77.058 6.96351C76.695 7.40567 76.514 8.01431 76.514 8.78945V12.636H74.9037V5.00383H76.3047L76.484 6.00277C77.0608 5.27676 77.875 4.91467 78.9286 4.91467C79.8329 4.91467 80.5707 5.19306 81.1421 5.74985C81.7134 6.30664 81.9991 7.20096 81.9991 8.43372L82 8.43281Z" fill="#111111"/>
<path d="M0 9.036V4.40337C0 0.0746025 8.06071 0 8.06071 0V5.00565C8.06071 5.00565 0 4.81914 0 9.036Z" fill="var(--fill-0, #E62C05)"/>
<path d="M0 4.79094V9.42357C0 13.7523 8.06071 13.8269 8.06071 13.8269V8.82129C8.06071 8.82129 0 9.0078 0 4.79094Z" fill="#FF6A13"/>
<path d="M16.1214 12.8526V8.21992C16.1214 3.89116 8.06071 3.81656 8.06071 3.81656V8.8222C8.06071 8.8222 16.1214 8.6357 16.1214 12.8526Z" fill="#FF6A13"/>
<path d="M16.1214 8.60658V13.2392C16.1214 17.568 8.06071 17.6426 8.06071 17.6426V12.6369C8.06071 12.6369 16.1214 12.8234 16.1214 8.60658Z" fill="var(--fill-0, #E62C05)"/>
</g>
</svg>
