<svg width="2132" height="2334" viewBox="0 0 2132 2334" fill="none" xmlns="http://www.w3.org/2000/svg">
<path d="M0 1194.98V900.685V876.622V582.329C0 9.8659 1066 0 1066 0V294.293V367.686V661.978C1066 661.978 0 637.314 0 1194.98Z" fill="#E62C05"/>
<path d="M0 633.586V1246.23C0 1818.7 1066 1828.56 1066 1828.56V1166.59C1066 1166.59 0 1191.25 0 633.586Z" fill="#FF6A13"/>
<path d="M2132 1699.71V1087.06C2132 514.593 1066 504.728 1066 504.728V1166.71C1066 1166.71 2132 1142.04 2132 1699.71Z" fill="#FF6A13"/>
<path d="M2132 1138.19V1432.48V1456.55V1750.84C2132 2323.3 1066 2333.17 1066 2333.17V2038.88V1965.48V1671.19C1066 1671.19 2132 1695.85 2132 1138.19Z" fill="#E62C05"/>
</svg>
