<svg width="670.21" height="118.49" viewBox="0 0 670.21 118.49" fill="none" xmlns="http://www.w3.org/2000/svg">
<g id="Group">
<path id="Vector" d="M41.79 118.47C33.49 118.47 26.17 116.69 19.83 113.14C13.49 109.59 8.59999 104.54 5.15999 97.98C1.71999 91.43 0 83.89 0 75.37C0 66.85 1.74999 59.37 5.23999 52.92C8.73999 46.47 13.68 41.48 20.07 37.93C26.46 34.38 33.86 32.6 42.27 32.6C52.76 32.6 61.33 35.36 68 40.88C74.66 46.4 78.82 53.91 80.45 63.41H62.26C61.06 58.6 58.65 54.78 55.05 51.94C51.44 49.1 47.02 47.68 41.78 47.68C34.68 47.68 28.97 50.25 24.66 55.38C20.34 60.51 18.19 67.18 18.19 75.37C18.19 83.56 20.35 90.42 24.66 95.61C28.98 100.8 34.68 103.39 41.78 103.39C47.24 103.39 51.78 101.94 55.38 99.05C58.99 96.15 61.33 92.25 62.43 87.33H80.46C78.82 97.05 74.62 104.67 67.84 110.19C61.06 115.71 52.38 118.47 41.78 118.47H41.79Z" fill="var(--fill-0, #111111)"/>
<path id="Vector_2" d="M95.82 98.07C92.27 91.57 90.49 84.06 90.49 75.54C90.49 67.02 92.27 59.67 95.82 53.17C99.37 46.67 104.4 41.62 110.9 38.01C117.4 34.4 124.86 32.6 133.27 32.6C141.68 32.6 149.14 34.4 155.64 38.01C162.14 41.62 167.17 46.67 170.72 53.17C174.27 59.67 176.05 67.13 176.05 75.54C176.05 83.95 174.27 91.57 170.72 98.07C167.17 104.57 162.14 109.6 155.64 113.15C149.14 116.7 141.68 118.48 133.27 118.48C124.86 118.48 117.4 116.7 110.9 113.15C104.4 109.6 99.37 104.57 95.82 98.07ZM158.01 75.54C158.01 67.35 155.74 60.66 151.21 55.47C146.68 50.28 140.7 47.69 133.27 47.69C125.84 47.69 119.89 50.28 115.41 55.47C110.93 60.66 108.69 67.35 108.69 75.54C108.69 83.73 110.93 90.42 115.41 95.61C119.89 100.8 125.84 103.39 133.27 103.39C140.7 103.39 146.68 100.8 151.21 95.61C155.74 90.42 158.01 83.73 158.01 75.54Z" fill="var(--fill-0, #111111)"/>
<path id="Vector_3" d="M264.64 71.28V117.49H246.78V72.26C246.78 64.29 245.09 58.22 241.7 54.07C238.31 49.92 233.34 47.84 226.79 47.84C219.8 47.84 214.31 50.27 210.32 55.13C206.33 59.99 204.34 66.68 204.34 75.2V117.48H186.64V33.59H202.04L204.01 44.57C210.35 36.59 219.3 32.61 230.88 32.61C240.82 32.61 248.93 35.67 255.21 41.79C261.49 47.91 264.63 57.74 264.63 71.29L264.64 71.28Z" fill="var(--fill-0, #111111)"/>
<path id="Vector_4" d="M360.5 117.49H345.1L342.97 104.87C336.31 113.94 327.18 118.47 315.6 118.47C307.95 118.47 301.12 116.75 295.12 113.31C289.11 109.87 284.41 104.9 281.03 98.4C277.64 91.9 275.95 84.28 275.95 75.54C275.95 66.8 277.67 59.51 281.11 53.01C284.55 46.51 289.28 41.48 295.28 37.93C301.29 34.38 308.06 32.6 315.6 32.6C321.72 32.6 327.07 33.72 331.66 35.96C336.25 38.2 339.96 41.29 342.8 45.22V2.78H360.5V117.49ZM342.97 75.87C342.97 67.46 340.73 60.66 336.25 55.47C331.77 50.28 325.87 47.69 318.55 47.69C311.23 47.69 305.33 50.28 300.85 55.47C296.37 60.66 294.13 67.35 294.13 75.54C294.13 83.73 296.37 90.59 300.85 95.78C305.33 100.97 311.23 103.56 318.55 103.56C325.87 103.56 331.77 100.99 336.25 95.86C340.73 90.73 342.97 84.06 342.97 75.87Z" fill="var(--fill-0, #111111)"/>
<path id="Vector_5" d="M378.44 98.07C374.89 91.57 373.11 84.06 373.11 75.54C373.11 67.02 374.89 59.67 378.44 53.17C381.99 46.67 387.02 41.62 393.52 38.01C400.02 34.4 407.48 32.6 415.89 32.6C424.3 32.6 431.76 34.4 438.26 38.01C444.76 41.62 449.79 46.67 453.34 53.17C456.89 59.67 458.67 67.13 458.67 75.54C458.67 83.95 456.89 91.57 453.34 98.07C449.79 104.57 444.76 109.6 438.26 113.15C431.76 116.7 424.3 118.48 415.89 118.48C407.48 118.48 400.02 116.7 393.52 113.15C387.02 109.6 381.99 104.57 378.44 98.07ZM440.63 75.54C440.63 67.35 438.36 60.66 433.83 55.47C429.3 50.28 423.32 47.69 415.89 47.69C408.46 47.69 402.51 50.28 398.03 55.47C393.55 60.66 391.31 67.35 391.31 75.54C391.31 83.73 393.55 90.42 398.03 95.61C402.51 100.8 408.46 103.39 415.89 103.39C423.32 103.39 429.3 100.8 433.83 95.61C438.36 90.42 440.63 83.73 440.63 75.54Z" fill="var(--fill-0, #111111)"/>
<path id="Vector_6" d="M491.02 100.53C494.79 103.32 499.68 104.71 505.69 104.71C511.04 104.71 515.39 103.7 518.72 101.68C522.05 99.66 523.72 96.96 523.72 93.57C523.72 90.73 522.96 88.6 521.43 87.18C519.9 85.76 517.85 84.75 515.28 84.15C512.71 83.55 508.75 82.92 503.4 82.27C496.08 81.4 490.04 80.22 485.29 78.75C480.54 77.28 476.71 74.93 473.82 71.7C470.93 68.48 469.48 64.13 469.48 58.67C469.48 53.54 470.93 48.97 473.82 44.99C476.72 41 480.7 37.92 485.78 35.73C490.86 33.55 496.62 32.45 503.07 32.45C513.67 32.45 522.27 34.8 528.88 39.5C535.49 44.2 539.07 50.81 539.61 59.33H522.4C521.96 55.51 520.05 52.37 516.66 49.91C513.27 47.45 509.01 46.22 503.88 46.22C498.75 46.22 494.59 47.2 491.43 49.17C488.26 51.14 486.68 53.81 486.68 57.2C486.68 59.71 487.47 61.6 489.06 62.85C490.64 64.11 492.64 64.98 495.04 65.47C497.44 65.96 501.32 66.54 506.67 67.19C513.88 67.95 519.94 69.13 524.86 70.71C529.78 72.29 533.71 74.81 536.66 78.25C539.61 81.69 541.08 86.36 541.08 92.26C541.08 97.5 539.55 102.12 536.49 106.11C533.43 110.1 529.23 113.16 523.87 115.29C518.52 117.42 512.51 118.49 505.84 118.49C494.59 118.49 485.49 115.95 478.56 110.87C471.62 105.79 468.05 98.77 467.83 89.81H484.87C485.2 94.18 487.25 97.76 491.02 100.54V100.53Z" fill="var(--fill-0, #111111)"/>
<path id="Vector_7" d="M545.34 49.16V33.59H576.48V117.49H558.62V49.16H545.35H545.34ZM578.28 10.65C578.28 13.71 577.27 16.25 575.25 18.27C573.23 20.29 570.69 21.3 567.63 21.3C564.57 21.3 562 20.29 559.93 18.27C557.85 16.25 556.82 13.71 556.82 10.65C556.82 7.59 557.86 5.05 559.93 3.03C562.01 1.01 564.57 0 567.63 0C570.69 0 573.23 1.01 575.25 3.03C577.27 5.05 578.28 7.59 578.28 10.65Z" fill="var(--fill-0, #111111)"/>
<path id="Vector_8" d="M670.21 71.28V117.49H652.35V72.26C652.35 64.29 650.66 58.22 647.27 54.07C643.88 49.92 638.91 47.84 632.36 47.84C625.37 47.84 619.88 50.27 615.89 55.13C611.9 59.99 609.91 66.68 609.91 75.2V117.48H592.21V33.59H607.61L609.58 44.57C615.92 36.59 624.87 32.61 636.45 32.61C646.39 32.61 654.5 35.67 660.78 41.79C667.06 47.91 670.2 57.74 670.2 71.29L670.21 71.28Z" fill="var(--fill-0, #111111)"/>
</g>
</svg>
