<svg width="177.2" height="193.92" viewBox="0 0 177.2 193.92" fill="none" xmlns="http://www.w3.org/2000/svg">
<g id="Group">
<path id="Vector" d="M0 99.32V74.86V72.86V48.4C0 0.82 88.6 0 88.6 0V24.46V30.56V55.02C88.6 55.02 0 52.97 0 99.32Z" fill="var(--fill-0, #E62C05)"/>
<path id="Vector_2" d="M0 52.66V103.58C0 151.16 88.6 151.98 88.6 151.98V96.96C88.6 96.96 0 99.01 0 52.66Z" fill="var(--fill-0, #FF6A13)"/>
<path id="Vector_3" d="M177.2 141.27V90.35C177.2 42.77 88.6 41.95 88.6 41.95V96.97C88.6 96.97 177.2 94.92 177.2 141.27Z" fill="var(--fill-0, #FF6A13)"/>
<path id="Vector_4" d="M177.2 94.6V119.06V121.06V145.52C177.2 193.1 88.6 193.92 88.6 193.92V169.46V163.36V138.9C88.6 138.9 177.2 140.95 177.2 94.6Z" fill="var(--fill-0, #E62C05)"/>
</g>
</svg>
