<svg width="183.5" height="39.4807" viewBox="0 0 183.5 39.4807" fill="none" xmlns="http://www.w3.org/2000/svg">
<g id="Vector">
<path d="M55.5584 28.4785C53.8686 28.4785 52.3783 28.1161 51.0875 27.3934C49.7967 26.6706 48.8011 25.6425 48.1008 24.3069C47.4004 22.9734 47.0502 21.4383 47.0502 19.7037C47.0502 17.9691 47.4065 16.4462 48.1171 15.133C48.8296 13.8199 49.8354 12.8039 51.1363 12.0812C52.4373 11.3584 53.9439 10.996 55.6561 10.996C57.7918 10.996 59.5366 11.5579 60.8945 12.6818C62.2505 13.8056 63.0974 15.3346 63.4293 17.2687H59.7259C59.4816 16.2894 58.9909 15.5117 58.258 14.9335C57.523 14.3553 56.6232 14.0662 55.5563 14.0662C54.1108 14.0662 52.9483 14.5894 52.0708 15.6339C51.1913 16.6783 50.7536 18.0363 50.7536 19.7037C50.7536 21.3711 51.1934 22.7678 52.0708 23.8244C52.9504 24.881 54.1108 25.4084 55.5563 25.4084C56.668 25.4084 57.5923 25.1131 58.3252 24.5248C59.0602 23.9343 59.5366 23.1403 59.7605 22.1387H63.4313C63.0974 24.1176 62.2423 25.669 60.862 26.7928C59.4816 27.9166 57.7144 28.4785 55.5563 28.4785H55.5584Z" fill="#111111"/>
<path d="M66.5585 24.3252C65.8357 23.0019 65.4733 21.4729 65.4733 19.7383C65.4733 18.0037 65.8357 16.5073 66.5585 15.1839C67.2812 13.8606 68.3053 12.8324 69.6287 12.0975C70.952 11.3625 72.4708 10.996 74.183 10.996C75.8952 10.996 77.414 11.3625 78.7374 12.0975C80.0607 12.8324 81.0848 13.8606 81.8076 15.1839C82.5303 16.5073 82.8927 18.0261 82.8927 19.7383C82.8927 21.4505 82.5303 23.0019 81.8076 24.3252C81.0848 25.6486 80.0607 26.6727 78.7374 27.3954C77.414 28.1182 75.8952 28.4806 74.183 28.4806C72.4708 28.4806 70.952 28.1182 69.6287 27.3954C68.3053 26.6727 67.2812 25.6486 66.5585 24.3252ZM79.2199 19.7383C79.2199 18.0709 78.7577 16.7088 77.8355 15.6522C76.9132 14.5955 75.6957 14.0682 74.183 14.0682C72.6703 14.0682 71.459 14.5955 70.5469 15.6522C69.6348 16.7088 69.1787 18.0709 69.1787 19.7383C69.1787 21.4057 69.6348 22.7678 70.5469 23.8244C71.459 24.881 72.6703 25.4084 74.183 25.4084C75.6957 25.4084 76.9132 24.881 77.8355 23.8244C78.7577 22.7678 79.2199 21.4057 79.2199 19.7383Z" fill="#111111"/>
<path d="M100.929 18.871V28.279H97.2928V19.0705C97.2928 17.4479 96.9487 16.2121 96.2586 15.3672C95.5684 14.5223 94.5565 14.0988 93.223 14.0988C91.7999 14.0988 90.6822 14.5935 89.8698 15.583C89.0575 16.5724 88.6523 17.9345 88.6523 19.6691V28.277H85.0488V11.1976H88.1841L88.5852 13.433C89.8759 11.8084 91.6981 10.9981 94.0557 10.9981C96.0794 10.9981 97.7305 11.6211 99.0091 12.867C100.288 14.113 100.927 16.1143 100.927 18.873L100.929 18.871Z" fill="#111111"/>
<path d="M120.445 28.279H117.31L116.876 25.7097C115.52 27.5563 113.662 28.4785 111.304 28.4785C109.747 28.4785 108.356 28.1283 107.134 27.428C105.911 26.7276 104.954 25.7158 104.266 24.3924C103.576 23.0691 103.232 21.5177 103.232 19.7383C103.232 17.9589 103.582 16.4747 104.282 15.1514C104.983 13.828 105.946 12.8039 107.167 12.0812C108.391 11.3584 109.769 10.996 111.304 10.996C112.55 10.996 113.639 11.2241 114.574 11.6801C115.508 12.1362 116.264 12.7653 116.842 13.5654V4.9249H120.445V28.279ZM116.876 19.8055C116.876 18.0933 116.42 16.7088 115.508 15.6522C114.596 14.5955 113.395 14.0682 111.905 14.0682C110.414 14.0682 109.213 14.5955 108.301 15.6522C107.389 16.7088 106.933 18.0709 106.933 19.7383C106.933 21.4057 107.389 22.8024 108.301 23.859C109.213 24.9157 110.414 25.443 111.905 25.443C113.395 25.443 114.596 24.9197 115.508 23.8753C116.42 22.8309 116.876 21.4729 116.876 19.8055Z" fill="#111111"/>
<path d="M124.098 24.3252C123.375 23.0019 123.013 21.4729 123.013 19.7383C123.013 18.0037 123.375 16.5073 124.098 15.1839C124.821 13.8606 125.845 12.8324 127.168 12.0975C128.491 11.3625 130.01 10.996 131.722 10.996C133.435 10.996 134.953 11.3625 136.277 12.0975C137.6 12.8324 138.624 13.8606 139.347 15.1839C140.07 16.5073 140.432 18.0261 140.432 19.7383C140.432 21.4505 140.07 23.0019 139.347 24.3252C138.624 25.6486 137.6 26.6727 136.277 27.3954C134.953 28.1182 133.435 28.4806 131.722 28.4806C130.01 28.4806 128.491 28.1182 127.168 27.3954C125.845 26.6727 124.821 25.6486 124.098 24.3252ZM136.759 19.7383C136.759 18.0709 136.297 16.7088 135.375 15.6522C134.453 14.5955 133.235 14.0682 131.722 14.0682C130.21 14.0682 128.998 14.5955 128.086 15.6522C127.174 16.7088 126.718 18.0709 126.718 19.7383C126.718 21.4057 127.174 22.7678 128.086 23.8244C128.998 24.881 130.21 25.4084 131.722 25.4084C133.235 25.4084 134.453 24.881 135.375 23.8244C136.297 22.7678 136.759 21.4057 136.759 19.7383Z" fill="#111111"/>
<path d="M147.018 24.8261C147.786 25.3941 148.781 25.6771 150.005 25.6771C151.094 25.6771 151.98 25.4715 152.658 25.0602C153.336 24.6489 153.676 24.0993 153.676 23.4091C153.676 22.8309 153.521 22.3972 153.21 22.1081C152.898 21.819 152.481 21.6134 151.957 21.4912C151.434 21.3691 150.628 21.2408 149.539 21.1085C148.048 20.9314 146.819 20.6911 145.852 20.3918C144.885 20.0925 144.105 19.6141 143.516 18.9565C142.928 18.3009 142.633 17.4153 142.633 16.3037C142.633 15.2593 142.928 14.3288 143.516 13.5185C144.107 12.7062 144.917 12.0791 145.951 11.6333C146.986 11.1894 148.158 10.9655 149.472 10.9655C151.63 10.9655 153.381 11.4439 154.726 12.4008C156.072 13.3577 156.801 14.7035 156.911 16.4381H153.407C153.317 15.6603 152.929 15.0211 152.238 14.5202C151.548 14.0194 150.681 13.769 149.636 13.769C148.592 13.769 147.745 13.9685 147.102 14.3696C146.456 14.7706 146.135 15.3142 146.135 16.0044C146.135 16.5154 146.296 16.9002 146.619 17.1547C146.941 17.4112 147.348 17.5884 147.837 17.6881C148.325 17.7879 149.115 17.906 150.204 18.0383C151.672 18.193 152.906 18.4333 153.908 18.7549C154.91 19.0766 155.71 19.5897 156.31 20.29C156.911 20.9904 157.21 21.9412 157.21 23.1424C157.21 24.2092 156.899 25.1498 156.276 25.9621C155.653 26.7745 154.798 27.3974 153.706 27.8311C152.617 28.2648 151.393 28.4826 150.036 28.4826C147.745 28.4826 145.892 27.9655 144.481 26.9312C143.069 25.897 142.342 24.4678 142.297 22.6436H145.766C145.833 23.5333 146.251 24.2621 147.018 24.8281V24.8261Z" fill="#111111"/>
<path d="M158.077 14.3675V11.1976H164.417V28.279H160.781V14.3675H158.077ZM164.784 6.52718C164.784 7.15017 164.578 7.6673 164.167 8.07855C163.756 8.48981 163.238 8.69544 162.615 8.69544C161.992 8.69544 161.469 8.48981 161.048 8.07855C160.624 7.6673 160.415 7.15017 160.415 6.52718C160.415 5.90418 160.626 5.38706 161.048 4.9758C161.471 4.56455 161.992 4.35892 162.615 4.35892C163.238 4.35892 163.756 4.56455 164.167 4.9758C164.578 5.38706 164.784 5.90418 164.784 6.52718Z" fill="#111111"/>
<path d="M183.5 18.871V28.279H179.864V19.0705C179.864 17.4479 179.52 16.2121 178.83 15.3672C178.139 14.5223 177.128 14.0988 175.794 14.0988C174.371 14.0988 173.253 14.5935 172.441 15.583C171.629 16.5724 171.223 17.9345 171.223 19.6691V28.277H167.62V11.1976H170.755L171.156 13.433C172.447 11.8084 174.269 10.9981 176.627 10.9981C178.65 10.9981 180.302 11.6211 181.58 12.867C182.859 14.113 183.498 16.1143 183.498 18.873L183.5 18.871Z" fill="#111111"/>
<path d="M0 20.2208V9.85388C0 0.166946 18.0383 0 18.0383 0V11.2017C18.0383 11.2017 0 10.7843 0 20.2208Z" fill="var(--fill-0, #E62C05)"/>
<path d="M0 10.7212V21.0881C0 30.7751 18.0383 30.942 18.0383 30.942V19.7403C18.0383 19.7403 0 20.1577 0 10.7212Z" fill="#FF6A13"/>
<path d="M36.0766 28.7615V18.3946C36.0766 8.70765 18.0383 8.54071 18.0383 8.54071V19.7424C18.0383 19.7424 36.0766 19.325 36.0766 28.7615Z" fill="#FF6A13"/>
<path d="M36.0766 19.2599V29.6268C36.0766 39.3137 18.0383 39.4807 18.0383 39.4807V28.279C18.0383 28.279 36.0766 28.6964 36.0766 19.2599Z" fill="var(--fill-0, #E62C05)"/>
</g>
</svg>
