<svg preserveAspectRatio="none" width="100%" height="100%" overflow="visible" style="display: block;" viewBox="0 0 52 58.25" fill="none" xmlns="http://www.w3.org/2000/svg">
<g id="Background">
<rect width="52" height="58.25" rx="8" fill="#E8E8E8"/>
<path id="Icon" d="M23.0938 30.625L24.1875 27.0625L21.3125 24.75H24.875L26 21.25L27.125 24.75H30.6875L27.7812 27.0625L28.875 30.625L26 28.4062L23.0938 30.625V30.625M18.5 42.25V32.5938C17.7083 31.7188 17.0938 30.7188 16.6562 29.5938C16.2188 28.4688 16 27.2708 16 26C16 23.2083 16.9688 20.8438 18.9062 18.9062C20.8438 16.9688 23.2083 16 26 16C28.7917 16 31.1562 16.9688 33.0938 18.9062C35.0312 20.8438 36 23.2083 36 26C36 27.2708 35.7812 28.4688 35.3438 29.5938C34.9062 30.7188 34.2917 31.7188 33.5 32.5938V42.25L26 39.75L18.5 42.25V42.25M26 33.5C28.0833 33.5 29.8542 32.7708 31.3125 31.3125C32.7708 29.8542 33.5 28.0833 33.5 26C33.5 23.9167 32.7708 22.1458 31.3125 20.6875C29.8542 19.2292 28.0833 18.5 26 18.5C23.9167 18.5 22.1458 19.2292 20.6875 20.6875C19.2292 22.1458 18.5 23.9167 18.5 26C18.5 28.0833 19.2292 29.8542 20.6875 31.3125C22.1458 32.7708 23.9167 33.5 26 33.5V33.5M21 38.5312L26 37.25L31 38.5312V34.6562C30.2708 35.0729 29.4844 35.401 28.6406 35.6406C27.7969 35.8802 26.9167 36 26 36C25.0833 36 24.2031 35.8802 23.3594 35.6406C22.5156 35.401 21.7292 35.0729 21 34.6562V38.5312V38.5312M26 36.5938V36.5938V36.5938V36.5938V36.5938V36.5938V36.5938V36.5938V36.5938V36.5938" fill="#F56910"/>
</g>
</svg>
