<svg preserveAspectRatio="none" width="100%" height="100%" overflow="visible" style="display: block;" viewBox="0 0 54.5 57" fill="none" xmlns="http://www.w3.org/2000/svg">
<g id="Background">
<rect width="54.5" height="57" rx="8" fill="#E8E8E8"/>
<path id="Icon" d="M18.5 41C17.8125 41 17.224 40.7552 16.7344 40.2656C16.2448 39.776 16 39.1875 16 38.5V21C16 20.3125 16.2448 19.724 16.7344 19.2344C17.224 18.7448 17.8125 18.5 18.5 18.5H19.75V16H22.25V18.5H32.25V16H34.75V18.5H36C36.6875 18.5 37.276 18.7448 37.7656 19.2344C38.2552 19.724 38.5 20.3125 38.5 21V38.5C38.5 39.1875 38.2552 39.776 37.7656 40.2656C37.276 40.7552 36.6875 41 36 41H18.5V41M18.5 38.5H36V38.5V38.5V26H18.5V38.5V38.5V38.5V38.5M18.5 23.5H36V21V21V21H18.5V21V21V23.5V23.5M18.5 23.5V21V21V21V21V21V21V23.5V23.5V23.5M27.25 31C26.8958 31 26.599 30.8802 26.3594 30.6406C26.1198 30.401 26 30.1042 26 29.75C26 29.3958 26.1198 29.099 26.3594 28.8594C26.599 28.6198 26.8958 28.5 27.25 28.5C27.6042 28.5 27.901 28.6198 28.1406 28.8594C28.3802 29.099 28.5 29.3958 28.5 29.75C28.5 30.1042 28.3802 30.401 28.1406 30.6406C27.901 30.8802 27.6042 31 27.25 31V31M22.25 31C21.8958 31 21.599 30.8802 21.3594 30.6406C21.1198 30.401 21 30.1042 21 29.75C21 29.3958 21.1198 29.099 21.3594 28.8594C21.599 28.6198 21.8958 28.5 22.25 28.5C22.6042 28.5 22.901 28.6198 23.1406 28.8594C23.3802 29.099 23.5 29.3958 23.5 29.75C23.5 30.1042 23.3802 30.401 23.1406 30.6406C22.901 30.8802 22.6042 31 22.25 31V31M32.25 31C31.8958 31 31.599 30.8802 31.3594 30.6406C31.1198 30.401 31 30.1042 31 29.75C31 29.3958 31.1198 29.099 31.3594 28.8594C31.599 28.6198 31.8958 28.5 32.25 28.5C32.6042 28.5 32.901 28.6198 33.1406 28.8594C33.3802 29.099 33.5 29.3958 33.5 29.75C33.5 30.1042 33.3802 30.401 33.1406 30.6406C32.901 30.8802 32.6042 31 32.25 31V31M27.25 36C26.8958 36 26.599 35.8802 26.3594 35.6406C26.1198 35.401 26 35.1042 26 34.75C26 34.3958 26.1198 34.099 26.3594 33.8594C26.599 33.6198 26.8958 33.5 27.25 33.5C27.6042 33.5 27.901 33.6198 28.1406 33.8594C28.3802 34.099 28.5 34.3958 28.5 34.75C28.5 35.1042 28.3802 35.401 28.1406 35.6406C27.901 35.8802 27.6042 36 27.25 36V36M22.25 36C21.8958 36 21.599 35.8802 21.3594 35.6406C21.1198 35.401 21 35.1042 21 34.75C21 34.3958 21.1198 34.099 21.3594 33.8594C21.599 33.6198 21.8958 33.5 22.25 33.5C22.6042 33.5 22.901 33.6198 23.1406 33.8594C23.3802 34.099 23.5 34.3958 23.5 34.75C23.5 35.1042 23.3802 35.401 23.1406 35.6406C22.901 35.8802 22.6042 36 22.25 36V36M32.25 36C31.8958 36 31.599 35.8802 31.3594 35.6406C31.1198 35.401 31 35.1042 31 34.75C31 34.3958 31.1198 34.099 31.3594 33.8594C31.599 33.6198 31.8958 33.5 32.25 33.5C32.6042 33.5 32.901 33.6198 33.1406 33.8594C33.3802 34.099 33.5 34.3958 33.5 34.75C33.5 35.1042 33.3802 35.401 33.1406 35.6406C32.901 35.8802 32.6042 36 32.25 36V36" fill="#F56910"/>
</g>
</svg>
