<svg preserveAspectRatio="none" width="100%" height="100%" overflow="visible" style="display: block;" viewBox="0 0 52 57" fill="none" xmlns="http://www.w3.org/2000/svg">
<g id="Background">
<rect width="52" height="57" rx="8" fill="#E8E8E8"/>
<path id="Icon" d="M26 28.5C26.6875 28.5 27.276 28.2552 27.7656 27.7656C28.2552 27.276 28.5 26.6875 28.5 26C28.5 25.3125 28.2552 24.724 27.7656 24.2344C27.276 23.7448 26.6875 23.5 26 23.5C25.3125 23.5 24.724 23.7448 24.2344 24.2344C23.7448 24.724 23.5 25.3125 23.5 26C23.5 26.6875 23.7448 27.276 24.2344 27.7656C24.724 28.2552 25.3125 28.5 26 28.5V28.5M26 37.6875C28.5417 35.3542 30.4271 33.2344 31.6562 31.3281C32.8854 29.4219 33.5 27.7292 33.5 26.25C33.5 23.9792 32.776 22.1198 31.3281 20.6719C29.8802 19.224 28.1042 18.5 26 18.5C23.8958 18.5 22.1198 19.224 20.6719 20.6719C19.224 22.1198 18.5 23.9792 18.5 26.25C18.5 27.7292 19.1146 29.4219 20.3438 31.3281C21.5729 33.2344 23.4583 35.3542 26 37.6875V37.6875M26 41C22.6458 38.1458 20.1406 35.4948 18.4844 33.0469C16.8281 30.599 16 28.3333 16 26.25C16 23.125 17.0052 20.6354 19.0156 18.7812C21.026 16.9271 23.3542 16 26 16C28.6458 16 30.974 16.9271 32.9844 18.7812C34.9948 20.6354 36 23.125 36 26.25C36 28.3333 35.1719 30.599 33.5156 33.0469C31.8594 35.4948 29.3542 38.1458 26 41V41M26 26V26V26V26V26V26V26V26V26V26" fill="#F56910"/>
</g>
</svg>
