<svg width="257.728" height="50.5696" viewBox="0 0 257.728 50.5696" fill="none" xmlns="http://www.w3.org/2000/svg">
<g id="Vector">
<path d="M15.7261 40.6855H8.36364C7.02268 40.6855 5.93383 41.7634 5.91191 43.1007C5.93748 43.5867 6.00691 44.0763 6.08729 44.6025C6.23345 45.4355 6.52941 46.2175 6.86921 46.9044C8.82768 50.4742 12.4998 50.6277 15.39 47.8361C16.2267 47.025 17.1658 45.6438 17.9221 44.2298H17.9184C18.0829 43.8973 18.1852 43.5319 18.1852 43.1373C18.1852 41.7817 17.0854 40.6819 15.7298 40.6819L15.7261 40.6855Z" fill="var(--fill-0, #0740A5)"/>
<path d="M68.3123 43.1261C68.3123 41.8181 67.2929 40.7621 66.0031 40.6854H58.3409C57.0548 40.7658 56.0317 41.8217 56.0317 43.1261C56.0317 43.5281 56.1377 43.9008 56.3057 44.2369H56.2984C57.0475 45.6473 57.9865 47.0284 58.8196 47.8396C61.7573 50.6311 65.3819 50.4813 67.3404 46.9079C67.7313 46.2209 67.9798 45.439 68.1223 44.606C68.2429 44.0944 68.2904 43.6194 68.3342 43.1444H68.305V43.1261H68.3123Z" fill="#0740A5"/>
<path d="M37.134 0C30.3122 0 23.9363 2.06808 18.4336 5.63058H55.8344C50.3317 2.06808 43.9557 0 37.134 0Z" fill="#0740A5"/>
<path d="M46.2102 9.09788C48.629 13.1683 50.456 17.4286 51.7713 21.7731H69.9712C67.2527 16.2302 63.4417 11.4692 58.8744 7.81173H45.3552C45.6438 8.23557 45.9471 8.65577 46.2102 9.09788Z" fill="#0740A5"/>
<path d="M28.0615 9.09788C28.3246 8.65211 28.6315 8.23557 28.9165 7.81173H15.3973C10.8263 11.4692 7.01901 16.2338 4.30055 21.7731H22.5004C23.8194 17.4286 25.6427 13.1719 28.0652 9.09788H28.0615Z" fill="#0740A5"/>
<path d="M42.8413 7.80824H31.434C30.9188 8.56458 30.3926 9.30997 29.9213 10.1029C27.6815 13.87 25.9642 17.7832 24.7073 21.7732H49.5644C48.3038 17.7832 46.5865 13.87 44.3503 10.1029C43.879 9.30997 43.3528 8.56824 42.8413 7.80824Z" fill="#0740A5"/>
<path d="M0 36.429H0.0109611C0.0109611 37.7845 1.11077 38.8844 2.46635 38.8844L20.0413 38.888C20.0048 33.8859 20.5821 28.8692 21.8646 23.9547H3.32865C1.68077 27.8278 0.515192 32.0115 0 36.429Z" fill="#0740A5"/>
<path d="M52.3998 23.9547C53.6786 28.8655 54.2596 33.8859 54.2231 38.888H71.7981C73.1536 38.8844 74.2571 37.7845 74.2571 36.429H74.2681C73.7492 32.0115 72.5873 27.8278 70.9394 23.9547H52.3998Z" fill="#0740A5"/>
<path d="M24.0788 23.9547C22.7451 28.8765 22.1422 33.8932 22.1934 38.888H23.0886C24.4441 38.8844 25.5439 37.7809 25.5439 36.429H25.5622C25.9568 31.7374 30.8859 28.1055 36.8343 28.1055C42.7828 28.1055 47.7776 31.7374 48.1722 36.429H48.1868C48.1868 37.7845 49.2866 38.8844 50.6386 38.8844L52.0782 38.888C52.1257 33.8932 51.5228 28.8801 50.1928 23.9547H24.0788Z" fill="#0740A5"/>
<path d="M36.8381 30.2684C32.1356 30.2684 28.2698 33.2573 28.2698 37.028C28.2698 40.7988 32.1392 43.7877 36.8381 43.7877C41.5369 43.7877 45.4575 40.7513 45.4575 37.028C45.4575 33.3048 41.5917 30.2684 36.8381 30.2684ZM32.6435 38.5225C31.814 38.5225 31.1417 37.8538 31.1417 37.0244C31.1417 36.195 31.814 35.5227 32.6435 35.5227C33.4729 35.5227 34.1452 36.195 34.1452 37.0244C34.1452 37.8538 33.4729 38.5225 32.6435 38.5225ZM41.0838 38.5225C40.2544 38.5225 39.5821 37.8502 39.5821 37.0244C39.5821 36.1986 40.2544 35.5227 41.0838 35.5227C41.9133 35.5227 42.5819 36.195 42.5819 37.0244C42.5819 37.8538 41.9096 38.5225 41.0838 38.5225Z" fill="#0740A5"/>
<path d="M107.379 10.695L112.703 30.371C112.988 31.4489 112.995 32.1614 112.725 32.5085C112.454 32.8556 111.764 33.031 110.657 33.031H109.754C108.643 33.031 107.858 32.8593 107.401 32.5085C106.944 32.1614 106.568 31.4452 106.283 30.371L105.048 25.5223H92.5007L91.2657 30.371C90.9807 31.4489 90.608 32.1614 90.1477 32.5085C89.6873 32.8556 88.9017 33.031 87.7946 33.031H86.8921C85.7813 33.031 85.0944 32.8593 84.824 32.5085C84.5536 32.1614 84.5609 31.4452 84.8459 30.371L90.1696 10.695C90.6775 8.86079 91.1049 7.47964 91.4521 6.55887C91.7663 5.67098 92.2596 4.79771 92.9282 3.94271C94.0682 2.42271 96.0157 1.66271 98.7744 1.66271C101.533 1.66271 103.481 2.42271 104.621 3.94271C105.286 4.79771 105.775 5.67098 106.097 6.55887C106.444 7.47964 106.875 8.85714 107.379 10.695ZM96.3044 10.98L93.9732 19.8223H103.528L101.248 10.98C100.806 9.43079 100.47 8.44791 100.251 8.03502C99.9948 7.59291 99.5051 7.37002 98.7744 7.37002C98.0436 7.37002 97.554 7.59291 97.2982 8.03502C97.0753 8.44791 96.7428 9.43079 96.3007 10.98H96.3044Z" fill="#F9CE15"/>
<path d="M130.811 2.13797C137.816 2.13797 141.316 5.59085 141.316 12.5003C141.316 19.4097 137.816 22.8151 130.811 22.8151H123.683V30.2762C123.683 31.3541 123.5 32.0812 123.134 32.4649C122.769 32.8449 122.031 33.0349 120.924 33.0349H120.069C118.958 33.0349 118.224 32.8449 117.858 32.4649C117.493 32.0849 117.31 31.3578 117.31 30.2762V7.84162C117.31 5.84662 117.76 4.39604 118.666 3.49354C119.572 2.59104 121.019 2.13797 123.014 2.13797H130.811ZM130.811 8.07912H125.108C124.158 8.07912 123.683 8.55412 123.683 9.50412V16.8703H130.811C132.302 16.8703 133.362 16.5305 133.997 15.8509C134.633 15.1712 134.947 14.0532 134.947 12.5003C134.947 10.9474 134.622 9.8622 133.972 9.1497C133.321 8.4372 132.269 8.07912 130.811 8.07912Z" fill="#F9CE15"/>
<path d="M145.401 21.0061V14.3525C145.401 10.2346 146.366 7.11422 148.299 4.98768C150.261 2.79903 153.67 1.70653 158.518 1.70653C163.367 1.70653 166.772 2.79903 168.738 4.98768C170.671 7.11056 171.639 10.2346 171.639 14.3525V21.0061C171.639 25.1277 170.671 28.2444 168.738 30.3709C166.772 32.5596 163.367 33.6521 158.518 33.6521C153.67 33.6521 150.264 32.5596 148.299 30.3709C146.366 28.2481 145.401 25.1277 145.401 21.0061ZM165.223 21.0061V14.3525C165.223 11.9117 164.777 10.2017 163.893 9.21883C162.972 8.17383 161.182 7.65133 158.522 7.65133C155.862 7.65133 154.072 8.17383 153.151 9.21883C152.263 10.2017 151.821 11.9117 151.821 14.3525V21.0061C151.821 23.4469 152.263 25.1569 153.151 26.1398C154.072 27.1848 155.862 27.7073 158.522 27.7073C161.182 27.7073 163.005 27.1848 163.893 26.1398C164.781 25.1569 165.223 23.4469 165.223 21.0061Z" fill="#F9CE15"/>
<path d="M177.244 27.3273V4.89269C177.244 3.81481 177.423 3.08769 177.792 2.70404C178.158 2.32404 178.892 2.13404 180.003 2.13404H180.858C181.969 2.13404 182.703 2.32404 183.068 2.70404C183.434 3.08404 183.617 3.81481 183.617 4.89269V25.6648C183.617 26.6148 184.092 27.0898 185.042 27.0898H194.691C195.769 27.0898 196.496 27.2725 196.88 27.6379C197.26 28.0033 197.45 28.7413 197.45 29.8485V30.276C197.45 31.3538 197.26 32.081 196.88 32.4646C196.5 32.8446 195.769 33.0346 194.691 33.0346H182.952C180.957 33.0346 179.506 32.5852 178.603 31.679C177.701 30.7729 177.248 29.326 177.248 27.331L177.244 27.3273Z" fill="#F9CE15"/>
<path d="M222.636 10.6952L227.96 30.3712C228.245 31.4491 228.252 32.1616 227.982 32.5087C227.711 32.8558 227.024 33.0312 225.914 33.0312H225.011C223.9 33.0312 223.115 32.8594 222.658 32.5087C222.198 32.1616 221.825 31.4454 221.54 30.3712L220.305 25.5225H207.758L206.523 30.3712C206.238 31.4491 205.865 32.1616 205.405 32.5087C204.944 32.8558 204.159 33.0312 203.051 33.0312H202.149C201.038 33.0312 200.351 32.8594 200.081 32.5087C199.81 32.1616 199.818 31.4454 200.106 30.3712L205.43 10.6952C205.938 8.86098 206.365 7.47983 206.713 6.55906C207.027 5.67117 207.52 4.7979 208.189 3.9429C209.329 2.4229 211.276 1.6629 214.035 1.6629C216.794 1.6629 218.741 2.4229 219.881 3.9429C220.546 4.7979 221.036 5.67117 221.357 6.55906C221.704 7.47983 222.135 8.85732 222.64 10.6952H222.636ZM211.561 10.9802L209.23 19.8225H218.785L216.505 10.9802C216.059 9.43098 215.727 8.44809 215.507 8.03521C215.252 7.59309 214.762 7.37021 214.031 7.37021C213.3 7.37021 212.811 7.59309 212.555 8.03521C212.332 8.44809 212 9.43098 211.558 10.9802H211.561Z" fill="#F9CE15"/>
<path d="M256.573 12.0216C256.573 17.1553 254.435 20.2757 250.157 21.3864L256.383 30.7512C256.982 31.6391 257.205 32.242 257.048 32.5562C256.891 32.8705 256.255 33.0312 255.144 33.0312H253.339C252.261 33.0312 251.436 32.8741 250.866 32.5562C250.296 32.242 249.693 31.6209 249.061 30.7037L243.262 21.8614H238.939V30.2762C238.939 31.3541 238.757 32.0812 238.391 32.4649C238.026 32.8449 237.292 33.0349 236.181 33.0349H235.326C234.215 33.0349 233.481 32.8449 233.115 32.4649C232.75 32.0849 232.567 31.3578 232.567 30.2762V7.84162C232.567 5.84662 233.017 4.39604 233.923 3.49354C234.829 2.59104 236.276 2.13797 238.271 2.13797H246.064C253.069 2.13797 256.569 5.43373 256.569 12.0216H256.573ZM246.068 8.07912H240.364C239.414 8.07912 238.939 8.55412 238.939 9.50412V15.9203H246.068C248.827 15.9203 250.204 14.6232 250.204 12.0216C250.204 10.6587 249.879 9.66124 249.229 9.02547C248.578 8.3897 247.526 8.07547 246.068 8.07547V8.07912Z" fill="#F9CE15"/>
<path d="M88.4303 50.5694C87.5096 50.5694 86.7167 50.3684 86.0553 49.9701C85.394 49.5719 84.8825 49.0128 84.528 48.2967C84.1736 47.5805 83.9946 46.7548 83.9946 45.8157C83.9946 44.8767 84.1736 44.0473 84.528 43.3275C84.8825 42.6076 85.394 42.045 86.0553 41.643C86.7167 41.2411 87.5096 41.0365 88.4303 41.0365C89.5448 41.0365 90.4582 41.3142 91.1671 41.8659C91.8796 42.4176 92.3217 43.1996 92.4971 44.208H90.5605C90.4473 43.7184 90.2061 43.3311 89.8444 43.0571C89.479 42.7794 89.004 42.6442 88.4157 42.6442C87.8713 42.6442 87.4036 42.7721 87.0126 43.0315C86.6217 43.2909 86.3221 43.6563 86.1102 44.124C85.8982 44.5953 85.7959 45.158 85.7959 45.8157C85.7959 46.4734 85.9019 47.0251 86.1102 47.5001C86.3221 47.9751 86.6217 48.3369 87.0126 48.5926C87.4036 48.8484 87.8713 48.9726 88.4157 48.9726C89.004 48.9726 89.479 48.8448 89.8371 48.5853C90.1988 48.3259 90.4327 47.9642 90.5496 47.5001H92.4971C92.3217 48.4575 91.8796 49.2065 91.1671 49.7509C90.4546 50.2953 89.5448 50.5657 88.4303 50.5657V50.5694Z" fill="var(--fill-0, #0740A5)"/>
<path d="M106.162 50.5696C105.267 50.5696 104.478 50.3687 103.791 49.9631C103.108 49.5612 102.571 48.9985 102.183 48.286C101.796 47.5698 101.602 46.7441 101.602 45.805C101.602 44.866 101.796 44.0402 102.183 43.3241C102.571 42.6079 103.104 42.0489 103.791 41.647C104.474 41.245 105.267 41.0404 106.162 41.0404C107.058 41.0404 107.861 41.2414 108.545 41.647C109.228 42.0489 109.761 42.6116 110.145 43.3241C110.529 44.0366 110.719 44.866 110.719 45.805C110.719 46.7441 110.529 47.5698 110.145 48.286C109.761 49.0021 109.232 49.5612 108.545 49.9631C107.861 50.365 107.065 50.5696 106.162 50.5696ZM106.162 48.9766C106.725 48.9766 107.207 48.8487 107.617 48.5893C108.026 48.3298 108.344 47.9645 108.57 47.4895C108.797 47.0145 108.914 46.4554 108.914 45.805C108.914 45.1547 108.8 44.5846 108.57 44.1133C108.344 43.6456 108.022 43.2802 107.617 43.0281C107.207 42.7723 106.725 42.6481 106.162 42.6481C105.6 42.6481 105.128 42.776 104.715 43.0281C104.303 43.2839 103.981 43.6456 103.754 44.1133C103.528 44.5846 103.411 45.1473 103.411 45.805C103.411 46.4627 103.524 47.0145 103.754 47.4895C103.981 47.9645 104.303 48.3298 104.715 48.5893C105.128 48.8487 105.611 48.9766 106.162 48.9766Z" fill="var(--fill-0, #0740A5)"/>
<path d="M120.131 50.4125V41.1975H121.907L126.145 47.5552V41.1975H127.921V50.4125H126.145L121.907 44.0657V50.4125H120.131Z" fill="var(--fill-0, #0740A5)"/>
<path d="M137.626 41.1975H140.706C141.777 41.1975 142.661 41.3875 143.359 41.7711C144.057 42.1548 144.575 42.6882 144.912 43.3788C145.248 44.0694 145.419 44.8769 145.419 45.8086C145.419 46.7403 145.251 47.5478 144.912 48.2384C144.572 48.929 144.057 49.4625 143.366 49.8461C142.675 50.2298 141.788 50.4198 140.706 50.4198H137.626V41.1975ZM139.405 48.8852H140.618C141.375 48.8852 141.967 48.7609 142.401 48.5161C142.836 48.2713 143.147 47.9169 143.329 47.4565C143.512 46.9961 143.607 46.4444 143.607 45.805C143.607 45.1655 143.516 44.5992 143.329 44.1388C143.147 43.6784 142.836 43.324 142.401 43.0792C141.967 42.8344 141.371 42.7102 140.618 42.7102H139.405V48.8852Z" fill="var(--fill-0, #0740A5)"/>
<path d="M159.085 50.5696C158.19 50.5696 157.4 50.3687 156.717 49.9631C156.034 49.5612 155.497 48.9985 155.109 48.286C154.722 47.5735 154.532 46.7441 154.532 45.805C154.532 44.866 154.726 44.0402 155.109 43.3241C155.493 42.6079 156.03 42.0489 156.717 41.647C157.4 41.245 158.193 41.0404 159.085 41.0404C159.976 41.0404 160.784 41.2414 161.467 41.647C162.15 42.0489 162.684 42.6116 163.067 43.3241C163.451 44.0366 163.641 44.866 163.641 45.805C163.641 46.7441 163.451 47.5698 163.067 48.286C162.684 49.0021 162.154 49.5612 161.467 49.9631C160.784 50.365 159.987 50.5696 159.085 50.5696ZM159.085 48.9766C159.647 48.9766 160.133 48.8487 160.539 48.5893C160.948 48.3298 161.266 47.9645 161.493 47.4895C161.719 47.0145 161.836 46.4554 161.836 45.805C161.836 45.1547 161.723 44.5846 161.493 44.1133C161.266 43.6456 160.945 43.2802 160.539 43.0281C160.13 42.7723 159.647 42.6481 159.085 42.6481C158.522 42.6481 158.051 42.776 157.638 43.0281C157.225 43.2839 156.903 43.6456 156.677 44.1133C156.45 44.5846 156.333 45.1473 156.333 45.805C156.333 46.4627 156.447 47.0145 156.677 47.4895C156.903 47.9645 157.225 48.3298 157.638 48.5893C158.051 48.8487 158.533 48.9766 159.085 48.9766Z" fill="var(--fill-0, #0740A5)"/>
<path d="M173.053 50.4125V41.1975H175.173L177.99 46.9523L180.781 41.1975H182.9V50.4125H181.125V44.2265L178.688 49.1227H177.281L174.833 44.2265V50.4125H173.053Z" fill="var(--fill-0, #0740A5)"/>
<path d="M192.116 40.6313L191.958 39.4584L194.841 37.7996L195.053 39.1552L192.119 40.6313H192.116ZM192.616 50.4127V41.1977H194.392V50.4127H192.616Z" fill="var(--fill-0, #0740A5)"/>
<path d="M204.093 50.4125V41.1975H205.869L210.107 47.5552V41.1975H211.883V50.4125H210.107L205.869 44.0657V50.4125H204.093Z" fill="var(--fill-0, #0740A5)"/>
<path d="M221.591 50.4125V41.1975H223.367V50.4125H221.591Z" fill="var(--fill-0, #0740A5)"/>
<path d="M237.321 50.5696C236.426 50.5696 235.636 50.3687 234.953 49.9631C234.27 49.5612 233.733 48.9985 233.345 48.286C232.958 47.5735 232.768 46.7441 232.768 45.805C232.768 44.866 232.962 44.0402 233.345 43.3241C233.729 42.6079 234.266 42.0489 234.953 41.647C235.636 41.245 236.429 41.0404 237.321 41.0404C238.212 41.0404 239.02 41.2414 239.703 41.647C240.386 42.0489 240.92 42.6116 241.304 43.3241C241.687 44.0366 241.877 44.866 241.877 45.805C241.877 46.7441 241.687 47.5698 241.304 48.286C240.92 49.0021 240.39 49.5612 239.703 49.9631C239.02 50.365 238.223 50.5696 237.321 50.5696ZM237.321 48.9766C237.884 48.9766 238.37 48.8487 238.775 48.5893C239.184 48.3298 239.502 47.9645 239.729 47.4895C239.955 47.0145 240.072 46.4554 240.072 45.805C240.072 45.1547 239.959 44.5846 239.729 44.1133C239.502 43.6456 239.181 43.2802 238.775 43.0281C238.366 42.7723 237.884 42.6481 237.321 42.6481C236.758 42.6481 236.287 42.776 235.874 43.0281C235.461 43.2839 235.14 43.6456 234.913 44.1133C234.686 44.5846 234.57 45.1473 234.57 45.805C234.57 46.4627 234.683 47.0145 234.913 47.4895C235.14 47.9645 235.461 48.3298 235.874 48.5893C236.287 48.8487 236.769 48.9766 237.321 48.9766Z" fill="var(--fill-0, #0740A5)"/>
<path d="M254.461 50.5694C253.792 50.5694 253.201 50.4561 252.678 50.2259C252.156 49.9994 251.743 49.6632 251.439 49.2248C251.136 48.7863 250.979 48.2565 250.972 47.6317H252.853C252.861 47.9057 252.934 48.1505 253.065 48.3698C253.197 48.589 253.38 48.7644 253.613 48.8886C253.847 49.0128 254.125 49.0786 254.45 49.0786C254.731 49.0786 254.976 49.0311 255.181 48.9398C255.386 48.8484 255.546 48.7169 255.66 48.5524C255.773 48.3844 255.831 48.1871 255.831 47.9605C255.831 47.6975 255.769 47.4782 255.641 47.3028C255.513 47.1274 255.338 46.9776 255.115 46.8571C254.892 46.7328 254.633 46.6232 254.341 46.5209C254.045 46.4186 253.738 46.3126 253.412 46.1994C252.685 45.9619 252.13 45.6476 251.746 45.253C251.366 44.8584 251.173 44.3359 251.173 43.6855C251.173 43.1338 251.308 42.6588 251.575 42.2642C251.841 41.8696 252.214 41.5663 252.685 41.3544C253.16 41.1425 253.697 41.0365 254.304 41.0365C254.911 41.0365 255.473 41.1425 255.945 41.358C256.412 41.5736 256.789 41.8842 257.063 42.2861C257.34 42.6917 257.483 43.163 257.49 43.7075H255.594C255.586 43.5065 255.524 43.3128 255.415 43.1338C255.305 42.9548 255.155 42.8086 254.962 42.699C254.768 42.5894 254.541 42.5346 254.278 42.5346C254.052 42.5273 253.84 42.5601 253.654 42.6405C253.464 42.7209 253.317 42.8342 253.208 42.9876C253.098 43.1411 253.043 43.3311 253.043 43.5613C253.043 43.7915 253.098 43.9669 253.208 44.113C253.317 44.2628 253.467 44.3907 253.661 44.5003C253.855 44.61 254.081 44.7123 254.344 44.8036C254.607 44.895 254.892 44.99 255.199 45.085C255.656 45.2421 256.076 45.4284 256.463 45.644C256.851 45.8596 257.158 46.1373 257.384 46.4807C257.611 46.8242 257.728 47.2736 257.728 47.8363C257.728 48.3186 257.6 48.768 257.348 49.1773C257.092 49.5901 256.726 49.9226 256.248 50.1784C255.769 50.4342 255.174 50.5584 254.465 50.5584L254.461 50.5694Z" fill="var(--fill-0, #0740A5)"/>
</g>
</svg>
