<svg width="308.0011" height="48.3518" viewBox="0 0 308.0011 48.3518" fill="none" xmlns="http://www.w3.org/2000/svg">
<g id="Vector">
<path d="M11.9941 3.31493L15.9706 14.9232L23.987 37.951H33.5658L21.5729 3.31493H11.9941Z" fill="#234D99"/>
<path d="M21.5729 3.31493L17.5952 14.9234L9.57879 37.9512H0L11.9929 3.31517L21.5729 3.31493Z" fill="#3E80DD"/>
<path d="M58.2433 23.2061V35.3292C58.2433 37.3575 56.9568 38.3967 55.2749 38.3967C53.593 38.3967 52.3555 37.3575 52.3555 35.3292V23.7508C52.3555 19.5449 49.6834 17.3184 46.5669 17.3184C43.4504 17.3184 40.7783 19.5449 40.7783 23.7508V35.3292C40.7783 37.3575 39.4918 38.3967 37.8589 38.3967C36.226 38.3967 34.8906 37.3575 34.8906 35.3292V23.2061C34.8906 15.4382 40.531 11.5286 46.5681 11.5286C52.6052 11.5286 58.2456 15.437 58.2456 23.2061H58.2433Z" fill="var(--fill-0, #050D19)"/>
<path d="M86.5435 3.06751V25.5315C86.5435 33.8441 81.1993 38.3964 73.9259 38.3964C66.6525 38.3964 60.4183 33.9922 60.4183 24.9378C60.4183 17.5653 65.5643 11.9738 73.5795 11.9738H75.855C77.7352 11.9738 78.6753 13.3092 78.6753 14.8442C78.6753 16.3791 77.7352 17.7636 75.855 17.7636H73.5795C69.0774 17.7636 66.5044 20.683 66.5044 24.9378C66.5044 30.0838 69.9183 32.6066 73.6296 32.6066C77.341 32.6066 80.6558 30.0336 80.6558 24.9378V3.06751C80.6558 1.03923 81.9423 0 83.6241 0C85.306 0 86.5435 1.03923 86.5435 3.06751Z" fill="var(--fill-0, #050D19)"/>
<path d="M114.893 35.3278C114.893 37.3561 113.606 38.3953 111.974 38.3953C110.341 38.3953 109.005 37.3561 109.005 35.3278V24.9367C109.005 19.8899 105.591 17.317 101.979 17.317C98.3669 17.317 94.8539 19.841 94.8539 24.9857C94.8539 29.2406 97.4268 32.16 101.929 32.16H104.204C106.085 32.16 107.025 33.5456 107.025 35.0793C107.025 36.6131 106.085 37.9486 104.204 37.9486H101.929C93.9138 37.9486 88.7678 32.3571 88.7678 24.9845C88.7678 15.9301 95.2492 11.526 102.275 11.526C109.301 11.526 114.893 16.0783 114.893 24.3909V35.3278Z" fill="var(--fill-0, #050D19)"/>
<path d="M133.892 14.8446C133.892 16.3783 132.952 17.764 131.12 17.764H129.289C126.222 17.764 123.649 19.545 123.649 23.7508V35.3292C123.649 37.3575 122.362 38.3967 120.729 38.3967C119.096 38.3967 117.761 37.3575 117.761 35.3292V23.2061C117.761 15.4382 123.253 11.9742 129.289 11.9742H131.12C132.952 11.9742 133.892 13.3096 133.892 14.8446Z" fill="var(--fill-0, #050D19)"/>
<path d="M143.491 32.8638L145.328 31.0768C147.909 34.6019 151.087 36.1404 155.405 36.1404C160.021 36.1404 163.248 33.8075 163.248 29.9349C163.248 19.6095 145.773 24.3744 145.773 12.2131C145.773 7.05044 149.844 3.72492 155.603 3.72492C159.922 3.72492 163.446 5.51191 165.779 8.54L163.942 10.327C161.807 7.6465 159.176 6.15695 155.553 6.15695C151.284 6.15695 148.454 8.39068 148.454 12.0638C148.454 21.7441 165.878 17.1775 165.878 29.6375C165.878 35.3962 161.807 38.5736 155.304 38.5736C150.043 38.5736 146.269 36.4892 143.489 32.865L143.491 32.8638Z" fill="var(--fill-0, #050D19)"/>
<path d="M169.304 26.509C169.304 19.7074 174.368 14.4958 181.119 14.4958C187.373 14.4958 191.842 19.0624 191.842 25.5164C191.842 25.9129 191.792 26.5592 191.644 27.4527H171.887C172.333 32.7647 176.106 36.1893 181.567 36.1893C184.545 36.1893 187.176 35.0975 188.914 32.9128L190.602 34.5504C188.468 37.0828 185.142 38.5712 181.419 38.5712C174.469 38.5712 169.306 33.4085 169.306 26.5078L169.304 26.509ZM171.885 25.2679H189.36C189.261 20.2044 186.034 16.8287 181.07 16.8287C176.106 16.8287 172.333 20.2044 171.887 25.2679H171.885Z" fill="var(--fill-0, #050D19)"/>
<path d="M194.968 26.2116C194.968 19.5593 199.833 14.4958 206.336 14.4958C210.456 14.4958 213.832 16.4321 215.52 19.6585V14.9927H218.051V37.182C218.051 43.8832 213.186 48.3518 205.939 48.3518C201.421 48.3518 197.649 46.6138 195.464 43.4376L197.053 41.8489C198.84 44.3801 201.967 45.9688 205.988 45.9688C211.845 45.9688 215.519 42.5931 215.519 37.182V32.7635C213.831 35.9898 210.554 37.9261 206.434 37.9261C199.832 37.9261 194.967 32.9617 194.967 26.2104L194.968 26.2116ZM215.669 26.2116C215.669 20.7013 212.045 16.8788 206.783 16.8788C201.521 16.8788 197.549 20.7514 197.549 26.1614C197.549 31.5713 201.422 35.5933 206.882 35.5933C212.342 35.5933 215.669 31.87 215.669 26.2104V26.2116Z" fill="var(--fill-0, #050D19)"/>
<path d="M223.759 28.4451V14.9925H226.291V28.3459C226.291 33.0117 229.07 36.1891 233.339 36.1891C237.609 36.1891 240.339 33.0619 240.339 28.3459V14.9925H242.872V28.4451C242.872 34.4021 238.95 38.5721 233.341 38.5721C227.731 38.5721 223.759 34.4523 223.759 28.4451Z" fill="var(--fill-0, #050D19)"/>
<path d="M248.58 14.9927H251.111V18.3684C252.502 15.8862 254.934 14.4958 257.962 14.4958C260.246 14.4958 262.181 15.24 263.82 17.027L262.132 18.814C260.891 17.4737 259.451 16.8776 257.515 16.8776C253.743 16.8776 251.111 19.5092 251.111 24.2741V38.0743H248.58V14.9927Z" fill="var(--fill-0, #050D19)"/>
<path d="M264.415 26.4599C264.415 19.7086 269.628 14.4969 276.378 14.4969C283.128 14.4969 288.292 19.7098 288.292 26.4599C288.292 33.2101 283.03 38.5723 276.378 38.5723C269.725 38.5723 264.415 33.2603 264.415 26.4599ZM285.661 26.4098C285.661 20.9497 281.69 16.8788 276.379 16.8788C271.068 16.8788 266.997 20.9986 266.997 26.4599C266.997 31.9213 271.018 36.1892 276.379 36.1892C281.74 36.1892 285.661 32.0192 285.661 26.4098Z" fill="var(--fill-0, #050D19)"/>
<path d="M290.973 34.4023L292.661 32.7145C294.547 35.1465 297.03 36.2885 300.009 36.2885C303.434 36.2885 305.569 34.7989 305.569 32.3167C305.569 25.5653 292.414 29.0903 292.414 20.6511C292.414 16.978 295.343 14.4958 300.059 14.4958C303.434 14.4958 306.363 15.7369 308.001 18.0208L306.363 19.7086C305.023 17.8715 302.69 16.7797 299.909 16.7797C296.584 16.7797 294.846 18.3684 294.846 20.503C294.846 26.7085 308.001 23.2336 308.001 32.0694C308.001 36.0412 304.824 38.5724 299.96 38.5724C296.187 38.5724 293.01 36.9347 290.975 34.4023H290.973Z" fill="var(--fill-0, #050D19)"/>
</g>
</svg>
