<svg width="1028.5331" height="101.7974" viewBox="0 0 1028.5331 101.7974" fill="none" xmlns="http://www.w3.org/2000/svg">
<g id="Frame 1">
<g id="Vector">
<path fill-rule="evenodd" clip-rule="evenodd" d="M9.41558 22.65L0 32.0656V56.9513C0 69.21 9.93739 79.1474 22.1961 79.1474H24.8857C37.1444 79.1474 47.0817 69.21 47.0817 56.9513V32.0656H37.6662V22.65H9.41558ZM9.41558 32.0656H37.6623V55.6046C37.6623 63.4048 31.3392 69.7279 23.539 69.7279C15.7387 69.7279 9.41558 63.4048 9.41558 55.6046V32.0656Z" fill="#47D154"/>
<path d="M79.2344 67.3798C76.234 67.3798 73.6134 66.6968 71.3689 65.3309C69.1282 63.965 67.3824 62.0696 66.1431 59.6409C64.9 57.1853 64.2784 54.3307 64.2784 51.0848C64.2784 47.8388 64.9153 44.9267 66.1853 42.4404C67.4898 39.9234 69.3239 37.9666 71.6873 36.57C74.0815 35.1427 76.9131 34.4329 80.1859 34.4329C83.9115 34.4329 87.004 35.3269 89.4595 37.1187C91.9151 38.9105 93.5036 41.3814 94.2326 44.5353H87.733C87.2495 43.0504 86.3671 41.8956 85.0971 41.0783C83.8232 40.2304 82.1887 39.8045 80.1898 39.8045C77.009 39.8045 74.5535 40.8213 72.8269 42.8548C71.1003 44.8576 70.237 47.6163 70.237 51.1385C70.237 54.6607 71.085 57.3887 72.7847 59.3301C74.5112 61.2409 76.844 62.1962 79.7831 62.1962C82.7221 62.1962 84.8285 61.4212 86.2826 59.8749C87.7675 58.298 88.6615 56.2338 88.9646 53.6861H80.9188V49.316H94.8273V66.835H89.4634L89.0068 62.649C87.9747 64.1645 86.6893 65.3348 85.1431 66.152C83.5969 66.9693 81.6286 67.3798 79.2344 67.3798Z" fill="var(--fill-0, black)"/>
<path d="M109.346 67.3798C107.224 67.3798 105.333 66.8657 103.663 65.8336C101.998 64.8014 100.678 63.3933 99.7077 61.6015C98.737 59.8097 98.2536 57.78 98.2536 55.5048C98.2536 53.2296 98.737 51.2114 99.7077 49.4541C100.678 47.6623 101.994 46.2695 103.663 45.2681C105.329 44.236 107.224 43.7219 109.346 43.7219C111.042 43.7219 112.527 44.0404 113.8 44.6773C115.074 45.3142 116.102 46.2082 116.889 47.363L117.208 44.2667H122.706V66.8388H117.254L116.889 63.6082C116.164 64.6096 115.193 65.4882 113.981 66.2479C112.799 67.0076 111.253 67.3875 109.346 67.3875V67.3798ZM110.574 62.2845C112.454 62.2845 113.985 61.6629 115.166 60.4198C116.379 59.146 116.985 57.523 116.985 55.5508C116.985 53.5787 116.379 51.9711 115.166 50.7279C113.985 49.4541 112.454 48.8172 110.574 48.8172C108.694 48.8172 107.193 49.4388 105.981 50.6819C104.768 51.925 104.162 53.5327 104.162 55.5048C104.162 57.4769 104.768 59.0999 105.981 60.3737C107.193 61.6476 108.724 62.2845 110.574 62.2845Z" fill="var(--fill-0, black)"/>
<path d="M126.19 66.835V44.2629H131.373L131.918 48.4949C132.735 47.0369 133.844 45.8859 135.237 45.0379C136.66 44.1593 138.329 43.7181 140.236 43.7181V49.8608H138.598C137.324 49.8608 136.188 50.0565 135.187 50.4517C134.185 50.8469 133.399 51.5298 132.823 52.5006C132.279 53.4713 132.006 54.8218 132.006 56.5523V66.835H126.186H126.19Z" fill="var(--fill-0, black)"/>
<path d="M152.809 67.3798C150.688 67.3798 148.796 66.8657 147.127 65.8336C145.462 64.8014 144.142 63.3933 143.171 61.6015C142.201 59.8097 141.717 57.78 141.717 55.5048C141.717 53.2296 142.201 51.2114 143.171 49.4541C144.142 47.6623 145.458 46.2695 147.127 45.2681C148.792 44.236 150.688 43.7219 152.809 43.7219C154.505 43.7219 155.99 44.0404 157.264 44.6773C158.538 45.3142 159.566 46.2082 160.353 47.363L160.671 44.2667H166.169V66.8388H160.717L160.353 63.6082C159.628 64.6096 158.657 65.4882 157.444 66.2479C156.263 67.0076 154.716 67.3875 152.809 67.3875V67.3798ZM154.037 62.2845C155.917 62.2845 157.448 61.6629 158.63 60.4198C159.842 59.146 160.449 57.523 160.449 55.5508C160.449 53.5787 159.842 51.9711 158.63 50.7279C157.448 49.4541 155.917 48.8172 154.037 48.8172C152.157 48.8172 150.657 49.4388 149.445 50.6819C148.232 51.925 147.626 53.5327 147.626 55.5048C147.626 57.4769 148.232 59.0999 149.445 60.3737C150.657 61.6476 152.188 62.2845 154.037 62.2845Z" fill="var(--fill-0, black)"/>
<path d="M169.657 66.835V44.2629H174.794L175.247 48.0844C175.946 46.7492 176.943 45.6864 178.248 44.8998C179.579 44.1094 181.141 43.7181 182.929 43.7181C185.718 43.7181 187.882 44.5967 189.428 46.3578C190.974 48.1189 191.746 50.6973 191.746 54.0928V66.835H185.929V54.6377C185.929 52.6962 185.534 51.2114 184.747 50.1793C183.961 49.1472 182.733 48.633 181.068 48.633C179.403 48.633 178.083 49.2086 177.024 50.3634C175.992 51.5145 175.477 53.126 175.477 55.1863V66.835H169.657Z" fill="var(--fill-0, black)"/>
<path d="M205.992 66.835C203.628 66.835 201.733 66.2594 200.309 65.1046C198.886 63.9535 198.172 61.9046 198.172 58.9618V49.1318H194.309V44.2629H198.172L203.989 38.2122V44.2629H210.082V49.1318H203.989V59.0078C203.989 60.1013 204.215 60.8572 204.672 61.2831C205.155 61.6783 205.976 61.8739 207.127 61.8739H209.948V66.835H205.992Z" fill="var(--fill-0, black)"/>
<path d="M213.942 66.835V50.1793L219.758 44.2629V66.835H213.942Z" fill="var(--fill-0, black)"/>
<path d="M223.012 66.835V62.1464L234.511 49.0858H223.15V44.2629H241.149V48.9515L229.465 62.0121H241.375V66.835H223.012Z" fill="var(--fill-0, black)"/>
<path d="M254.14 67.3798C252.018 67.3798 250.127 66.8657 248.458 65.8336C246.793 64.8014 245.473 63.3933 244.502 61.6015C243.531 59.8097 243.048 57.78 243.048 55.5048C243.048 53.2296 243.531 51.2114 244.502 49.4541C245.473 47.6623 246.789 46.2695 248.458 45.2681C250.123 44.236 252.018 43.7219 254.14 43.7219C255.836 43.7219 257.321 44.0404 258.595 44.6773C259.869 45.3142 260.897 46.2082 261.683 47.363L262.002 44.2667H267.5V66.8388H262.048L261.683 63.6082C260.958 64.6096 259.987 65.4882 258.775 66.2479C257.593 67.0076 256.047 67.3875 254.14 67.3875V67.3798ZM255.368 62.2845C257.248 62.2845 258.779 61.6629 259.961 60.4198C261.173 59.146 261.779 57.523 261.779 55.5508C261.779 53.5787 261.173 51.9711 259.961 50.7279C258.779 49.4541 257.248 48.8172 255.368 48.8172C253.488 48.8172 251.988 49.4388 250.775 50.6819C249.563 51.925 248.957 53.5327 248.957 55.5048C248.957 57.4769 249.563 59.0999 250.775 60.3737C251.988 61.6476 253.519 62.2845 255.368 62.2845Z" fill="var(--fill-0, black)"/>
</g>
<g id="Vector_2">
<path d="M318.494 30.0377L322.471 41.646L330.487 64.6738H340.066L328.073 30.0377H318.494Z" fill="#234D99"/>
<path d="M328.073 30.0377L324.095 41.6462L316.079 64.674H306.5L318.493 30.0379L328.073 30.0377Z" fill="#3E80DD"/>
<path d="M364.743 49.9289V62.052C364.743 64.0803 363.457 65.1195 361.775 65.1195C360.093 65.1195 358.856 64.0803 358.856 62.052V50.4736C358.856 46.2677 356.183 44.0411 353.067 44.0411C349.95 44.0411 347.278 46.2677 347.278 50.4736V62.052C347.278 64.0803 345.992 65.1195 344.359 65.1195C342.726 65.1195 341.391 64.0803 341.391 62.052V49.9289C341.391 42.161 347.031 38.2513 353.068 38.2513C359.105 38.2513 364.746 42.1598 364.746 49.9289H364.743Z" fill="var(--fill-0, #050D19)"/>
<path d="M393.044 29.7903V52.2543C393.044 60.5669 387.699 65.1192 380.426 65.1192C373.153 65.1192 366.918 60.715 366.918 51.6606C366.918 44.2881 372.064 38.6966 380.079 38.6966H382.355C384.235 38.6966 385.175 40.032 385.175 41.567C385.175 43.1019 384.235 44.4864 382.355 44.4864H380.079C375.577 44.4864 373.004 47.4057 373.004 51.6606C373.004 56.8065 376.418 59.3294 380.13 59.3294C383.841 59.3294 387.156 56.7564 387.156 51.6606V29.7903C387.156 27.762 388.442 26.7228 390.124 26.7228C391.806 26.7228 393.044 27.762 393.044 29.7903Z" fill="var(--fill-0, #050D19)"/>
<path d="M421.393 62.0506C421.393 64.0789 420.106 65.1181 418.474 65.1181C416.841 65.1181 415.505 64.0789 415.505 62.0506V51.6595C415.505 46.6127 412.091 44.0397 408.479 44.0397C404.867 44.0397 401.354 46.5637 401.354 51.7085C401.354 55.9633 403.927 58.8827 408.429 58.8827H410.704C412.585 58.8827 413.525 60.2684 413.525 61.8021C413.525 63.3359 412.585 64.6713 410.704 64.6713H408.429C400.414 64.6713 395.268 59.0798 395.268 51.7073C395.268 42.6529 401.749 38.2487 408.775 38.2487C415.801 38.2487 421.393 42.801 421.393 51.1136V62.0506Z" fill="var(--fill-0, #050D19)"/>
<path d="M440.392 41.5673C440.392 43.1011 439.452 44.4867 437.62 44.4867H435.789C432.722 44.4867 430.149 46.2677 430.149 50.4736V62.052C430.149 64.0803 428.862 65.1195 427.229 65.1195C425.596 65.1195 424.261 64.0803 424.261 62.052V49.9289C424.261 42.161 429.753 38.6969 435.789 38.6969H437.62C439.452 38.6969 440.392 40.0324 440.392 41.5673Z" fill="var(--fill-0, #050D19)"/>
<path d="M449.991 59.5866L451.828 57.7996C454.409 61.3246 457.587 62.8631 461.905 62.8631C466.521 62.8631 469.748 60.5303 469.748 56.6577C469.748 46.3323 452.273 51.0972 452.273 38.9359C452.273 33.7732 456.344 30.4477 462.103 30.4477C466.422 30.4477 469.946 32.2347 472.279 35.2628L470.442 37.0498C468.307 34.3693 465.676 32.8797 462.053 32.8797C457.784 32.8797 454.954 35.1135 454.954 38.7866C454.954 48.4669 472.378 43.9003 472.378 56.3602C472.378 62.119 468.307 65.2964 461.804 65.2964C456.543 65.2964 452.769 63.2119 449.989 59.5878L449.991 59.5866Z" fill="var(--fill-0, #050D19)"/>
<path d="M475.804 53.2318C475.804 46.4302 480.868 41.2186 487.619 41.2186C493.873 41.2186 498.342 45.7852 498.342 52.2391C498.342 52.6357 498.292 53.2819 498.144 54.1754H478.387C478.833 59.4874 482.606 62.9121 488.067 62.9121C491.045 62.9121 493.676 61.8203 495.414 59.6355L497.102 61.2732C494.968 63.8056 491.642 65.2939 487.919 65.2939C480.969 65.2939 475.806 60.1313 475.806 53.2306L475.804 53.2318ZM478.385 51.9907H495.86C495.761 46.9271 492.534 43.5514 487.57 43.5514C482.606 43.5514 478.833 46.9271 478.387 51.9907H478.385Z" fill="var(--fill-0, #050D19)"/>
<path d="M501.468 52.9343C501.468 46.2821 506.333 41.2186 512.836 41.2186C516.956 41.2186 520.332 43.1549 522.02 46.3812V41.7155H524.551V63.9047C524.551 70.6059 519.686 75.0746 512.439 75.0746C507.921 75.0746 504.149 73.3366 501.964 70.1604L503.553 68.5717C505.34 71.1029 508.467 72.6915 512.488 72.6915C518.345 72.6915 522.019 69.3159 522.019 63.9047V59.4862C520.331 62.7126 517.054 64.6489 512.934 64.6489C506.332 64.6489 501.467 59.6845 501.467 52.9331L501.468 52.9343ZM522.169 52.9343C522.169 47.424 518.545 43.6016 513.283 43.6016C508.021 43.6016 504.049 47.4742 504.049 52.8842C504.049 58.2941 507.922 62.316 513.382 62.316C518.842 62.316 522.169 58.5927 522.169 52.9331V52.9343Z" fill="var(--fill-0, #050D19)"/>
<path d="M530.259 55.1679V41.7153H532.791V55.0687C532.791 59.7345 535.57 62.9119 539.839 62.9119C544.109 62.9119 546.839 59.7846 546.839 55.0687V41.7153H549.372V55.1679C549.372 61.1249 545.45 65.2949 539.841 65.2949C534.231 65.2949 530.259 61.175 530.259 55.1679Z" fill="var(--fill-0, #050D19)"/>
<path d="M555.08 41.7155H557.611V45.0912C559.002 42.609 561.434 41.2186 564.462 41.2186C566.746 41.2186 568.681 41.9627 570.32 43.7497L568.632 45.5367C567.391 44.1965 565.951 43.6004 564.015 43.6004C560.243 43.6004 557.611 46.2319 557.611 50.9968V64.797H555.08V41.7155Z" fill="var(--fill-0, #050D19)"/>
<path d="M570.915 53.1827C570.915 46.4313 576.128 41.2197 582.878 41.2197C589.628 41.2197 594.792 46.4325 594.792 53.1827C594.792 59.9329 589.53 65.2951 582.878 65.2951C576.225 65.2951 570.915 59.9831 570.915 53.1827ZM592.161 53.1325C592.161 47.6724 588.19 43.6015 582.879 43.6015C577.568 43.6015 573.497 47.7214 573.497 53.1827C573.497 58.644 577.518 62.912 582.879 62.912C588.24 62.912 592.161 58.742 592.161 53.1325Z" fill="var(--fill-0, #050D19)"/>
<path d="M597.473 61.1251L599.161 59.4372C601.047 61.8693 603.53 63.0112 606.509 63.0112C609.934 63.0112 612.069 61.5217 612.069 59.0395C612.069 52.2881 598.914 55.8131 598.914 47.3739C598.914 43.7008 601.843 41.2186 606.559 41.2186C609.934 41.2186 612.863 42.4597 614.501 44.7436L612.863 46.4314C611.523 44.5943 609.19 43.5025 606.409 43.5025C603.084 43.5025 601.346 45.0912 601.346 47.2258C601.346 53.4312 614.501 49.9564 614.501 58.7922C614.501 62.764 611.324 65.2951 606.46 65.2951C602.687 65.2951 599.51 63.6575 597.475 61.1251H597.473Z" fill="var(--fill-0, #050D19)"/>
</g>
<g id="Vector_3">
<path d="M669.227 66.2994H661.865C660.524 66.2994 659.435 67.3773 659.413 68.7146C659.439 69.2005 659.508 69.6902 659.588 70.2163C659.735 71.0494 660.031 71.8313 660.37 72.5182C662.329 76.088 666.001 76.2415 668.891 73.45C669.728 72.6388 670.667 71.2577 671.423 69.8436H671.42C671.584 69.5111 671.686 69.1457 671.686 68.7511C671.686 67.3955 670.586 66.2957 669.231 66.2957L669.227 66.2994Z" fill="var(--fill-0, #0740A5)"/>
<path d="M721.813 68.74C721.813 67.4319 720.794 66.376 719.504 66.2992H711.842C710.556 66.3796 709.533 67.4356 709.533 68.74C709.533 69.1419 709.639 69.5146 709.807 69.8508H709.8C710.549 71.2612 711.488 72.6423 712.321 73.4535C715.258 76.245 718.883 76.0952 720.841 72.5217C721.232 71.8348 721.481 71.0529 721.623 70.2198C721.744 69.7083 721.791 69.2333 721.835 68.7583H721.806V68.74H721.813Z" fill="#0740A5"/>
<path d="M690.635 25.6139C683.813 25.6139 677.437 27.6819 671.935 31.2444H709.335C703.833 27.6819 697.457 25.6139 690.635 25.6139Z" fill="#0740A5"/>
<path d="M699.711 34.7117C702.13 38.7821 703.957 43.0425 705.272 47.3869H723.472C720.754 41.844 716.943 37.0831 712.376 33.4256H698.856C699.145 33.8494 699.448 34.2696 699.711 34.7117Z" fill="#0740A5"/>
<path d="M681.563 34.7117C681.826 34.266 682.133 33.8494 682.418 33.4256H668.898C664.327 37.0831 660.52 41.8477 657.802 47.3869H676.001C677.32 43.0425 679.144 38.7858 681.566 34.7117H681.563Z" fill="#0740A5"/>
<path d="M696.342 33.4221H684.935C684.42 34.1784 683.894 34.9238 683.422 35.7167C681.183 39.4838 679.465 43.3971 678.208 47.3871H703.065C701.805 43.3971 700.088 39.4838 697.851 35.7167C697.38 34.9238 696.854 34.1821 696.342 33.4221Z" fill="#0740A5"/>
<path d="M653.501 62.0428H653.512C653.512 63.3984 654.612 64.4982 655.967 64.4982L673.542 64.5019C673.506 59.4998 674.083 54.483 675.366 49.5686H656.83C655.182 53.4417 654.016 57.6253 653.501 62.0428Z" fill="#0740A5"/>
<path d="M705.901 49.5686C707.18 54.4794 707.761 59.4998 707.724 64.5019H725.299C726.655 64.4982 727.758 63.3984 727.758 62.0428H727.769C727.25 57.6253 726.088 53.4417 724.441 49.5686H705.901Z" fill="#0740A5"/>
<path d="M677.58 49.5686C676.246 54.4903 675.643 59.5071 675.694 64.5019H676.59C677.945 64.4982 679.045 63.3948 679.045 62.0428H679.063C679.458 57.3513 684.387 53.7194 690.335 53.7194C696.284 53.7194 701.279 57.3513 701.673 62.0428H701.688C701.688 63.3984 702.788 64.4982 704.14 64.4982L705.579 64.5019C705.627 59.5071 705.024 54.494 703.694 49.5686H677.58Z" fill="#0740A5"/>
<path d="M690.339 55.8823C685.637 55.8823 681.771 58.8711 681.771 62.6419C681.771 66.4127 685.64 69.4015 690.339 69.4015C695.038 69.4015 698.959 66.3652 698.959 62.6419C698.959 58.9186 695.093 55.8823 690.339 55.8823ZM686.145 64.1363C685.315 64.1363 684.643 63.4677 684.643 62.6382C684.643 61.8088 685.315 61.1365 686.145 61.1365C686.974 61.1365 687.646 61.8088 687.646 62.6382C687.646 63.4677 686.974 64.1363 686.145 64.1363ZM694.585 64.1363C693.756 64.1363 693.083 63.464 693.083 62.6382C693.083 61.8125 693.756 61.1365 694.585 61.1365C695.414 61.1365 696.083 61.8088 696.083 62.6382C696.083 63.4677 695.411 64.1363 694.585 64.1363Z" fill="#0740A5"/>
<path d="M760.88 36.3089L766.204 55.9848C766.489 57.0627 766.496 57.7752 766.226 58.1223C765.955 58.4695 765.265 58.6448 764.158 58.6448H763.255C762.145 58.6448 761.359 58.4731 760.902 58.1223C760.445 57.7752 760.069 57.0591 759.784 55.9848L758.549 51.1362H746.002L744.767 55.9848C744.482 57.0627 744.109 57.7752 743.649 58.1223C743.188 58.4695 742.403 58.6448 741.296 58.6448H740.393C739.282 58.6448 738.595 58.4731 738.325 58.1223C738.055 57.7752 738.062 57.0591 738.347 55.9848L743.671 36.3089C744.179 34.4747 744.606 33.0935 744.953 32.1727C745.267 31.2848 745.761 30.4116 746.429 29.5566C747.569 28.0366 749.517 27.2766 752.275 27.2766C755.034 27.2766 756.982 28.0366 758.122 29.5566C758.787 30.4116 759.276 31.2848 759.598 32.1727C759.945 33.0935 760.376 34.471 760.88 36.3089ZM749.805 36.5939L747.474 45.4362H757.029L754.749 36.5939C754.307 35.0447 753.971 34.0618 753.752 33.6489C753.496 33.2068 753.006 32.9839 752.275 32.9839C751.545 32.9839 751.055 33.2068 750.799 33.6489C750.576 34.0618 750.244 35.0447 749.802 36.5939H749.805Z" fill="#F9CE15"/>
<path d="M784.312 27.7518C791.317 27.7518 794.817 31.2047 794.817 38.1141C794.817 45.0236 791.317 48.4289 784.312 48.4289H777.184V55.8901C777.184 56.968 777.001 57.6951 776.636 58.0788C776.27 58.4588 775.532 58.6488 774.425 58.6488H773.57C772.459 58.6488 771.725 58.4588 771.359 58.0788C770.994 57.6988 770.811 56.9716 770.811 55.8901V33.4555C770.811 31.4605 771.261 30.0099 772.167 29.1074C773.073 28.2049 774.52 27.7518 776.515 27.7518H784.312ZM784.312 33.693H778.609C777.659 33.693 777.184 34.168 777.184 35.118V42.4841H784.312C785.803 42.4841 786.863 42.1443 787.498 41.4647C788.134 40.7851 788.448 39.667 788.448 38.1141C788.448 36.5612 788.123 35.4761 787.473 34.7636C786.823 34.0511 785.77 33.693 784.312 33.693Z" fill="#F9CE15"/>
<path d="M798.902 46.62V39.9663C798.902 35.8485 799.867 32.7281 801.8 30.6015C803.762 28.4129 807.171 27.3204 812.02 27.3204C816.868 27.3204 820.274 28.4129 822.239 30.6015C824.172 32.7244 825.14 35.8485 825.14 39.9663V46.62C825.14 50.7415 824.172 53.8583 822.239 55.9848C820.274 58.1735 816.868 59.266 812.02 59.266C807.171 59.266 803.765 58.1735 801.8 55.9848C799.867 53.8619 798.902 50.7415 798.902 46.62ZM818.724 46.62V39.9663C818.724 37.5256 818.279 35.8156 817.394 34.8327C816.474 33.7877 814.683 33.2652 812.023 33.2652C809.363 33.2652 807.573 33.7877 806.652 34.8327C805.764 35.8156 805.322 37.5256 805.322 39.9663V46.62C805.322 49.0608 805.764 50.7708 806.652 51.7537C807.573 52.7987 809.363 53.3212 812.023 53.3212C814.683 53.3212 816.506 52.7987 817.394 51.7537C818.282 50.7708 818.724 49.0608 818.724 46.62Z" fill="#F9CE15"/>
<path d="M830.745 52.9412V30.5066C830.745 29.4287 830.924 28.7016 831.293 28.3179C831.659 27.9379 832.393 27.7479 833.504 27.7479H834.359C835.47 27.7479 836.204 27.9379 836.57 28.3179C836.935 28.6979 837.118 29.4287 837.118 30.5066V51.2787C837.118 52.2287 837.593 52.7037 838.543 52.7037H848.192C849.27 52.7037 849.997 52.8864 850.381 53.2517C850.761 53.6171 850.951 54.3552 850.951 55.4623V55.8898C850.951 56.9677 850.761 57.6948 850.381 58.0785C850.001 58.4585 849.27 58.6485 848.192 58.6485H836.453C834.458 58.6485 833.007 58.1991 832.105 57.2929C831.202 56.3867 830.749 54.9398 830.749 52.9448L830.745 52.9412Z" fill="#F9CE15"/>
<path d="M876.137 36.3091L881.461 55.985C881.746 57.0629 881.753 57.7754 881.483 58.1225C881.212 58.4696 880.525 58.645 879.415 58.645H878.512C877.401 58.645 876.616 58.4733 876.159 58.1225C875.699 57.7754 875.326 57.0593 875.041 55.985L873.806 51.1364H861.259L860.024 55.985C859.739 57.0629 859.366 57.7754 858.906 58.1225C858.445 58.4696 857.66 58.645 856.553 58.645H855.65C854.539 58.645 853.852 58.4733 853.582 58.1225C853.312 57.7754 853.319 57.0593 853.608 55.985L858.931 36.3091C859.439 34.4748 859.867 33.0937 860.214 32.1729C860.528 31.285 861.021 30.4118 861.69 29.5568C862.83 28.0368 864.777 27.2768 867.536 27.2768C870.295 27.2768 872.242 28.0368 873.382 29.5568C874.047 30.4118 874.537 31.285 874.858 32.1729C875.205 33.0937 875.637 34.4712 876.141 36.3091H876.137ZM865.062 36.5941L862.731 45.4364H872.286L870.006 36.5941C869.56 35.0448 869.228 34.062 869.009 33.6491C868.753 33.207 868.263 32.9841 867.532 32.9841C866.802 32.9841 866.312 33.207 866.056 33.6491C865.833 34.062 865.501 35.0448 865.059 36.5941H865.062Z" fill="#F9CE15"/>
<path d="M910.074 37.6355C910.074 42.7691 907.937 45.8895 903.658 47.0003L909.884 56.3651C910.483 57.253 910.706 57.8559 910.549 58.1701C910.392 58.4843 909.756 58.6451 908.645 58.6451H906.84C905.762 58.6451 904.937 58.488 904.367 58.1701C903.797 57.8559 903.194 57.2347 902.562 56.3176L896.763 47.4753H892.441V55.8901C892.441 56.968 892.258 57.6951 891.892 58.0788C891.527 58.4588 890.793 58.6488 889.682 58.6488H888.827C887.716 58.6488 886.982 58.4588 886.616 58.0788C886.251 57.6988 886.068 56.9716 886.068 55.8901V33.4555C886.068 31.4605 886.518 30.0099 887.424 29.1074C888.33 28.2049 889.777 27.7518 891.772 27.7518H899.566C906.57 27.7518 910.07 31.0476 910.07 37.6355H910.074ZM899.569 33.693H893.866C892.916 33.693 892.441 34.168 892.441 35.118V41.5341H899.569C902.328 41.5341 903.705 40.237 903.705 37.6355C903.705 36.2726 903.38 35.2751 902.73 34.6393C902.079 34.0036 901.027 33.6893 899.569 33.6893V33.693Z" fill="#F9CE15"/>
<path d="M741.931 76.1832C741.011 76.1832 740.218 75.9823 739.556 75.584C738.895 75.1857 738.384 74.6267 738.029 73.9105C737.675 73.1944 737.496 72.3686 737.496 71.4296C737.496 70.4905 737.675 69.6611 738.029 68.9413C738.384 68.2215 738.895 67.6588 739.556 67.2569C740.218 66.855 741.011 66.6504 741.931 66.6504C743.046 66.6504 743.959 66.928 744.668 67.4798C745.381 68.0315 745.823 68.8134 745.998 69.8219H744.062C743.948 69.3323 743.707 68.945 743.345 68.6709C742.98 68.3932 742.505 68.258 741.917 68.258C741.372 68.258 740.905 68.3859 740.514 68.6454C740.123 68.9048 739.823 69.2702 739.611 69.7379C739.399 70.2092 739.297 70.7719 739.297 71.4296C739.297 72.0873 739.403 72.639 739.611 73.114C739.823 73.589 740.123 73.9507 740.514 74.2065C740.905 74.4623 741.372 74.5865 741.917 74.5865C742.505 74.5865 742.98 74.4586 743.338 74.1992C743.7 73.9398 743.934 73.578 744.051 73.114H745.998C745.823 74.0713 745.381 74.8204 744.668 75.3648C743.956 75.9092 743.046 76.1796 741.931 76.1796V76.1832Z" fill="var(--fill-0, #0740A5)"/>
<path d="M759.663 76.1835C758.768 76.1835 757.979 75.9825 757.292 75.577C756.609 75.175 756.072 74.6124 755.684 73.8999C755.297 73.1837 755.103 72.3579 755.103 71.4189C755.103 70.4799 755.297 69.6541 755.684 68.9379C756.072 68.2218 756.605 67.6627 757.292 67.2608C757.975 66.8589 758.768 66.6543 759.663 66.6543C760.559 66.6543 761.363 66.8552 762.046 67.2608C762.729 67.6627 763.263 68.2254 763.646 68.9379C764.03 69.6504 764.22 70.4799 764.22 71.4189C764.22 72.3579 764.03 73.1837 763.646 73.8999C763.263 74.616 762.733 75.175 762.046 75.577C761.363 75.9789 760.566 76.1835 759.663 76.1835ZM759.663 74.5904C760.226 74.5904 760.708 74.4625 761.118 74.2031C761.527 73.9437 761.845 73.5783 762.071 73.1033C762.298 72.6283 762.415 72.0693 762.415 71.4189C762.415 70.7685 762.302 70.1985 762.071 69.7272C761.845 69.2595 761.523 68.8941 761.118 68.642C760.708 68.3862 760.226 68.262 759.663 68.262C759.101 68.262 758.629 68.3899 758.217 68.642C757.804 68.8977 757.482 69.2595 757.256 69.7272C757.029 70.1985 756.912 70.7612 756.912 71.4189C756.912 72.0766 757.025 72.6283 757.256 73.1033C757.482 73.5783 757.804 73.9437 758.217 74.2031C758.629 74.4625 759.112 74.5904 759.663 74.5904Z" fill="var(--fill-0, #0740A5)"/>
<path d="M773.632 76.0263V66.8113H775.408L779.646 73.169V66.8113H781.422V76.0263H779.646L775.408 69.6796V76.0263H773.632Z" fill="var(--fill-0, #0740A5)"/>
<path d="M791.127 66.8113H794.207C795.278 66.8113 796.162 67.0013 796.86 67.385C797.558 67.7686 798.076 68.3021 798.413 68.9927C798.749 69.6832 798.921 70.4907 798.921 71.4225C798.921 72.3542 798.752 73.1617 798.413 73.8523C798.073 74.5429 797.558 75.0763 796.867 75.46C796.176 75.8436 795.289 76.0336 794.207 76.0336H791.127V66.8113ZM792.906 74.499H794.119C794.876 74.499 795.468 74.3748 795.902 74.13C796.337 73.8852 796.648 73.5307 796.831 73.0704C797.013 72.61 797.108 72.0582 797.108 71.4188C797.108 70.7794 797.017 70.2131 796.831 69.7527C796.648 69.2923 796.337 68.9379 795.902 68.6931C795.468 68.4482 794.872 68.324 794.119 68.324H792.906V74.499Z" fill="var(--fill-0, #0740A5)"/>
<path d="M812.586 76.1835C811.691 76.1835 810.901 75.9825 810.218 75.577C809.535 75.175 808.998 74.6124 808.611 73.8999C808.223 73.1874 808.033 72.3579 808.033 71.4189C808.033 70.4799 808.227 69.6541 808.611 68.9379C808.994 68.2218 809.531 67.6627 810.218 67.2608C810.901 66.8589 811.694 66.6543 812.586 66.6543C813.477 66.6543 814.285 66.8552 814.968 67.2608C815.651 67.6627 816.185 68.2254 816.569 68.9379C816.952 69.6504 817.142 70.4799 817.142 71.4189C817.142 72.3579 816.952 73.1837 816.569 73.8999C816.185 74.616 815.655 75.175 814.968 75.577C814.285 75.9789 813.488 76.1835 812.586 76.1835ZM812.586 74.5904C813.149 74.5904 813.635 74.4625 814.04 74.2031C814.449 73.9437 814.767 73.5783 814.994 73.1033C815.22 72.6283 815.337 72.0693 815.337 71.4189C815.337 70.7685 815.224 70.1985 814.994 69.7272C814.767 69.2595 814.446 68.8941 814.04 68.642C813.631 68.3862 813.149 68.262 812.586 68.262C812.023 68.262 811.552 68.3899 811.139 68.642C810.726 68.8977 810.405 69.2595 810.178 69.7272C809.951 70.1985 809.835 70.7612 809.835 71.4189C809.835 72.0766 809.948 72.6283 810.178 73.1033C810.405 73.5783 810.726 73.9437 811.139 74.2031C811.552 74.4625 812.034 74.5904 812.586 74.5904Z" fill="var(--fill-0, #0740A5)"/>
<path d="M826.554 76.0263V66.8113H828.674L831.491 72.5661L834.282 66.8113H836.402V76.0263H834.626V69.8404L832.189 74.7365H830.782L828.334 69.8404V76.0263H826.554Z" fill="var(--fill-0, #0740A5)"/>
<path d="M845.617 66.2452L845.46 65.0723L848.342 63.4135L848.554 64.769L845.62 66.2452H845.617ZM846.117 76.0265V66.8115H847.893V76.0265H846.117Z" fill="var(--fill-0, #0740A5)"/>
<path d="M857.594 76.0263V66.8113H859.37L863.608 73.169V66.8113H865.384V76.0263H863.608L859.37 69.6796V76.0263H857.594Z" fill="var(--fill-0, #0740A5)"/>
<path d="M875.092 76.0263V66.8113H876.868V76.0263H875.092Z" fill="var(--fill-0, #0740A5)"/>
<path d="M890.822 76.1835C889.927 76.1835 889.138 75.9825 888.454 75.577C887.771 75.175 887.234 74.6124 886.847 73.8999C886.459 73.1874 886.269 72.3579 886.269 71.4189C886.269 70.4799 886.463 69.6541 886.847 68.9379C887.23 68.2218 887.767 67.6627 888.454 67.2608C889.138 66.8589 889.93 66.6543 890.822 66.6543C891.714 66.6543 892.521 66.8552 893.204 67.2608C893.888 67.6627 894.421 68.2254 894.805 68.9379C895.188 69.6504 895.378 70.4799 895.378 71.4189C895.378 72.3579 895.188 73.1837 894.805 73.8999C894.421 74.616 893.891 75.175 893.204 75.577C892.521 75.9789 891.724 76.1835 890.822 76.1835ZM890.822 74.5904C891.385 74.5904 891.871 74.4625 892.276 74.2031C892.685 73.9437 893.003 73.5783 893.23 73.1033C893.456 72.6283 893.573 72.0693 893.573 71.4189C893.573 70.7685 893.46 70.1985 893.23 69.7272C893.003 69.2595 892.682 68.8941 892.276 68.642C891.867 68.3862 891.385 68.262 890.822 68.262C890.259 68.262 889.788 68.3899 889.375 68.642C888.962 68.8977 888.641 69.2595 888.414 69.7272C888.188 70.1985 888.071 70.7612 888.071 71.4189C888.071 72.0766 888.184 72.6283 888.414 73.1033C888.641 73.5783 888.962 73.9437 889.375 74.2031C889.788 74.4625 890.27 74.5904 890.822 74.5904Z" fill="var(--fill-0, #0740A5)"/>
<path d="M907.962 76.1832C907.294 76.1832 906.702 76.07 906.179 75.8398C905.657 75.6132 905.244 75.2771 904.94 74.8386C904.637 74.4002 904.48 73.8704 904.473 73.2455H906.355C906.362 73.5196 906.435 73.7644 906.566 73.9836C906.698 74.2029 906.881 74.3782 907.115 74.5025C907.348 74.6267 907.626 74.6925 907.951 74.6925C908.233 74.6925 908.477 74.645 908.682 74.5536C908.887 74.4623 909.047 74.3307 909.161 74.1663C909.274 73.9982 909.332 73.8009 909.332 73.5744C909.332 73.3113 909.27 73.0921 909.142 72.9167C909.014 72.7413 908.839 72.5915 908.616 72.4709C908.393 72.3467 908.134 72.2371 907.842 72.1348C907.546 72.0325 907.239 71.9265 906.914 71.8132C906.186 71.5757 905.631 71.2615 905.247 70.8669C904.867 70.4723 904.674 69.9498 904.674 69.2994C904.674 68.7477 904.809 68.2727 905.076 67.878C905.342 67.4834 905.715 67.1802 906.186 66.9682C906.661 66.7563 907.199 66.6504 907.805 66.6504C908.412 66.6504 908.974 66.7563 909.446 66.9719C909.913 67.1875 910.29 67.498 910.564 67.9C910.841 68.3055 910.984 68.7769 910.991 69.3213H909.095C909.088 69.1204 909.025 68.9267 908.916 68.7477C908.806 68.5686 908.656 68.4225 908.463 68.3129C908.269 68.2032 908.043 68.1484 907.779 68.1484C907.553 68.1411 907.341 68.174 907.155 68.2544C906.965 68.3348 906.819 68.448 906.709 68.6015C906.599 68.755 906.544 68.945 906.544 69.1752C906.544 69.4054 906.599 69.5807 906.709 69.7269C906.819 69.8767 906.968 70.0046 907.162 70.1142C907.356 70.2238 907.582 70.3261 907.845 70.4175C908.108 70.5088 908.393 70.6038 908.7 70.6988C909.157 70.8559 909.577 71.0423 909.964 71.2579C910.352 71.4734 910.659 71.7511 910.885 72.0946C911.112 72.438 911.229 72.8875 911.229 73.4502C911.229 73.9325 911.101 74.3819 910.849 74.7911C910.593 75.204 910.228 75.5365 909.749 75.7923C909.27 76.048 908.675 76.1723 907.966 76.1723L907.962 76.1832Z" fill="var(--fill-0, #0740A5)"/>
</g>
<g id="Vector_4">
<path d="M989.372 0C989.668 0.134132 990.766 1.12765 991.077 1.38364C996.534 5.88465 1003.81 5.48068 1009.89 2.53522C1011.37 1.81753 1012.67 0.950056 1014.09 0.150156C1014.64 0.556976 1015.25 1.28977 1015.74 1.79329C1016.71 2.79724 1017.62 3.8524 1018.55 4.88698C1020.64 7.21122 1022.66 9.59221 1024.69 11.9637C1025.86 13.3222 1027.07 14.6566 1028.23 16.0162C1028.28 16.0722 1028.54 16.4188 1028.53 16.4374C1028.45 16.6899 1028.01 17.2525 1027.87 17.442C1026.71 18.9641 1025.56 20.5371 1024.61 22.1967C1021.78 27.1423 1020.37 32.7859 1019.81 38.4212C1022.38 38.4742 1024.95 38.4979 1027.52 38.4922C1027.54 38.8161 1027.55 39.1862 1027.54 39.513C1027.52 41.2873 1027.7 43.0691 1027.73 44.8359C1027.82 48.6598 1027.77 52.4857 1027.58 56.3061C1027.37 61.708 1026.75 66.9983 1025.06 72.1593C1024.97 72.4157 1024.89 72.6736 1024.79 72.9262C1022.65 78.5737 1018.8 83.4194 1013.79 86.8C1010.84 88.8239 1007.54 90.245 1004.28 91.716C999.95 93.6675 995.524 95.9649 991.952 99.1305C991.059 99.9215 990.318 100.883 989.496 101.742L989.424 101.797C989.123 101.773 988.543 100.955 988.302 100.68C986.955 99.1632 985.437 97.8064 983.779 96.6368C981.295 94.8956 978.444 93.4364 975.648 92.255C969.801 89.7855 964.43 87.3615 960.026 82.6321C958.4 80.8678 956.999 78.9094 955.853 76.8007C952.902 71.4461 951.836 66.181 951.409 60.1345C951.344 58.2592 951.028 56.1227 951.065 54.256C951.168 49.0308 950.916 43.6785 951.099 38.4713C953.693 38.4201 956.411 38.4574 959.012 38.4559C958.698 36.9534 958.602 35.327 958.319 33.823C957.298 28.4008 955.329 23.2136 952.011 18.7694C951.451 18.0198 950.792 17.3031 950.28 16.5143L950.229 16.4337C950.834 15.5618 951.83 14.4944 952.551 13.6901L955.225 10.6561L962.257 2.71471C963.035 1.8415 963.744 0.978049 964.546 0.104905C967.228 1.92301 970.046 3.3674 973.198 4.11979C977.798 5.21764 982.648 4.7772 986.661 2.14015C987.664 1.48129 988.438 0.743378 989.372 0Z" fill="#001722"/>
<path d="M989.348 3.73604C989.649 3.82238 990.609 4.60217 990.943 4.80874C997.236 8.70485 1004.97 8.20402 1011.45 5.06824C1012.21 4.70261 1012.99 4.23192 1013.74 3.80092C1014.07 4.11941 1014.57 4.72787 1014.9 5.09741C1015.62 5.93936 1016.35 6.77572 1017.09 7.6064L1025.16 16.708C1023.96 18.3735 1023.16 19.4579 1022.13 21.3129C1020.22 24.7484 1018.9 28.5643 1018.08 32.4057C1017.45 35.3435 1017.12 38.3618 1016.87 41.3543L1024.99 41.3597C1025.02 45.175 1025.03 48.9905 1025.01 52.8057C1024.89 61.3748 1024.52 69.2939 1019.97 76.8178C1018.15 79.8573 1015.72 82.4845 1012.83 84.5309C1006.32 89.153 997.841 90.8031 991.664 96.0752C990.875 96.7482 990.157 97.4304 989.415 98.1522C989.067 97.9881 987.841 96.6678 987.409 96.2956C979.961 89.8808 969.464 88.7106 962.516 81.6163C954.885 73.8238 953.929 63.6453 953.794 53.3254C953.758 49.3339 953.763 45.3422 953.808 41.3508L961.937 41.3509C961.791 39.7929 961.617 38.2121 961.473 36.6504C961.421 36.0943 961.217 35.284 961.121 34.6921C960.004 27.8058 957.874 22.3162 953.637 16.7249C953.819 16.4706 954.509 15.7392 954.746 15.4727L957.108 12.8035L965.05 3.79084C971.593 7.76391 979.821 9.10721 986.793 5.39134C987.763 4.87416 988.451 4.32207 989.348 3.73604Z" fill="#454E52"/>
<path d="M965.305 5.16256C966.466 5.72264 967.556 6.30803 968.761 6.78901C973.667 8.74698 979.458 9.29146 984.509 7.51592C985.563 7.15448 986.581 6.69414 987.549 6.14109C988.161 5.78769 988.792 5.35572 989.397 5.02259C990.38 5.64466 991.329 6.24727 992.39 6.7541C996.638 8.78275 1001.43 9.00021 1005.99 8.04431C1008.96 7.42122 1010.84 6.43689 1013.47 5.15714C1014.11 5.6534 1015.23 7.02282 1015.8 7.67739L1019.36 11.7158L1022.29 15.0031C1022.76 15.5375 1023.42 16.243 1023.82 16.8144C1023.05 17.7909 1022.08 19.3395 1021.46 20.3979C1018.35 25.7436 1016.81 31.9544 1016.14 38.064C1015.99 39.4361 1015.76 41.0121 1015.73 42.389L1024.01 42.3815C1024.01 43.885 1024.06 45.4521 1023.91 46.9463C1023.1 55.2756 1020.4 63.6853 1014.36 69.727C1013.6 70.4901 1012.78 71.0934 1012.01 71.8125L1012.28 72.7333C1012 72.751 1011.16 72.8588 1011 72.6437C1010.77 72.6797 1009.59 73.4637 1009.29 73.6584C1008.3 74.2954 1006.99 74.8392 1006.05 75.4661C1006.13 75.4533 1006.21 75.4414 1006.29 75.4221C1012.17 74.0305 1019.79 70.3726 1023.09 65.0963C1022.91 66.1425 1022.72 67.2515 1022.46 68.2828C1021.2 73.1827 1018.66 77.9662 1014.96 81.46C1009.52 86.5932 1002 88.5163 995.589 92.1323C994.147 92.9593 992.77 93.8924 991.468 94.9241C990.809 95.4513 990.068 96.1554 989.422 96.6204C989.096 96.5689 988.439 95.861 988.155 95.6122C983.352 91.3998 977.278 89.3941 971.635 86.6318C970.219 85.9389 968.755 85.1737 967.437 84.2963C962.656 81.1393 959.05 76.4936 957.177 71.0794C956.413 68.8754 956.126 67.392 955.671 65.1279C957.692 67.9203 959.866 69.8685 962.878 71.5653C963.412 71.8661 964.094 72.3928 964.682 72.4947C964.103 71.8157 964.147 71.4972 964.16 70.651L965.302 70.6252C965.288 70.5968 965.274 70.5684 965.26 70.5399C964.678 69.8589 963.782 69.1199 963.201 68.4437C962.434 67.5497 961.669 66.5973 961.029 65.6416C957.799 60.8254 955.875 54.9876 955.176 49.2509C955.07 48.3771 954.906 47.5674 954.857 46.6784C954.779 45.2502 954.804 43.8084 954.812 42.3781C957.523 42.3859 960.408 42.3277 963.095 42.3904C962.392 34.5276 961.292 27.0325 957.175 20.1089C956.733 19.3661 955.537 17.4494 954.976 16.8122C955.341 16.2882 956.121 15.4513 956.577 14.9336L959.641 11.4753L963.255 7.38738C963.665 6.92066 964.897 5.44672 965.305 5.16256Z" fill="#001722"/>
<path d="M967.276 70.9909C967.233 70.9137 967.083 70.6504 967.034 70.6107C966.199 69.9452 964.703 70.1634 964.36 68.9262C964.264 68.5787 964.225 68.25 964.324 67.8682C964.418 67.4966 964.659 67.1791 964.992 66.9892C965.844 66.4964 967.768 66.5431 968.22 67.5684C968.404 67.9856 968.396 68.257 968.385 68.693C967.947 68.7187 967.647 68.7353 967.212 68.7123C967.102 67.5947 966.753 67.7202 965.726 67.6837C965.643 67.8682 965.411 68.3203 965.522 68.5112C966.044 69.4057 967.903 69.1102 968.31 70.2675C968.612 71.1233 968.514 71.9449 967.802 72.5407C967.038 72.8727 966.339 72.8711 965.516 72.811C965.259 72.7509 964.923 72.6046 964.682 72.4947C964.103 71.8157 964.147 71.4972 964.16 70.651L965.302 70.6252L965.334 70.7088C965.751 70.9791 966.628 71.8039 966.926 71.8666C967.045 71.5872 967.187 71.2767 967.276 70.9909Z" fill="var(--fill-0, #FEE500)"/>
<path d="M965.334 70.7088C965.751 70.9791 966.628 71.8039 966.926 71.8666C965.786 71.8184 965.433 71.9594 965.334 70.7088Z" fill="#454E52"/>
<path d="M1009.31 66.7189C1009.7 66.7039 1010.08 66.7146 1010.47 66.7227C1010.69 67.267 1010.89 68.0837 1011.06 68.6715L1012.01 71.8125L1012.28 72.7333C1012 72.751 1011.16 72.8588 1011 72.6437C1010.93 72.2994 1010.77 71.7867 1010.67 71.437C1010.12 71.4681 1009.63 71.4547 1009.09 71.4295C1008.89 71.9502 1008.81 72.2114 1008.67 72.7487C1008.23 72.7637 1007.97 72.7616 1007.54 72.7289C1007.7 71.9706 1007.97 71.1539 1008.2 70.4084C1008.56 69.1761 1008.93 67.9459 1009.31 66.7189Z" fill="var(--fill-0, #FEE500)"/>
<path d="M1009.82 68.2452C1009.96 68.4302 1009.91 68.7015 1009.96 68.9707C1010.07 69.4721 1010.28 69.9205 1010.36 70.4251L1010.3 70.4991L1010.07 70.5039L1009.34 70.5045C1009.58 69.6507 1009.69 69.1064 1009.82 68.2452Z" fill="#001722"/>
<path d="M965.516 72.811C966.339 72.8711 967.038 72.8727 967.802 72.5407C968.769 73.506 971.025 74.4868 972.252 75.1577C972.401 75.2392 972.427 75.2676 972.455 75.4172C971.629 75.4103 965.954 73.4036 965.516 72.811Z" fill="#454E52"/>
<path d="M990.387 11.9252C995.97 11.7904 1000.68 12.5985 1005.05 16.3194C1007.67 18.5505 1010.11 22.7977 1010.38 26.2408C1009.62 26.6663 1008.66 26.8241 1007.83 27.0648C1006.39 27.4825 1004.97 27.8569 1003.54 28.3129C1003.18 26.1825 1002.61 24.2148 1001.1 22.5409C999.136 20.3619 994.28 18.8534 991.448 18.6656C987.579 18.4092 982.732 20.0224 979.875 22.7109C976.638 25.7569 975.143 31.5579 974.89 35.8718C974.582 41.122 975.525 46.6062 979.234 50.5572C981.42 52.8868 985.166 54.5975 988.375 54.6903C991.103 54.6672 994.181 54.5868 996.852 53.8757C998.928 53.3238 1002.59 52.0363 1003.54 49.9512C1003.67 49.6718 1003.63 48.3612 1003.64 47.9944L1003.74 42.8055C1002.69 42.6842 1001.27 42.9006 1000.31 42.7764C1000.22 42.6736 1000.25 42.6581 1000.24 42.482C1000.18 41.4676 1000.22 40.605 1000.22 39.5996L1000.26 35.817C1000.85 35.8028 1001.46 35.8013 1002.05 35.8078C1004.74 35.8377 1007.5 35.6095 1010.19 35.7008L1010.17 54.6404C1009.46 55.7987 1006.47 57.4665 1005.24 58.1277C995.64 63.2883 981.748 64.4906 973.155 56.7056C968.384 52.3838 966.342 45.2829 966.072 39.0274C965.765 30.3238 968.97 21.0244 976.457 16.0226C981.127 12.8458 984.856 12.1189 990.387 11.9252Z" fill="var(--fill-0, #FEE500)"/>
<path d="M987.351 27.2621C989.625 27.3774 991.887 27.3534 994.163 27.3593C994.809 27.361 995.446 27.3339 996.091 27.3927C996.042 28.4297 995.912 29.3726 995.873 30.4796C993.783 30.6383 991.449 30.4676 989.351 30.5428C989.034 31.2358 988.749 33.0402 988.72 33.8219C989.538 33.5835 990.234 33.213 991.096 33.2395C996.815 33.415 997.818 40.5795 994.203 44.0347C992.718 45.4535 991.413 45.6903 989.493 45.6923C986.44 45.6448 984.789 43.8685 984.245 40.9767C985.029 40.8152 986.74 40.7084 987.545 40.6811C987.763 41.6203 988.013 42.5124 989.003 42.9055C990.437 43.4747 992.039 42.8675 992.591 41.3982C993.009 40.2857 993.165 38.5312 992.668 37.4233C992.406 36.8263 991.914 36.3603 991.303 36.1312C990.628 35.8846 989.77 35.9507 989.097 36.1707C988.436 36.387 987.973 37.0048 987.345 37.2876C986.554 37.1983 985.682 37.0581 984.888 36.9491C984.944 36.3248 985.205 35.2939 985.351 34.6435L986.215 30.7703C986.34 30.2073 986.826 27.7238 986.969 27.3899C987.138 27.2557 987.104 27.2973 987.351 27.2621Z" fill="var(--fill-0, #FEE500)"/>
<path d="M1002.19 75.7123C1003 75.6866 1003.86 75.6732 1004.66 75.7161C1006.13 75.7954 1005.99 77.1533 1005.98 78.2338C1005.97 79.1428 1006.02 80.0245 1005.91 80.942L1005.6 81.3169C1004.79 81.8955 1003.22 81.7223 1002.18 81.7024C1002.18 79.7059 1002.18 77.7088 1002.19 75.7123Z" fill="var(--fill-0, #FEE500)"/>
<path d="M1002.78 76.2612C1003.46 76.2633 1005.31 76.052 1005.33 77.0179C1005.35 78.2266 1005.53 79.8585 1005.07 80.9825C1005.07 81.0029 1005 81.0833 1004.98 81.1042C1004.58 81.1857 1003.23 81.1504 1002.77 81.1466C1002.76 79.518 1002.76 77.8893 1002.78 76.2612Z" fill="#001722"/>
<path d="M985.89 66.7902C986.747 66.7157 987.805 66.7227 988.647 66.8288C989.605 66.9495 990.153 67.5464 990.148 68.5079C990.143 69.5145 990.056 69.8271 989.192 70.3645C989.45 71.0986 989.875 72.0006 990.195 72.7267L990.123 72.7353C989.821 72.7702 989.158 72.8495 988.933 72.6694C988.696 72.1127 988.192 71.0134 988.028 70.4733L987.115 70.4664C987.095 71.2166 987.104 72.0103 987.1 72.7637C986.702 72.775 986.338 72.7637 985.939 72.7509C985.839 70.9233 985.849 68.6388 985.89 66.7902Z" fill="var(--fill-0, #FEE500)"/>
<path d="M987.109 67.7806C988.34 67.7747 989.462 67.7103 988.66 69.3384C988.489 69.5932 987.436 69.4923 987.104 69.487L987.109 67.7806Z" fill="#001722"/>
<path d="M1001 66.7363C1001.05 66.7529 1001.02 66.7379 1001.09 66.8125C1001.16 68.6529 1001.12 70.8978 1001.1 72.7522C1000.8 72.7645 1000.09 72.8503 999.916 72.557C999.264 71.4416 998.507 70.2784 997.936 69.1249C997.885 70.2929 997.902 71.5746 997.892 72.756C997.611 72.7635 997.307 72.757 997.024 72.7565C996.829 72.7168 996.889 72.7656 996.77 72.6541C996.716 72.0856 996.748 71.1927 996.749 70.5959L996.767 66.7706L997.813 66.7535C998.57 67.9392 999.286 69.2144 999.992 70.4366C999.934 69.2654 999.964 67.9719 999.967 66.7926C1000.3 66.7658 1000.66 66.754 1001 66.7363Z" fill="var(--fill-0, #FEE500)"/>
<path d="M1004.4 66.6757C1005.37 66.6178 1006.45 66.7637 1006.72 67.8973C1006.77 68.1263 1006.75 68.5033 1006.75 68.7457C1006.34 68.7639 1005.99 68.7613 1005.58 68.7538L1005.56 67.9102C1005.05 67.7697 1004.54 67.5595 1004.05 67.8083C1003.64 68.3011 1003.86 70.1577 1003.82 70.8463C1003.76 71.914 1004.51 71.81 1005.3 71.8121C1005.51 71.3187 1005.54 71.1214 1005.6 70.6001C1006.03 70.583 1006.32 70.5916 1006.74 70.6152C1006.76 71.574 1006.82 72.1022 1005.91 72.6353C1005.53 72.7608 1004.97 72.7581 1004.67 73.0144L1004.83 73.1029L1004.7 72.993L1004.67 73.0192L1004.85 73.1142L1004.79 73.1104C1004.96 73.1715 1005.21 73.1501 1005.4 73.1485C1005.52 73.4011 1005.71 73.7373 1005.66 74.0269C1005.53 74.8254 1004.32 74.6667 1003.73 74.5305C1003.63 74.4221 1003.66 74.4296 1003.62 74.2677C1003.76 73.7464 1004.5 74.1803 1004.86 73.8923L1004.83 73.7968C1004.63 73.7261 1004.05 73.7303 1003.8 73.7234C1003.84 73.4188 1003.9 73.0852 1003.95 72.7795C1003.34 72.6642 1002.66 72.313 1002.63 71.6089C1002.59 70.3395 1002.53 68.9774 1002.65 67.7155C1002.73 66.9889 1003.81 66.7234 1004.4 66.6757Z" fill="var(--fill-0, #FEE500)"/>
<path d="M976.114 66.7227C977.037 66.6449 977.682 66.7147 978.435 67.2654C978.696 67.755 978.673 68.1712 978.66 68.7042C978.285 68.7208 977.943 68.7101 977.568 68.7005L977.559 67.9197C975.637 67.4622 975.707 67.895 975.736 69.6936C975.745 70.305 975.718 70.8911 975.804 71.5041C976.134 71.7143 976.612 71.8736 976.98 71.8435C977.375 71.8323 977.835 70.8289 977.427 70.6439C976.776 70.3479 976.37 71.1646 976.44 69.8293C976.454 69.7784 976.488 69.707 976.509 69.6561C976.83 69.5317 978.21 69.596 978.647 69.6051C978.67 70.268 978.774 71.6156 978.486 72.1406C977.866 73.1295 974.803 73.1343 974.63 71.7583C974.564 71.2354 974.502 70.5034 974.54 69.9575C974.652 68.3433 974.028 67.0632 976.114 66.7227Z" fill="var(--fill-0, #FEE500)"/>
<path d="M990.519 75.6879C991.344 75.6627 992.475 75.6348 993.282 75.7748C994.523 75.9909 994.304 77.5874 994.289 78.5457L993.207 79.2203C993.402 79.5373 994.388 81.4432 994.285 81.6743C994.087 81.7236 994.077 81.7204 993.871 81.6963C993.698 81.5949 993.643 81.4298 993.547 81.2442C993.172 80.5787 993.017 79.9786 992.565 79.2809C992.095 79.2622 991.605 79.2825 991.133 79.2938C991.139 79.6445 991.187 81.5376 991.063 81.6979C990.846 81.7253 990.839 81.7237 990.63 81.6652C990.493 81.4855 990.525 76.2939 990.519 75.6879Z" fill="var(--fill-0, #FEE500)"/>
<path d="M991.141 76.2646C991.728 76.2603 992.762 76.1793 993.267 76.4469C993.837 76.7493 993.736 78.0284 993.4 78.4954C992.8 78.8247 991.833 78.7298 991.136 78.7185L991.141 76.2646Z" fill="#001722"/>
<path d="M980.081 66.7609C980.457 66.7458 980.867 66.7587 981.245 66.7625C981.331 67.2499 981.305 68.0913 981.304 68.604C981.291 69.6117 981.296 70.6199 981.319 71.6275C981.639 71.7031 981.97 71.7959 982.301 71.8045C982.551 71.8109 982.831 71.7798 983.015 71.5916C983.292 71.3079 983.175 67.4929 983.194 66.7641C983.569 66.7571 983.96 66.7625 984.336 66.7619C984.354 67.1068 984.354 67.4897 984.36 67.8382C984.351 68.4705 984.35 69.195 984.378 69.8219C984.453 71.4849 984.515 72.8073 982.379 72.8068C979.885 72.8062 980.06 71.8812 980.065 69.8541L980.081 66.7609Z" fill="var(--fill-0, #FEE500)"/>
<path d="M992.793 66.7604C993.171 66.7459 993.593 66.7567 993.976 66.7588C994.26 67.531 994.529 68.5344 994.771 69.335C995.108 70.4494 995.471 71.6265 995.75 72.7522C995.373 72.7666 994.974 72.7639 994.595 72.7672C994.455 72.4588 994.258 71.6373 994.118 71.4962L992.557 71.4909C992.433 71.9397 992.333 72.292 992.171 72.7318C991.717 72.7736 991.482 72.7677 991.028 72.7361C991.456 70.9508 992.266 68.5591 992.793 66.7604Z" fill="var(--fill-0, #FEE500)"/>
<path d="M993.338 68.1386C993.41 68.3724 993.501 69.0341 993.564 69.3318C993.634 69.6584 993.84 70.2273 993.87 70.4649C993.737 70.5443 993.584 70.5164 993.408 70.5175C993.237 70.5207 993.095 70.5132 992.924 70.5041L992.87 70.4402C993.117 69.4519 993.156 69.0749 993.338 68.1386Z" fill="#001722"/>
<path d="M969.803 66.7628C970.904 66.7232 972.106 66.7489 973.212 66.7596L973.21 67.7539C972.494 67.7866 971.683 67.7726 970.96 67.7748C970.956 68.2456 970.957 68.7165 970.961 69.1873L973.074 69.1889C973.095 69.5434 973.073 69.8142 973.049 70.1676L970.957 70.1805L970.953 70.8181L970.956 71.7732C971.741 71.7614 972.526 71.7662 973.311 71.7893L973.305 72.7412C972.287 72.7776 970.801 72.7937 969.793 72.7358C969.75 70.8969 969.749 68.5958 969.803 66.7628Z" fill="var(--fill-0, #FEE500)"/>
<path d="M997.867 75.6618C998.07 75.6687 998.29 75.7004 998.493 75.7245C998.834 77.0309 999.242 78.29 999.639 79.5798C999.856 80.285 1000.12 81.0041 1000.28 81.72C1000.06 81.72 999.833 81.6948 999.616 81.6766C999.472 81.0894 999.288 80.5949 999.086 80.027L998.356 80.0292C997.944 80.0313 997.534 80.0297 997.122 80.0238C996.956 80.4812 996.777 81.4964 996.364 81.712C996.156 81.7071 996.241 81.7415 996.09 81.6358C996.01 81.3446 997.583 76.2463 997.867 75.6618Z" fill="var(--fill-0, #FEE500)"/>
<path d="M998.085 76.6206C998.127 76.7011 998.097 76.6346 998.123 76.7236C998.389 77.6369 998.685 78.5689 998.961 79.48L998.141 79.4757L997.284 79.4747C997.576 78.4552 997.844 77.6765 998.085 76.6206Z" fill="#001722"/>
<path d="M1009.55 75.6697C1009.75 75.6654 1009.83 75.666 1010.04 75.6912C1010.3 75.8778 1011.8 81.0936 1011.96 81.7173C1011.75 81.7151 1011.49 81.6845 1011.27 81.6658C1011.17 81.1231 1010.97 80.5278 1010.8 79.9958L1010.1 79.9808L1008.77 80.0017C1008.64 80.5144 1008.47 81.0174 1008.36 81.5371C1008.31 81.75 1007.91 81.7537 1007.74 81.6556C1007.69 81.2759 1009.28 76.2864 1009.55 75.6697Z" fill="var(--fill-0, #FEE500)"/>
<path d="M1009.79 76.6571C1009.86 76.8024 1010.04 77.4593 1010.1 77.654C1010.29 78.268 1010.49 78.8799 1010.69 79.4907L1009.83 79.4784L1008.99 79.4757C1009.26 78.5405 1009.56 77.5982 1009.79 76.6571Z" fill="#001722"/>
<path d="M967.695 75.6435C967.81 75.6478 967.923 75.6484 968.033 75.6864C968.467 75.8382 970.54 79.7975 970.862 80.4265C970.862 79.8452 970.816 75.9283 970.943 75.6918C971.167 75.6677 971.197 75.673 971.414 75.7331C971.552 75.9637 971.501 81.0577 971.472 81.7205C971.253 81.7222 970.953 81.7661 970.829 81.5511C970.559 81.0851 970.296 80.6148 970.031 80.1455C969.444 79.0885 968.844 78.0391 968.231 76.9971C968.229 77.7602 968.337 81.1677 968.147 81.5983C968.095 81.7168 968.037 81.7334 967.919 81.7774C967.801 81.7554 967.845 81.7651 967.739 81.675C967.563 81.1151 967.649 76.5622 967.695 75.6435Z" fill="var(--fill-0, #FEE500)"/>
<path d="M986.168 75.6303C987.146 75.5622 987.751 75.6882 988.274 76.5575C988.297 76.8906 988.42 77.8676 987.721 77.4156C987.632 77.274 987.633 77.26 987.637 77.0917L987.65 76.5077C987.398 76.4449 987.145 76.3843 986.892 76.3264C986.358 76.2063 985.907 76.1494 985.428 76.4535C985.062 76.9726 985.205 80.0975 985.221 80.9389C985.825 81.082 987.433 81.6129 987.625 80.5527C987.663 80.3382 987.697 79.5521 987.589 79.3848L987.388 79.3692C987.018 79.3611 986.594 79.4947 986.342 79.2206C986.305 79.0565 986.289 79.0469 986.339 78.8823C986.608 78.7466 987.896 78.8142 988.283 78.8222C988.294 79.4362 988.392 80.6101 988.125 81.1078C987.578 82.0511 984.606 82.1197 984.573 80.7185C984.559 80.0937 984.477 79.3628 984.523 78.7294C984.649 77.0166 983.968 75.8395 986.168 75.6303Z" fill="var(--fill-0, #FEE500)"/>
<path d="M979.11 75.7134C979.558 75.7096 982.12 75.6211 982.335 75.7917C982.362 75.9949 982.359 75.9922 982.326 76.1966C982.091 76.3687 980.141 76.277 979.753 76.2722C979.738 76.9543 979.739 77.637 979.755 78.3186C980.34 78.3261 981.404 78.3063 982.025 78.3379C982.131 78.3433 982.244 78.5127 982.288 78.6489C982.08 79.0565 980.25 78.6168 979.806 78.8795C979.747 78.9138 979.762 79.0463 979.756 79.1364L979.755 81.1415C980.582 81.1447 981.508 81.1077 982.326 81.1614C982.394 81.1662 982.375 81.1769 982.426 81.2482C982.438 81.4059 982.465 81.5325 982.41 81.6778C982.018 81.7759 979.638 81.7121 979.105 81.7051C979.088 79.7081 979.089 77.711 979.11 75.7134Z" fill="var(--fill-0, #FEE500)"/>
<path d="M973.447 75.6859C974.11 75.681 976.689 75.6253 977.166 75.7341C977.285 75.9014 977.281 76.0189 977.188 76.1969C977.022 76.3117 975.857 76.2613 975.584 76.2586C975.562 77.5564 975.579 78.8981 975.578 80.1996C975.583 80.6823 975.695 81.4218 975.085 81.5628L975.016 81.4958C974.929 81.0657 974.95 80.0237 974.95 79.5432L974.953 76.2672C974.522 76.2698 973.624 76.3589 973.342 76.1336C973.266 75.9835 973.299 75.9143 973.33 75.7475L973.447 75.6859Z" fill="var(--fill-0, #FEE500)"/>
<path d="M964.584 75.6667C964.808 75.6651 964.985 75.6313 965.14 75.8013C965.199 76.3183 965.178 77.8853 965.165 78.458C965.143 79.4195 965.217 80.7994 965.146 81.7175C964.914 81.7217 964.849 81.7335 964.631 81.6729C964.485 81.4574 964.526 76.4089 964.584 75.6667Z" fill="var(--fill-0, #FEE500)"/>
</g>
</g>
</svg>
