<svg preserveAspectRatio="none" width="100%" height="100%" overflow="visible" style="display: block;" viewBox="0 0 2403.89 187.159" fill="none" xmlns="http://www.w3.org/2000/svg">
<g id="Frame 85">
<g id="Vector">
<path fill-rule="evenodd" clip-rule="evenodd" d="M17.3109 41.643L0 58.9539V104.707C0 127.245 18.2703 145.516 40.8084 145.516H45.7533C68.2914 145.516 86.5617 127.245 86.5617 104.707V58.9539H69.2508V41.643H17.3109ZM17.3109 58.9539H69.2437V102.231C69.2437 116.572 57.6185 128.198 43.2773 128.198C28.9362 128.198 17.3109 116.572 17.3109 102.231V58.9539Z" fill="#47D154"/>
<path d="M145.676 123.88C140.159 123.88 135.341 122.625 131.215 120.114C127.095 117.602 123.885 114.118 121.607 109.652C119.321 105.138 118.178 99.8893 118.178 93.9214C118.178 87.9536 119.349 82.5995 121.684 78.0284C124.083 73.4009 127.455 69.8032 131.8 67.2355C136.202 64.6114 141.408 63.3063 147.425 63.3063C154.275 63.3063 159.96 64.95 164.475 68.2443C168.99 71.5386 171.91 76.0814 173.25 81.88H161.301C160.412 79.15 158.789 77.0267 156.454 75.5242C154.112 73.9652 151.107 73.1822 147.432 73.1822C141.584 73.1822 137.07 75.0515 133.895 78.7902C130.721 82.4725 129.134 87.5445 129.134 94.0202C129.134 100.496 130.693 105.511 133.818 109.081C136.992 112.594 141.281 114.35 146.684 114.35C152.088 114.35 155.961 112.925 158.634 110.083C161.364 107.183 163.008 103.388 163.565 98.7042H148.772V90.6695H174.344V122.879H164.482L163.643 115.183C161.745 117.969 159.382 120.121 156.539 121.623C153.696 123.126 150.077 123.88 145.676 123.88Z" fill="var(--fill-0, black)"/>
<path d="M201.037 123.88C197.136 123.88 193.658 122.935 190.59 121.038C187.528 119.14 185.101 116.551 183.317 113.257C181.532 109.963 180.643 106.231 180.643 102.048C180.643 97.8647 181.532 94.1542 183.317 90.9234C185.101 87.6291 187.521 85.0685 190.59 83.2273C193.651 81.3297 197.136 80.3845 201.037 80.3845C204.155 80.3845 206.885 80.97 209.227 82.141C211.569 83.312 213.459 84.9556 214.905 87.0789L215.491 81.3862H225.599V122.886H215.575L214.905 116.946C213.572 118.787 211.787 120.403 209.558 121.8C207.386 123.196 204.543 123.895 201.037 123.895V123.88ZM203.294 114.513C206.751 114.513 209.565 113.37 211.738 111.084C213.967 108.742 215.082 105.758 215.082 102.132C215.082 98.5066 213.967 95.551 211.738 93.2654C209.565 90.9234 206.751 89.7524 203.294 89.7524C199.838 89.7524 197.079 90.8952 194.85 93.1807C192.621 95.4663 191.507 98.422 191.507 102.048C191.507 105.674 192.621 108.658 194.85 111C197.079 113.342 199.894 114.513 203.294 114.513Z" fill="var(--fill-0, black)"/>
<path d="M232.005 122.879V81.3791H241.535L242.536 89.1599C244.039 86.4793 246.078 84.363 248.638 82.8041C251.255 81.1887 254.324 80.3774 257.83 80.3774V91.6712H254.818C252.476 91.6712 250.388 92.0309 248.547 92.7575C246.705 93.4841 245.259 94.7397 244.201 96.5244C243.2 98.3091 242.699 100.792 242.699 103.974V122.879H231.998H232.005Z" fill="var(--fill-0, black)"/>
<path d="M280.946 123.88C277.045 123.88 273.568 122.935 270.499 121.038C267.438 119.14 265.011 116.551 263.226 113.257C261.442 109.963 260.553 106.231 260.553 102.048C260.553 97.8647 261.442 94.1542 263.226 90.9234C265.011 87.6291 267.431 85.0685 270.499 83.2273C273.561 81.3297 277.045 80.3845 280.946 80.3845C284.064 80.3845 286.794 80.97 289.136 82.141C291.478 83.312 293.369 84.9556 294.815 87.0789L295.4 81.3862H305.509V122.886H295.485L294.815 116.946C293.482 118.787 291.697 120.403 289.468 121.8C287.295 123.196 284.452 123.895 280.946 123.895V123.88ZM283.204 114.513C286.66 114.513 289.475 113.37 291.648 111.084C293.877 108.742 294.991 105.758 294.991 102.132C294.991 98.5066 293.877 95.551 291.648 93.2654C289.475 90.9234 286.66 89.7524 283.204 89.7524C279.747 89.7524 276.989 90.8952 274.76 93.1807C272.531 95.4663 271.416 98.422 271.416 102.048C271.416 105.674 272.531 108.658 274.76 111C276.989 113.342 279.804 114.513 283.204 114.513Z" fill="var(--fill-0, black)"/>
<path d="M311.921 122.879V81.3791H321.367L322.199 88.4051C323.483 85.9502 325.317 83.9962 327.716 82.5501C330.163 81.097 333.034 80.3774 336.322 80.3774C341.45 80.3774 345.429 81.9928 348.271 85.2307C351.114 88.4686 352.532 93.209 352.532 99.4519V122.879H341.838V100.454C341.838 96.8842 341.111 94.1542 339.665 92.2567C338.219 90.3591 335.962 89.4138 332.9 89.4138C329.839 89.4138 327.412 90.4719 325.465 92.5953C323.568 94.7115 322.622 97.6743 322.622 101.462V122.879H311.921Z" fill="var(--fill-0, black)"/>
<path d="M378.724 122.879C374.379 122.879 370.894 121.821 368.277 119.697C365.66 117.581 364.348 113.814 364.348 108.404V90.3309H357.244V81.3791H364.348L375.042 70.2547V81.3791H386.244V90.3309H375.042V108.488C375.042 110.499 375.458 111.888 376.298 112.671C377.186 113.398 378.696 113.758 380.812 113.758H385.997V122.879H378.724Z" fill="var(--fill-0, black)"/>
<path d="M393.34 122.879V92.2567L404.035 81.3791V122.879H393.34Z" fill="var(--fill-0, black)"/>
<path d="M410.017 122.879V114.259L431.158 90.2462H410.27V81.3791H443.362V89.9993L421.882 114.012H443.778V122.879H410.017Z" fill="var(--fill-0, black)"/>
<path d="M467.247 123.88C463.346 123.88 459.868 122.935 456.8 121.038C453.738 119.14 451.312 116.551 449.527 113.257C447.742 109.963 446.853 106.231 446.853 102.048C446.853 97.8647 447.742 94.1542 449.527 90.9234C451.312 87.6291 453.731 85.0685 456.8 83.2273C459.861 81.3297 463.346 80.3845 467.247 80.3845C470.365 80.3845 473.095 80.97 475.437 82.141C477.779 83.312 479.669 84.9556 481.116 87.0789L481.701 81.3862H491.81V122.886H481.786L481.116 116.946C479.782 118.787 477.998 120.403 475.768 121.8C473.596 123.196 470.753 123.895 467.247 123.895V123.88ZM469.504 114.513C472.961 114.513 475.775 113.37 477.948 111.084C480.177 108.742 481.292 105.758 481.292 102.132C481.292 98.5066 480.177 95.551 477.948 93.2654C475.775 90.9234 472.961 89.7524 469.504 89.7524C466.048 89.7524 463.29 90.8952 461.061 93.1807C458.831 95.4663 457.717 98.422 457.717 102.048C457.717 105.674 458.831 108.658 461.061 111C463.29 113.342 466.104 114.513 469.504 114.513Z" fill="var(--fill-0, black)"/>
</g>
<g id="Vector_2">
<path d="M590.861 55.2255L598.172 76.5678L612.911 118.905H630.522L608.472 55.2255H590.861Z" fill="#234D99"/>
<path d="M608.472 55.2255L601.159 76.5682L586.421 118.906H568.81L590.859 55.226L608.472 55.2255Z" fill="#3E80DD"/>
<path d="M675.892 91.7963V114.085C675.892 117.814 673.527 119.725 670.435 119.725C667.343 119.725 665.067 117.814 665.067 114.085V92.7978C665.067 85.0651 660.155 80.9714 654.425 80.9714C648.695 80.9714 643.782 85.0651 643.782 92.7978V114.085C643.782 117.814 641.417 119.725 638.415 119.725C635.413 119.725 632.957 117.814 632.957 114.085V91.7963C632.957 77.5147 643.328 70.3267 654.427 70.3267C665.526 70.3267 675.897 77.5125 675.897 91.7963H675.892Z" fill="var(--fill-0, #050D19)"/>
<path d="M727.923 54.7706V96.0716C727.923 111.355 718.098 119.724 704.725 119.724C691.353 119.724 679.891 111.627 679.891 94.9801C679.891 81.4254 689.352 71.1452 704.089 71.1452H708.272C711.729 71.1452 713.457 73.6005 713.457 76.4226C713.457 79.2446 711.729 81.79 708.272 81.79H704.089C695.811 81.79 691.081 87.1574 691.081 94.9801C691.081 104.441 697.357 109.079 704.181 109.079C711.004 109.079 717.099 104.349 717.099 94.9801V54.7706C717.099 51.0416 719.464 49.1309 722.556 49.1309C725.648 49.1309 727.923 51.0416 727.923 54.7706Z" fill="var(--fill-0, #050D19)"/>
<path d="M780.045 114.083C780.045 117.812 777.68 119.722 774.678 119.722C771.676 119.722 769.22 117.812 769.22 114.083V94.9781C769.22 85.6994 762.944 80.9688 756.302 80.9688C749.661 80.9688 743.202 85.6093 743.202 95.0682C743.202 102.891 747.933 108.258 756.21 108.258H760.394C763.851 108.258 765.579 110.806 765.579 113.626C765.579 116.446 763.851 118.901 760.394 118.901H756.21C741.474 118.901 732.013 108.621 732.013 95.066C732.013 78.4191 743.929 70.3219 756.847 70.3219C769.765 70.3219 780.045 78.6914 780.045 93.9745V114.083Z" fill="var(--fill-0, #050D19)"/>
<path d="M814.975 76.4232C814.975 79.2431 813.246 81.7906 809.88 81.7906H806.513C800.873 81.7906 796.143 85.0651 796.143 92.7978V114.085C796.143 117.814 793.778 119.725 790.775 119.725C787.773 119.725 785.318 117.814 785.318 114.085V91.7963C785.318 77.5147 795.416 71.1459 806.513 71.1459H809.88C813.246 71.1459 814.975 73.6012 814.975 76.4232Z" fill="var(--fill-0, #050D19)"/>
<path d="M832.623 109.552L836.001 106.267C840.747 112.748 846.588 115.576 854.528 115.576C863.016 115.576 868.948 111.287 868.948 104.167C868.948 85.1838 836.82 93.9443 836.82 71.5852C836.82 62.0934 844.304 55.9793 854.892 55.9793C862.833 55.9793 869.312 59.2648 873.601 64.832L870.224 68.1175C866.299 63.1893 861.461 60.4507 854.8 60.4507C846.951 60.4507 841.748 64.5575 841.748 71.3107C841.748 89.1084 873.784 80.7124 873.784 103.621C873.784 114.208 866.299 120.05 854.343 120.05C844.669 120.05 837.731 116.218 832.621 109.555L832.623 109.552Z" fill="var(--fill-0, #050D19)"/>
<path d="M880.082 97.8688C880.082 85.3638 889.392 75.782 901.804 75.782C913.303 75.782 921.519 84.1779 921.519 96.0438C921.519 96.7729 921.427 97.961 921.155 99.6037H884.83C885.652 109.37 892.587 115.666 902.628 115.666C908.103 115.666 912.941 113.659 916.136 109.642L919.24 112.653C915.315 117.309 909.201 120.046 902.356 120.046C889.578 120.046 880.087 110.554 880.087 97.8666L880.082 97.8688ZM884.828 95.587H916.956C916.773 86.2774 910.842 80.0711 901.714 80.0711C892.587 80.0711 885.652 86.2774 884.83 95.587H884.828Z" fill="var(--fill-0, #050D19)"/>
<path d="M927.267 97.3219C927.267 85.0915 936.212 75.782 948.167 75.782C955.742 75.782 961.948 79.342 965.051 85.2738V76.6956H969.705V117.491C969.705 129.812 960.76 138.028 947.436 138.028C939.13 138.028 932.195 134.832 928.178 128.993L931.099 126.072C934.384 130.725 940.134 133.646 947.526 133.646C958.296 133.646 965.049 127.44 965.049 117.491V109.368C961.946 115.3 955.922 118.86 948.347 118.86C936.209 118.86 927.264 109.732 927.264 97.3197L927.267 97.3219ZM965.326 97.3219C965.326 87.191 958.663 80.1633 948.989 80.1633C939.315 80.1633 932.012 87.2833 932.012 97.2297C932.012 107.176 939.132 114.571 949.171 114.571C959.21 114.571 965.326 107.725 965.326 97.3197V97.3219Z" fill="var(--fill-0, #050D19)"/>
<path d="M980.2 101.428V76.6952H984.854V101.246C984.854 109.824 989.965 115.666 997.814 115.666C1005.66 115.666 1010.68 109.916 1010.68 101.246V76.6952H1015.34V101.428C1015.34 112.381 1008.13 120.047 997.816 120.047C987.503 120.047 980.2 112.473 980.2 101.428Z" fill="var(--fill-0, #050D19)"/>
<path d="M1025.83 76.6956H1030.49V82.902C1033.04 78.3383 1037.52 75.782 1043.08 75.782C1047.28 75.782 1050.84 77.1502 1053.85 80.4357L1050.75 83.7211C1048.47 81.257 1045.82 80.1611 1042.26 80.1611C1035.33 80.1611 1030.49 84.9993 1030.49 93.7598V119.132H1025.83V76.6956Z" fill="var(--fill-0, #050D19)"/>
<path d="M1054.95 97.7786C1054.95 85.3659 1064.53 75.7841 1076.94 75.7841C1089.35 75.7841 1098.85 85.3681 1098.85 97.7786C1098.85 110.189 1089.17 120.048 1076.94 120.048C1064.71 120.048 1054.95 110.281 1054.95 97.7786ZM1094.01 97.6863C1094.01 87.6477 1086.71 80.1632 1076.94 80.1632C1067.18 80.1632 1059.69 87.7377 1059.69 97.7786C1059.69 107.819 1067.09 115.666 1076.94 115.666C1086.8 115.666 1094.01 108 1094.01 97.6863Z" fill="var(--fill-0, #050D19)"/>
<path d="M1103.78 112.381L1106.88 109.278C1110.35 113.749 1114.91 115.849 1120.39 115.849C1126.69 115.849 1130.61 113.11 1130.61 108.546C1130.61 96.1338 1106.42 102.615 1106.42 87.0988C1106.42 80.3456 1111.81 75.782 1120.48 75.782C1126.69 75.782 1132.07 78.0638 1135.08 82.2629L1132.07 85.366C1129.61 81.9883 1125.32 79.9811 1120.21 79.9811C1114.09 79.9811 1110.9 82.9019 1110.9 86.8265C1110.9 98.2355 1135.08 91.8469 1135.08 108.092C1135.08 115.394 1129.24 120.048 1120.3 120.048C1113.36 120.048 1107.52 117.037 1103.78 112.381H1103.78Z" fill="var(--fill-0, #050D19)"/>
</g>
<g id="Vector_3">
<path d="M1241 121.894H1227.46C1224.99 121.894 1222.99 123.876 1222.95 126.335C1223 127.228 1223.13 128.128 1223.27 129.096C1223.54 130.627 1224.09 132.065 1224.71 133.328C1228.31 139.891 1235.06 140.173 1240.38 135.041C1241.92 133.549 1243.64 131.01 1245.03 128.41H1245.03C1245.33 127.799 1245.52 127.127 1245.52 126.402C1245.52 123.909 1243.49 121.887 1241 121.887L1241 121.894Z" fill="var(--fill-0, #0740A5)"/>
<path d="M1337.68 126.381C1337.68 123.976 1335.8 122.035 1333.43 121.894H1319.34C1316.98 122.042 1315.1 123.983 1315.1 126.381C1315.1 127.12 1315.29 127.805 1315.6 128.423H1315.59C1316.97 131.017 1318.69 133.556 1320.22 135.047C1325.63 140.18 1332.29 139.904 1335.89 133.334C1336.61 132.071 1337.07 130.634 1337.33 129.102C1337.55 128.162 1337.64 127.288 1337.72 126.415H1337.66V126.381H1337.68Z" fill="#0740A5"/>
<path d="M1280.35 47.0921C1267.81 47.0921 1256.09 50.8944 1245.97 57.4442H1314.74C1304.62 50.8944 1292.9 47.0921 1280.35 47.0921Z" fill="#0740A5"/>
<path d="M1297.04 63.819C1301.49 71.3025 1304.85 79.1354 1307.27 87.1228H1340.73C1335.73 76.932 1328.72 68.1788 1320.33 61.4543H1295.47C1296 62.2336 1296.56 63.0061 1297.04 63.819Z" fill="#0740A5"/>
<path d="M1263.67 63.819C1264.16 62.9994 1264.72 62.2336 1265.25 61.4543H1240.39C1231.99 68.1788 1224.99 76.9387 1219.99 87.1228H1253.45C1255.88 79.1354 1259.23 71.3092 1263.68 63.819H1263.67Z" fill="#0740A5"/>
<path d="M1290.85 61.4479H1269.87C1268.93 62.8385 1267.96 64.2089 1267.09 65.6666C1262.98 72.5926 1259.82 79.7873 1257.51 87.1231H1303.21C1300.89 79.7873 1297.73 72.5926 1293.62 65.6666C1292.76 64.2089 1291.79 62.8452 1290.85 61.4479Z" fill="#0740A5"/>
<path d="M1212.08 114.068H1212.1C1212.1 116.561 1214.12 118.583 1216.62 118.583L1248.93 118.589C1248.86 109.393 1249.92 100.169 1252.28 91.1339H1218.2C1215.17 98.2547 1213.03 105.947 1212.08 114.068Z" fill="#0740A5"/>
<path d="M1308.42 91.1339C1310.77 100.163 1311.84 109.393 1311.77 118.589H1344.09C1346.58 118.583 1348.61 116.561 1348.61 114.068H1348.63C1347.67 105.947 1345.54 98.2547 1342.51 91.1339H1308.42Z" fill="#0740A5"/>
<path d="M1256.35 91.1339C1253.9 100.183 1252.79 109.406 1252.89 118.589H1254.53C1257.02 118.583 1259.05 116.554 1259.05 114.068H1259.08C1259.8 105.443 1268.87 98.7653 1279.8 98.7653C1290.74 98.7653 1299.92 105.443 1300.65 114.068H1300.68C1300.68 116.561 1302.7 118.583 1305.18 118.583L1307.83 118.589C1307.92 109.406 1306.81 100.189 1304.36 91.1339H1256.35Z" fill="#0740A5"/>
<path d="M1279.81 102.742C1271.16 102.742 1264.06 108.237 1264.06 115.17C1264.06 122.102 1271.17 127.598 1279.81 127.598C1288.45 127.598 1295.66 122.015 1295.66 115.17C1295.66 108.324 1288.55 102.742 1279.81 102.742ZM1272.1 117.917C1270.57 117.917 1269.34 116.688 1269.34 115.163C1269.34 113.638 1270.57 112.402 1272.1 112.402C1273.62 112.402 1274.86 113.638 1274.86 115.163C1274.86 116.688 1273.62 117.917 1272.1 117.917ZM1287.62 117.917C1286.09 117.917 1284.86 116.681 1284.86 115.163C1284.86 113.645 1286.09 112.402 1287.62 112.402C1289.14 112.402 1290.37 113.638 1290.37 115.163C1290.37 116.688 1289.13 117.917 1287.62 117.917Z" fill="#0740A5"/>
<path d="M1409.5 66.7554L1419.29 102.93C1419.82 104.912 1419.83 106.222 1419.33 106.86C1418.83 107.498 1417.56 107.821 1415.53 107.821H1413.87C1411.83 107.821 1410.38 107.505 1409.54 106.86C1408.7 106.222 1408.01 104.905 1407.49 102.93L1405.22 94.016H1382.15L1379.88 102.93C1379.35 104.912 1378.67 106.222 1377.82 106.86C1376.98 107.498 1375.53 107.821 1373.5 107.821H1371.84C1369.79 107.821 1368.53 107.505 1368.03 106.86C1367.54 106.222 1367.55 104.905 1368.07 102.93L1377.86 66.7554C1378.8 63.3831 1379.58 60.8437 1380.22 59.1509C1380.8 57.5185 1381.71 55.9129 1382.93 54.341C1385.03 51.5464 1388.61 50.1491 1393.68 50.1491C1398.75 50.1491 1402.34 51.5464 1404.43 54.341C1405.65 55.9129 1406.55 57.5185 1407.15 59.1509C1407.78 60.8437 1408.58 63.3763 1409.5 66.7554ZM1389.14 67.2793L1384.86 83.5363H1402.42L1398.23 67.2793C1397.42 64.431 1396.8 62.6239 1396.4 61.8648C1395.93 61.052 1395.03 60.6422 1393.68 60.6422C1392.34 60.6422 1391.44 61.052 1390.97 61.8648C1390.56 62.6239 1389.95 64.431 1389.14 67.2793H1389.14Z" fill="#F9CE15"/>
<path d="M1452.58 51.0229C1465.46 51.0229 1471.9 57.3711 1471.9 70.0744C1471.9 82.7776 1465.46 89.0386 1452.58 89.0386H1439.48V102.756C1439.48 104.738 1439.14 106.075 1438.47 106.78C1437.8 107.479 1436.44 107.828 1434.41 107.828H1432.83C1430.79 107.828 1429.44 107.479 1428.77 106.78C1428.1 106.082 1427.76 104.745 1427.76 102.756V61.5093C1427.76 57.8414 1428.59 55.1744 1430.25 53.5152C1431.92 51.8559 1434.58 51.0229 1438.25 51.0229H1452.58ZM1452.58 61.9459H1442.1C1440.35 61.9459 1439.48 62.8192 1439.48 64.5658V78.1088H1452.58C1455.32 78.1088 1457.27 77.4841 1458.44 76.2346C1459.61 74.9851 1460.19 72.9294 1460.19 70.0744C1460.19 67.2193 1459.59 65.2242 1458.39 63.9142C1457.2 62.6043 1455.26 61.9459 1452.58 61.9459Z" fill="#F9CE15"/>
<path d="M1479.41 85.7128V73.4798C1479.41 65.9089 1481.18 60.1719 1484.74 56.2622C1488.34 52.2383 1494.61 50.2296 1503.52 50.2296C1512.44 50.2296 1518.7 52.2383 1522.31 56.2622C1525.87 60.1652 1527.65 65.9089 1527.65 73.4798V85.7128C1527.65 93.2904 1525.87 99.0206 1522.31 102.93C1518.7 106.954 1512.44 108.963 1503.52 108.963C1494.61 108.963 1488.35 106.954 1484.74 102.93C1481.18 99.0273 1479.41 93.2904 1479.41 85.7128ZM1515.85 85.7128V73.4798C1515.85 68.9923 1515.03 65.8484 1513.41 64.0413C1511.71 62.1201 1508.42 61.1594 1503.53 61.1594C1498.64 61.1594 1495.35 62.1201 1493.66 64.0413C1492.02 65.8484 1491.21 68.9923 1491.21 73.4798V85.7128C1491.21 90.2002 1492.02 93.3441 1493.66 95.1512C1495.35 97.0725 1498.64 98.0331 1503.53 98.0331C1508.42 98.0331 1511.77 97.0725 1513.41 95.1512C1515.04 93.3441 1515.85 90.2002 1515.85 85.7128Z" fill="#F9CE15"/>
<path d="M1537.95 97.3345V56.0875C1537.95 54.1058 1538.28 52.769 1538.96 52.0636C1539.63 51.365 1540.98 51.0156 1543.02 51.0156H1544.6C1546.64 51.0156 1547.99 51.365 1548.66 52.0636C1549.33 52.7623 1549.67 54.1058 1549.67 56.0875V94.2779C1549.67 96.0245 1550.54 96.8978 1552.29 96.8978H1570.03C1572.01 96.8978 1573.35 97.2337 1574.05 97.9055C1574.75 98.5773 1575.1 99.9343 1575.1 101.97V102.756C1575.1 104.737 1574.75 106.074 1574.05 106.78C1573.36 107.478 1572.01 107.828 1570.03 107.828H1548.45C1544.78 107.828 1542.11 107.001 1540.45 105.335C1538.79 103.669 1537.96 101.009 1537.96 97.3412L1537.95 97.3345Z" fill="#F9CE15"/>
<path d="M1621.41 66.7557L1631.2 102.931C1631.72 104.912 1631.73 106.222 1631.24 106.861C1630.74 107.499 1629.48 107.821 1627.43 107.821H1625.77C1623.73 107.821 1622.29 107.506 1621.45 106.861C1620.6 106.222 1619.92 104.906 1619.39 102.931L1617.12 94.0163H1594.05L1591.78 102.931C1591.26 104.912 1590.57 106.222 1589.73 106.861C1588.88 107.499 1587.44 107.821 1585.4 107.821H1583.74C1581.7 107.821 1580.44 107.506 1579.94 106.861C1579.44 106.222 1579.46 104.906 1579.99 102.931L1589.77 66.7557C1590.71 63.3834 1591.49 60.8441 1592.13 59.1512C1592.71 57.5188 1593.62 55.9133 1594.85 54.3413C1596.94 51.5467 1600.52 50.1494 1605.59 50.1494C1610.67 50.1494 1614.25 51.5467 1616.34 54.3413C1617.57 55.9133 1618.47 57.5188 1619.06 59.1512C1619.69 60.8441 1620.49 63.3767 1621.41 66.7557H1621.41ZM1601.05 67.2797L1596.76 83.5366H1614.33L1610.14 67.2797C1609.32 64.4314 1608.7 62.6243 1608.3 61.8652C1607.83 61.0523 1606.93 60.6426 1605.59 60.6426C1604.24 60.6426 1603.34 61.0523 1602.87 61.8652C1602.46 62.6243 1601.85 64.4314 1601.04 67.2797H1601.05Z" fill="#F9CE15"/>
<path d="M1683.8 69.1944C1683.8 78.6328 1679.87 84.3698 1672.01 86.4119L1683.45 103.63C1684.55 105.262 1684.96 106.37 1684.68 106.948C1684.39 107.526 1683.22 107.821 1681.18 107.821H1677.86C1675.88 107.821 1674.36 107.533 1673.31 106.948C1672.26 106.37 1671.15 105.228 1669.99 103.542L1659.33 87.2852H1651.38V102.756C1651.38 104.738 1651.05 106.075 1650.37 106.78C1649.7 107.479 1648.35 107.828 1646.31 107.828H1644.74C1642.7 107.828 1641.35 107.479 1640.67 106.78C1640 106.082 1639.67 104.745 1639.67 102.756V61.5093C1639.67 57.8414 1640.49 55.1744 1642.16 53.5152C1643.82 51.8559 1646.48 51.0229 1650.15 51.0229H1664.48C1677.36 51.0229 1683.8 57.0823 1683.8 69.1944H1683.8ZM1664.49 61.9459H1654C1652.26 61.9459 1651.38 62.8192 1651.38 64.5658V76.3622H1664.49C1669.56 76.3622 1672.09 73.9774 1672.09 69.1944C1672.09 66.6886 1671.5 64.8547 1670.3 63.6858C1669.1 62.5169 1667.17 61.9392 1664.49 61.9392V61.9459Z" fill="#F9CE15"/>
<path d="M1374.67 140.066C1372.97 140.066 1371.51 139.697 1370.3 138.964C1369.08 138.232 1368.14 137.204 1367.49 135.888C1366.84 134.571 1366.51 133.053 1366.51 131.326C1366.51 129.6 1366.84 128.075 1367.49 126.751C1368.14 125.428 1369.08 124.393 1370.3 123.655C1371.51 122.916 1372.97 122.539 1374.67 122.539C1376.71 122.539 1378.39 123.05 1379.7 124.064C1381.01 125.079 1381.82 126.516 1382.14 128.37H1378.58C1378.37 127.47 1377.93 126.758 1377.26 126.254C1376.59 125.744 1375.72 125.495 1374.64 125.495C1373.64 125.495 1372.78 125.73 1372.06 126.207C1371.34 126.684 1370.79 127.356 1370.4 128.216C1370.01 129.082 1369.82 130.117 1369.82 131.326C1369.82 132.535 1370.02 133.55 1370.4 134.423C1370.79 135.296 1371.34 135.961 1372.06 136.432C1372.78 136.902 1373.64 137.13 1374.64 137.13C1375.72 137.13 1376.59 136.895 1377.25 136.418C1377.92 135.941 1378.35 135.276 1378.56 134.423H1382.14C1381.82 136.183 1381.01 137.56 1379.7 138.561C1378.39 139.562 1376.71 140.059 1374.67 140.059V140.066Z" fill="var(--fill-0, #0740A5)"/>
<path d="M1407.27 140.066C1405.62 140.066 1404.17 139.697 1402.91 138.951C1401.65 138.212 1400.66 137.178 1399.95 135.868C1399.24 134.551 1398.88 133.033 1398.88 131.307C1398.88 129.58 1399.24 128.062 1399.95 126.745C1400.66 125.429 1401.64 124.401 1402.91 123.662C1404.16 122.923 1405.62 122.547 1407.27 122.547C1408.91 122.547 1410.39 122.916 1411.65 123.662C1412.9 124.401 1413.88 125.435 1414.59 126.745C1415.29 128.055 1415.64 129.58 1415.64 131.307C1415.64 133.033 1415.29 134.551 1414.59 135.868C1413.88 137.185 1412.91 138.212 1411.65 138.951C1410.39 139.69 1408.93 140.066 1407.27 140.066ZM1407.27 137.138C1408.3 137.138 1409.19 136.902 1409.94 136.425C1410.69 135.949 1411.28 135.277 1411.69 134.403C1412.11 133.53 1412.32 132.502 1412.32 131.307C1412.32 130.111 1412.12 129.063 1411.69 128.196C1411.28 127.336 1410.69 126.665 1409.94 126.201C1409.19 125.731 1408.3 125.502 1407.27 125.502C1406.23 125.502 1405.37 125.738 1404.61 126.201C1403.85 126.671 1403.26 127.336 1402.84 128.196C1402.42 129.063 1402.21 130.097 1402.21 131.307C1402.21 132.516 1402.42 133.53 1402.84 134.403C1403.26 135.277 1403.85 135.949 1404.61 136.425C1405.37 136.902 1406.25 137.138 1407.27 137.138Z" fill="var(--fill-0, #0740A5)"/>
<path d="M1432.95 139.777V122.835H1436.21L1444.01 134.524V122.835H1447.27V139.777H1444.01L1436.21 128.109V139.777H1432.95Z" fill="var(--fill-0, #0740A5)"/>
<path d="M1465.11 122.835H1470.78C1472.74 122.835 1474.37 123.185 1475.65 123.89C1476.94 124.595 1477.89 125.576 1478.51 126.846C1479.13 128.115 1479.44 129.6 1479.44 131.313C1479.44 133.026 1479.13 134.511 1478.51 135.78C1477.88 137.05 1476.94 138.031 1475.67 138.736C1474.4 139.442 1472.76 139.791 1470.78 139.791H1465.11V122.835ZM1468.38 136.969H1470.61C1472.01 136.969 1473.09 136.741 1473.89 136.291C1474.69 135.841 1475.26 135.189 1475.6 134.343C1475.94 133.496 1476.11 132.482 1476.11 131.306C1476.11 130.131 1475.94 129.09 1475.6 128.243C1475.26 127.397 1474.69 126.745 1473.89 126.295C1473.09 125.845 1472 125.616 1470.61 125.616H1468.38V136.969Z" fill="var(--fill-0, #0740A5)"/>
<path d="M1504.57 140.066C1502.92 140.066 1501.47 139.697 1500.21 138.951C1498.96 138.212 1497.97 137.178 1497.26 135.868C1496.55 134.558 1496.2 133.033 1496.2 131.307C1496.2 129.58 1496.55 128.062 1497.26 126.745C1497.96 125.429 1498.95 124.401 1500.21 123.662C1501.47 122.923 1502.93 122.547 1504.57 122.547C1506.21 122.547 1507.69 122.916 1508.95 123.662C1510.2 124.401 1511.18 125.435 1511.89 126.745C1512.59 128.055 1512.94 129.58 1512.94 131.307C1512.94 133.033 1512.59 134.551 1511.89 135.868C1511.18 137.185 1510.21 138.212 1508.95 138.951C1507.69 139.69 1506.23 140.066 1504.57 140.066ZM1504.57 137.138C1505.6 137.138 1506.49 136.902 1507.24 136.425C1507.99 135.949 1508.58 135.277 1508.99 134.403C1509.41 133.53 1509.62 132.502 1509.62 131.307C1509.62 130.111 1509.42 129.063 1508.99 128.196C1508.58 127.336 1507.99 126.665 1507.24 126.201C1506.49 125.731 1505.6 125.502 1504.57 125.502C1503.53 125.502 1502.67 125.738 1501.91 126.201C1501.15 126.671 1500.56 127.336 1500.14 128.196C1499.72 129.063 1499.51 130.097 1499.51 131.307C1499.51 132.516 1499.72 133.53 1500.14 134.403C1500.56 135.277 1501.15 135.949 1501.91 136.425C1502.67 136.902 1503.55 137.138 1504.57 137.138Z" fill="var(--fill-0, #0740A5)"/>
<path d="M1530.25 139.777V122.835H1534.14L1539.32 133.416L1544.46 122.835H1548.35V139.777H1545.09V128.404L1540.61 137.406H1538.02L1533.52 128.404V139.777H1530.25Z" fill="var(--fill-0, #0740A5)"/>
<path d="M1565.29 121.794L1565.01 119.638L1570.31 116.588L1570.7 119.081L1565.3 121.794H1565.29ZM1566.21 139.778V122.836H1569.48V139.778H1566.21Z" fill="var(--fill-0, #0740A5)"/>
<path d="M1587.32 139.777V122.835H1590.58L1598.37 134.524V122.835H1601.64V139.777H1598.37L1590.58 128.109V139.777H1587.32Z" fill="var(--fill-0, #0740A5)"/>
<path d="M1619.49 139.777V122.835H1622.75V139.777H1619.49Z" fill="var(--fill-0, #0740A5)"/>
<path d="M1648.41 140.066C1646.76 140.066 1645.31 139.697 1644.05 138.951C1642.8 138.212 1641.81 137.178 1641.1 135.868C1640.39 134.558 1640.04 133.033 1640.04 131.307C1640.04 129.58 1640.39 128.062 1641.1 126.745C1641.8 125.429 1642.79 124.401 1644.05 123.662C1645.31 122.923 1646.77 122.547 1648.41 122.547C1650.05 122.547 1651.53 122.916 1652.79 123.662C1654.04 124.401 1655.02 125.435 1655.73 126.745C1656.43 128.055 1656.78 129.58 1656.78 131.307C1656.78 133.033 1656.43 134.551 1655.73 135.868C1655.02 137.185 1654.05 138.212 1652.79 138.951C1651.53 139.69 1650.07 140.066 1648.41 140.066ZM1648.41 137.138C1649.44 137.138 1650.33 136.902 1651.08 136.425C1651.83 135.949 1652.42 135.277 1652.83 134.403C1653.25 133.53 1653.46 132.502 1653.46 131.307C1653.46 130.111 1653.26 129.063 1652.83 128.196C1652.42 127.336 1651.83 126.665 1651.08 126.201C1650.33 125.731 1649.44 125.502 1648.41 125.502C1647.37 125.502 1646.51 125.738 1645.75 126.201C1644.99 126.671 1644.4 127.336 1643.98 128.196C1643.56 129.063 1643.35 130.097 1643.35 131.307C1643.35 132.516 1643.56 133.53 1643.98 134.403C1644.4 135.277 1644.99 135.949 1645.75 136.425C1646.51 136.902 1647.39 137.138 1648.41 137.138Z" fill="var(--fill-0, #0740A5)"/>
<path d="M1679.92 140.066C1678.69 140.066 1677.6 139.858 1676.64 139.435C1675.68 139.018 1674.92 138.4 1674.36 137.594C1673.81 136.788 1673.52 135.814 1673.5 134.665H1676.96C1676.98 135.169 1677.11 135.619 1677.35 136.022C1677.6 136.425 1677.93 136.747 1678.36 136.976C1678.79 137.204 1679.3 137.325 1679.9 137.325C1680.42 137.325 1680.87 137.238 1681.24 137.07C1681.62 136.902 1681.91 136.66 1682.12 136.358C1682.33 136.049 1682.44 135.686 1682.44 135.27C1682.44 134.786 1682.32 134.383 1682.09 134.06C1681.85 133.738 1681.53 133.462 1681.12 133.241C1680.71 133.012 1680.24 132.811 1679.7 132.623C1679.15 132.435 1678.59 132.24 1677.99 132.032C1676.65 131.595 1675.63 131.017 1674.93 130.292C1674.23 129.566 1673.87 128.606 1673.87 127.41C1673.87 126.395 1674.12 125.522 1674.61 124.797C1675.1 124.071 1675.79 123.513 1676.65 123.124C1677.53 122.734 1678.52 122.539 1679.63 122.539C1680.75 122.539 1681.78 122.734 1682.65 123.131C1683.51 123.527 1684.2 124.098 1684.7 124.837C1685.21 125.583 1685.47 126.449 1685.49 127.45H1682C1681.99 127.081 1681.87 126.725 1681.67 126.395C1681.47 126.066 1681.2 125.797 1680.84 125.596C1680.48 125.394 1680.07 125.294 1679.58 125.294C1679.17 125.28 1678.78 125.341 1678.43 125.488C1678.09 125.636 1677.82 125.845 1677.62 126.127C1677.41 126.409 1677.31 126.758 1677.31 127.181C1677.31 127.605 1677.41 127.927 1677.62 128.196C1677.82 128.471 1678.09 128.706 1678.45 128.908C1678.8 129.109 1679.22 129.297 1679.7 129.465C1680.19 129.633 1680.71 129.808 1681.28 129.983C1682.12 130.272 1682.89 130.614 1683.6 131.01C1684.31 131.407 1684.88 131.917 1685.29 132.549C1685.71 133.18 1685.93 134.007 1685.93 135.041C1685.93 135.928 1685.69 136.754 1685.23 137.507C1684.76 138.266 1684.08 138.877 1683.2 139.347C1682.32 139.817 1681.23 140.046 1679.93 140.046L1679.92 140.066Z" fill="var(--fill-0, #0740A5)"/>
</g>
<g id="Vector_4">
<path d="M1834.89 0C1835.44 0.246607 1837.45 2.07324 1838.03 2.54388C1848.06 10.8192 1861.44 10.0765 1872.61 4.6611C1875.33 3.3416 1877.72 1.74672 1880.34 0.276068C1881.34 1.02402 1882.47 2.3713 1883.36 3.29703C1885.15 5.14284 1886.82 7.0828 1888.53 8.98491C1892.37 13.2581 1896.09 17.6357 1899.83 21.9958C1901.98 24.4935 1904.2 26.9467 1906.34 29.4465C1906.43 29.5494 1906.9 30.1866 1906.89 30.2209C1906.74 30.685 1905.93 31.7194 1905.67 32.0679C1903.54 34.8663 1901.42 37.7582 1899.68 40.8095C1894.47 49.9023 1891.88 60.2783 1890.85 70.639C1895.57 70.7364 1900.3 70.78 1905.03 70.7695C1905.07 71.3651 1905.08 72.0455 1905.07 72.6462C1905.03 75.9083 1905.35 79.1843 1905.42 82.4327C1905.59 89.463 1905.5 96.4971 1905.15 103.521C1904.75 113.453 1903.61 123.179 1900.5 132.668C1900.35 133.139 1900.19 133.613 1900.02 134.078C1896.07 144.461 1889 153.37 1879.79 159.585C1874.35 163.306 1868.29 165.919 1862.29 168.624C1854.34 172.212 1846.2 176.435 1839.63 182.255C1837.99 183.71 1836.63 185.478 1835.12 187.056L1834.99 187.159C1834.43 187.114 1833.37 185.611 1832.92 185.104C1830.45 182.316 1827.66 179.821 1824.61 177.671C1820.04 174.469 1814.8 171.787 1809.66 169.615C1798.91 165.074 1789.04 160.618 1780.94 151.923C1777.95 148.679 1775.37 145.078 1773.27 141.201C1767.84 131.357 1765.88 121.676 1765.09 110.56C1764.98 107.112 1764.39 103.184 1764.46 99.7518C1764.65 90.1451 1764.19 80.3047 1764.53 70.7311C1769.29 70.6368 1774.29 70.7055 1779.07 70.7027C1778.5 67.9403 1778.32 64.95 1777.8 62.185C1775.92 52.216 1772.3 42.6792 1766.2 34.5083C1765.17 33.13 1763.96 31.8125 1763.02 30.3622L1762.93 30.214C1764.04 28.611 1765.87 26.6486 1767.19 25.1698L1772.11 19.5916L1785.04 4.9911C1786.47 3.38567 1787.77 1.79818 1789.25 0.192872C1794.18 3.53553 1799.36 6.19111 1805.16 7.5744C1813.61 9.59285 1822.53 8.78308 1829.91 3.93475C1831.75 2.7234 1833.17 1.36673 1834.89 0Z" fill="#001722"/>
<path d="M1834.85 6.86885C1835.4 7.02759 1837.17 8.46127 1837.78 8.84106C1849.35 16.0042 1863.56 15.0834 1875.49 9.31816C1876.88 8.64594 1878.32 7.78057 1879.69 6.98815C1880.31 7.57371 1881.23 8.69238 1881.82 9.3718C1883.15 10.9197 1884.5 12.4574 1885.86 13.9847L1900.68 30.7184C1898.49 33.7804 1897.01 35.7742 1895.11 39.1847C1891.6 45.501 1889.18 52.5166 1887.67 59.5792C1886.51 64.9804 1885.91 70.5298 1885.44 76.0315L1900.37 76.0415C1900.43 83.0561 1900.44 90.0711 1900.41 97.0855C1900.19 112.84 1899.52 127.4 1891.14 141.233C1887.8 146.821 1883.33 151.651 1878.01 155.414C1866.05 163.911 1850.46 166.945 1839.11 176.638C1837.65 177.876 1836.33 179.13 1834.97 180.457C1834.33 180.155 1832.08 177.728 1831.28 177.043C1817.59 165.249 1798.29 163.098 1785.52 150.055C1771.49 135.728 1769.73 117.015 1769.48 98.0409C1769.41 90.7024 1769.42 83.3635 1769.51 76.0252L1784.45 76.0254C1784.18 73.1609 1783.86 70.2545 1783.6 67.3833C1783.5 66.3608 1783.13 64.871 1782.95 63.7828C1780.9 51.1221 1776.98 41.0293 1769.19 30.7495C1769.53 30.2818 1770.79 28.9371 1771.23 28.4473L1775.57 23.5397L1790.17 6.96962C1802.2 14.2743 1817.33 16.744 1830.15 9.9122C1831.93 8.96134 1833.2 7.94631 1834.85 6.86885Z" fill="#454E52"/>
<path d="M1790.64 9.49157C1792.78 10.5213 1794.78 11.5976 1797 12.4819C1806.02 16.0817 1816.66 17.0827 1825.95 13.8183C1827.89 13.1538 1829.76 12.3075 1831.54 11.2906C1832.67 10.6409 1833.83 9.84671 1834.94 9.23423C1836.74 10.3779 1838.49 11.4859 1840.44 12.4177C1848.25 16.1475 1857.07 16.5473 1865.44 14.7898C1870.9 13.6442 1874.36 11.8345 1879.2 9.48161C1880.37 10.394 1882.43 12.9117 1883.48 14.1152L1890.02 21.5399L1895.42 27.5838C1896.28 28.5662 1897.49 29.8634 1898.22 30.9139C1896.81 32.7093 1895.03 35.5565 1893.9 37.5023C1888.18 47.3307 1885.34 58.7495 1884.11 69.9823C1883.83 72.5048 1883.41 75.4024 1883.34 77.9339L1898.57 77.9202C1898.57 80.6843 1898.66 83.5655 1898.39 86.3126C1896.9 101.626 1891.94 117.088 1880.83 128.196C1879.43 129.599 1877.92 130.708 1876.51 132.03L1877.01 133.723C1876.49 133.756 1874.95 133.954 1874.65 133.558C1874.23 133.625 1872.06 135.066 1871.51 135.424C1869.68 136.595 1867.28 137.595 1865.55 138.748C1865.7 138.724 1865.85 138.702 1866 138.667C1876.8 136.108 1890.82 129.383 1896.88 119.682C1896.54 121.606 1896.21 123.645 1895.72 125.541C1893.41 134.549 1888.74 143.344 1881.93 149.768C1871.93 159.205 1858.11 162.741 1846.32 169.389C1843.67 170.909 1841.14 172.625 1838.75 174.522C1837.53 175.491 1836.17 176.786 1834.98 177.64C1834.38 177.546 1833.18 176.244 1832.65 175.787C1823.82 168.042 1812.66 164.355 1802.28 159.276C1799.68 158.002 1796.99 156.595 1794.56 154.982C1785.77 149.178 1779.14 140.637 1775.7 130.682C1774.3 126.63 1773.77 123.903 1772.93 119.74C1776.65 124.874 1780.64 128.456 1786.18 131.576C1787.16 132.129 1788.42 133.097 1789.5 133.284C1788.43 132.036 1788.51 131.45 1788.54 129.895L1790.64 129.847C1790.61 129.795 1790.59 129.743 1790.56 129.691C1789.49 128.438 1787.84 127.08 1786.77 125.836C1785.36 124.193 1783.96 122.442 1782.78 120.685C1776.84 111.83 1773.31 101.097 1772.02 90.5498C1771.83 88.9432 1771.53 87.4546 1771.43 85.8201C1771.29 83.1944 1771.34 80.5436 1771.35 77.9139C1776.34 77.9282 1781.64 77.8213 1786.58 77.9364C1785.29 63.4805 1783.27 49.7003 1775.7 36.971C1774.88 35.6054 1772.69 32.0815 1771.65 30.9099C1772.32 29.9465 1773.76 28.4078 1774.6 27.4561L1780.23 21.0977L1786.87 13.582C1787.63 12.7239 1789.89 10.014 1790.64 9.49157Z" fill="#001722"/>
<path d="M1794.27 130.52C1794.19 130.378 1793.91 129.894 1793.82 129.821C1792.29 128.597 1789.54 128.998 1788.91 126.724C1788.73 126.085 1788.66 125.48 1788.84 124.778C1789.01 124.095 1789.46 123.511 1790.07 123.162C1791.64 122.256 1795.17 122.342 1796 124.227C1796.34 124.994 1796.33 125.493 1796.31 126.295C1795.5 126.342 1794.95 126.373 1794.15 126.33C1793.95 124.276 1793.31 124.506 1791.42 124.439C1791.26 124.778 1790.84 125.61 1791.04 125.961C1792 127.605 1795.42 127.062 1796.17 129.19C1796.72 130.763 1796.54 132.274 1795.23 133.369C1793.83 133.979 1792.54 133.976 1791.03 133.866C1790.56 133.756 1789.94 133.486 1789.5 133.284C1788.43 132.036 1788.51 131.45 1788.54 129.895L1790.64 129.847L1790.7 130.001C1791.46 130.498 1793.08 132.014 1793.62 132.13C1793.84 131.616 1794.1 131.045 1794.27 130.52Z" fill="var(--fill-0, #FEE500)"/>
<path d="M1790.7 130.001C1791.46 130.498 1793.08 132.014 1793.62 132.13C1791.53 132.041 1790.88 132.3 1790.7 130.001Z" fill="#454E52"/>
<path d="M1871.54 122.665C1872.26 122.638 1872.96 122.658 1873.68 122.672C1874.09 123.673 1874.46 125.175 1874.77 126.255L1876.51 132.03L1877.01 133.723C1876.49 133.756 1874.95 133.954 1874.65 133.558C1874.52 132.925 1874.23 131.983 1874.04 131.34C1873.03 131.397 1872.14 131.372 1871.14 131.326C1870.78 132.283 1870.62 132.764 1870.37 133.751C1869.57 133.779 1869.09 133.775 1868.3 133.715C1868.59 132.321 1869.09 130.819 1869.5 129.449C1870.16 127.183 1870.85 124.921 1871.54 122.665Z" fill="var(--fill-0, #FEE500)"/>
<path d="M1872.48 125.472C1872.74 125.812 1872.64 126.311 1872.75 126.805C1872.94 127.727 1873.33 128.552 1873.48 129.479L1873.37 129.615L1872.95 129.624L1871.61 129.625C1872.05 128.056 1872.24 127.055 1872.48 125.472Z" fill="#001722"/>
<path d="M1791.03 133.866C1792.54 133.976 1793.83 133.979 1795.23 133.369C1797.01 135.144 1801.16 136.947 1803.42 138.18C1803.69 138.33 1803.74 138.383 1803.79 138.658C1802.27 138.645 1791.84 134.955 1791.03 133.866Z" fill="#454E52"/>
<path d="M1836.76 21.925C1847.02 21.6771 1855.68 23.1629 1863.72 30.0038C1868.54 34.1058 1873.02 41.9145 1873.52 48.2448C1872.13 49.0271 1870.35 49.3172 1868.83 49.7597C1866.18 50.5278 1863.58 51.2161 1860.94 52.0544C1860.27 48.1376 1859.24 44.5198 1856.46 41.4424C1852.84 37.4363 1843.91 34.6627 1838.71 34.3175C1831.6 33.846 1822.68 36.812 1817.43 41.7548C1811.48 47.3552 1808.73 58.0205 1808.27 65.9517C1807.7 75.6045 1809.43 85.6874 1816.25 92.9515C1820.27 97.2345 1827.16 100.38 1833.06 100.55C1838.07 100.508 1843.73 100.36 1848.64 99.0526C1852.46 98.0381 1859.19 95.6708 1860.95 91.8374C1861.19 91.3237 1861.11 88.914 1861.13 88.2396L1861.32 78.6996C1859.37 78.4766 1856.77 78.8744 1855 78.6461C1854.83 78.4572 1854.89 78.4286 1854.87 78.1049C1854.76 76.2398 1854.83 74.654 1854.84 72.8055L1854.91 65.851C1855.99 65.8249 1857.12 65.8221 1858.2 65.8341C1863.14 65.8891 1868.23 65.4695 1873.16 65.6373L1873.12 100.459C1871.83 102.588 1866.33 105.655 1864.07 106.87C1846.42 116.358 1820.87 118.569 1805.08 104.255C1796.3 96.3097 1792.55 83.2545 1792.05 71.7535C1791.49 55.7515 1797.38 38.6542 1811.15 29.4582C1819.73 23.6175 1826.59 22.2811 1836.76 21.925Z" fill="var(--fill-0, #FEE500)"/>
<path d="M1831.18 50.1225C1835.36 50.3345 1839.52 50.2904 1843.7 50.3012C1844.89 50.3043 1846.06 50.2545 1847.24 50.3626C1847.15 52.2692 1846.92 54.0028 1846.84 56.038C1843 56.3297 1838.71 56.016 1834.85 56.1542C1834.27 57.4284 1833.75 60.7458 1833.69 62.183C1835.2 61.7446 1836.48 61.0635 1838.06 61.1122C1848.58 61.4349 1850.42 74.6071 1843.77 80.9597C1841.04 83.5681 1838.64 84.0034 1835.11 84.0072C1829.5 83.9199 1826.47 80.654 1825.46 75.3373C1826.91 75.0405 1830.05 74.844 1831.53 74.7939C1831.93 76.5207 1832.39 78.1608 1834.21 78.8834C1836.85 79.9299 1839.79 78.8136 1840.81 76.1122C1841.58 74.067 1841.87 70.8411 1840.95 68.8043C1840.47 67.7067 1839.56 66.8499 1838.44 66.4287C1837.2 65.9752 1835.62 66.0968 1834.39 66.5013C1833.17 66.899 1832.32 68.0349 1831.16 68.5548C1829.71 68.3905 1828.11 68.1329 1826.65 67.9324C1826.75 66.7847 1827.23 64.8892 1827.5 63.6934L1829.09 56.5725C1829.32 55.5374 1830.21 50.9714 1830.47 50.3575C1830.78 50.1107 1830.72 50.1872 1831.18 50.1225Z" fill="var(--fill-0, #FEE500)"/>
<path d="M1858.47 139.2C1859.94 139.153 1861.52 139.128 1862.99 139.207C1865.7 139.353 1865.44 141.849 1865.42 143.836C1865.4 145.507 1865.5 147.128 1865.29 148.815L1864.72 149.504C1863.24 150.568 1860.35 150.25 1858.45 150.213C1858.43 146.543 1858.44 142.871 1858.47 139.2Z" fill="var(--fill-0, #FEE500)"/>
<path d="M1859.54 140.209C1860.79 140.213 1864.2 139.825 1864.22 141.6C1864.26 143.823 1864.59 146.823 1863.76 148.89C1863.75 148.927 1863.62 149.075 1863.59 149.113C1862.85 149.263 1860.37 149.198 1859.53 149.191C1859.51 146.197 1859.51 143.203 1859.54 140.209Z" fill="#001722"/>
<path d="M1828.49 122.797C1830.07 122.66 1832.01 122.672 1833.56 122.868C1835.32 123.089 1836.33 124.187 1836.32 125.955C1836.31 127.805 1836.15 128.38 1834.56 129.368C1835.03 130.718 1835.82 132.376 1836.4 133.711L1836.27 133.727C1835.72 133.791 1834.5 133.937 1834.09 133.606C1833.65 132.582 1832.72 130.561 1832.42 129.568L1830.74 129.555C1830.71 130.935 1830.72 132.394 1830.71 133.779C1829.98 133.8 1829.31 133.779 1828.58 133.755C1828.4 130.395 1828.41 126.195 1828.49 122.797Z" fill="var(--fill-0, #FEE500)"/>
<path d="M1830.73 124.617C1832.99 124.607 1835.06 124.488 1833.58 127.482C1833.27 127.95 1831.33 127.765 1830.72 127.755L1830.73 124.617Z" fill="#001722"/>
<path d="M1856.26 122.697C1856.37 122.728 1856.3 122.7 1856.44 122.837C1856.57 126.221 1856.49 130.348 1856.45 133.758C1855.9 133.781 1854.59 133.938 1854.28 133.399C1853.08 131.348 1851.69 129.21 1850.64 127.089C1850.54 129.236 1850.57 131.593 1850.56 133.765C1850.04 133.779 1849.48 133.767 1848.96 133.766C1848.6 133.693 1848.71 133.783 1848.49 133.577C1848.39 132.532 1848.45 130.891 1848.46 129.793L1848.49 122.761L1850.41 122.729C1851.8 124.909 1853.12 127.254 1854.42 129.501C1854.31 127.347 1854.37 124.969 1854.37 122.801C1854.98 122.752 1855.65 122.73 1856.26 122.697Z" fill="var(--fill-0, #FEE500)"/>
<path d="M1862.51 122.586C1864.31 122.48 1866.29 122.748 1866.78 124.832C1866.88 125.253 1866.85 125.946 1866.85 126.392C1866.09 126.425 1865.44 126.42 1864.68 126.407L1864.66 124.856C1863.71 124.597 1862.77 124.211 1861.88 124.668C1861.12 125.574 1861.52 128.988 1861.46 130.254C1861.35 132.217 1862.72 132.026 1864.18 132.029C1864.56 131.122 1864.62 130.76 1864.73 129.801C1865.51 129.77 1866.04 129.785 1866.82 129.829C1866.87 131.592 1866.97 132.563 1865.29 133.543C1864.6 133.774 1863.56 133.769 1863.02 134.24L1863.31 134.403L1863.07 134.201L1863.02 134.249L1863.35 134.423L1863.23 134.416C1863.54 134.529 1864.01 134.489 1864.35 134.486C1864.59 134.951 1864.94 135.569 1864.84 136.101C1864.59 137.57 1862.36 137.278 1861.29 137.027C1861.11 136.828 1861.15 136.842 1861.08 136.544C1861.34 135.586 1862.71 136.383 1863.36 135.854L1863.3 135.679C1862.93 135.548 1861.87 135.556 1861.42 135.543C1861.49 134.983 1861.61 134.37 1861.7 133.808C1860.58 133.596 1859.32 132.95 1859.27 131.656C1859.19 129.322 1859.08 126.818 1859.31 124.498C1859.45 123.162 1861.43 122.674 1862.51 122.586Z" fill="var(--fill-0, #FEE500)"/>
<path d="M1810.52 122.672C1812.21 122.529 1813.4 122.658 1814.78 123.67C1815.26 124.57 1815.22 125.335 1815.2 126.316C1814.51 126.346 1813.88 126.326 1813.19 126.309L1813.17 124.873C1809.64 124.032 1809.77 124.828 1809.82 128.135C1809.84 129.259 1809.79 130.336 1809.95 131.463C1810.55 131.85 1811.43 132.142 1812.11 132.087C1812.83 132.067 1813.68 130.222 1812.93 129.882C1811.73 129.337 1810.99 130.839 1811.11 128.384C1811.14 128.29 1811.2 128.159 1811.24 128.066C1811.83 127.837 1814.37 127.955 1815.17 127.972C1815.21 129.191 1815.41 131.668 1814.88 132.634C1813.74 134.452 1808.11 134.46 1807.79 131.931C1807.67 130.969 1807.55 129.623 1807.62 128.62C1807.83 125.652 1806.68 123.298 1810.52 122.672Z" fill="var(--fill-0, #FEE500)"/>
<path d="M1837 139.155C1838.52 139.109 1840.6 139.058 1842.08 139.315C1844.36 139.712 1843.96 142.648 1843.93 144.41L1841.94 145.65C1842.3 146.233 1844.11 149.737 1843.92 150.162C1843.56 150.252 1843.54 150.246 1843.16 150.202C1842.84 150.016 1842.74 149.712 1842.57 149.371C1841.88 148.147 1841.59 147.044 1840.76 145.761C1839.9 145.727 1839 145.764 1838.13 145.785C1838.14 146.43 1838.23 149.91 1838 150.205C1837.6 150.255 1837.59 150.252 1837.2 150.145C1836.95 149.815 1837.01 140.269 1837 139.155Z" fill="var(--fill-0, #FEE500)"/>
<path d="M1838.14 140.215C1839.22 140.208 1841.12 140.059 1842.05 140.551C1843.1 141.107 1842.91 143.458 1842.3 144.317C1841.19 144.922 1839.42 144.748 1838.13 144.727L1838.14 140.215Z" fill="#001722"/>
<path d="M1817.81 122.743C1818.5 122.715 1819.25 122.739 1819.95 122.746C1820.11 123.642 1820.06 125.189 1820.06 126.131C1820.03 127.984 1820.04 129.837 1820.09 131.69C1820.67 131.829 1821.28 132 1821.89 132.015C1822.35 132.027 1822.87 131.97 1823.2 131.624C1823.71 131.102 1823.5 124.088 1823.53 122.748C1824.22 122.736 1824.94 122.746 1825.63 122.745C1825.67 123.379 1825.66 124.082 1825.68 124.723C1825.66 125.886 1825.66 127.218 1825.71 128.37C1825.85 131.428 1825.96 133.859 1822.03 133.858C1817.45 133.857 1817.77 132.156 1817.78 128.43L1817.81 122.743Z" fill="var(--fill-0, #FEE500)"/>
<path d="M1841.18 122.742C1841.88 122.715 1842.65 122.735 1843.36 122.739C1843.88 124.159 1844.37 126.003 1844.82 127.475C1845.44 129.524 1846.11 131.688 1846.62 133.758C1845.92 133.784 1845.19 133.779 1844.49 133.785C1844.24 133.218 1843.88 131.708 1843.62 131.449L1840.75 131.439C1840.52 132.264 1840.34 132.912 1840.04 133.72C1839.2 133.797 1838.77 133.786 1837.94 133.728C1838.72 130.446 1840.21 126.049 1841.18 122.742Z" fill="var(--fill-0, #FEE500)"/>
<path d="M1842.18 125.276C1842.32 125.705 1842.48 126.922 1842.6 127.469C1842.73 128.07 1843.11 129.116 1843.16 129.553C1842.92 129.699 1842.64 129.647 1842.31 129.649C1842 129.655 1841.74 129.641 1841.42 129.625L1841.32 129.507C1841.78 127.69 1841.85 126.997 1842.18 125.276Z" fill="#001722"/>
<path d="M1798.91 122.746C1800.94 122.673 1803.15 122.721 1805.18 122.74L1805.18 124.568C1803.86 124.628 1802.37 124.603 1801.04 124.607C1801.03 125.472 1801.03 126.338 1801.04 127.204L1804.93 127.207C1804.97 127.858 1804.92 128.356 1804.88 129.006L1801.03 129.03L1801.03 130.202L1801.03 131.958C1802.48 131.936 1803.92 131.945 1805.36 131.988L1805.35 133.738C1803.48 133.805 1800.75 133.834 1798.89 133.728C1798.82 130.347 1798.81 126.116 1798.91 122.746Z" fill="var(--fill-0, #FEE500)"/>
<path d="M1850.51 139.107C1850.88 139.12 1851.29 139.178 1851.66 139.223C1852.29 141.624 1853.04 143.939 1853.77 146.311C1854.17 147.607 1854.65 148.929 1854.94 150.246C1854.54 150.246 1854.12 150.199 1853.73 150.166C1853.46 149.086 1853.12 148.177 1852.75 147.133L1851.41 147.137C1850.65 147.141 1849.9 147.138 1849.14 147.127C1848.84 147.968 1848.51 149.834 1847.75 150.231C1847.36 150.222 1847.52 150.285 1847.24 150.091C1847.1 149.555 1849.99 140.182 1850.51 139.107Z" fill="var(--fill-0, #FEE500)"/>
<path d="M1850.91 140.87C1850.99 141.018 1850.93 140.896 1850.98 141.059C1851.47 142.739 1852.01 144.452 1852.52 146.127L1851.01 146.119L1849.44 146.117C1849.98 144.243 1850.47 142.811 1850.91 140.87Z" fill="#001722"/>
<path d="M1871.98 139.122C1872.36 139.114 1872.51 139.115 1872.89 139.161C1873.37 139.504 1876.13 149.094 1876.43 150.241C1876.03 150.237 1875.55 150.18 1875.15 150.146C1874.96 149.148 1874.59 148.054 1874.29 147.076L1873 147.048L1870.55 147.086C1870.32 148.029 1870 148.954 1869.8 149.909C1869.72 150.301 1868.97 150.308 1868.67 150.127C1868.57 149.429 1871.5 140.256 1871.98 139.122Z" fill="var(--fill-0, #FEE500)"/>
<path d="M1872.43 140.937C1872.56 141.204 1872.9 142.412 1873 142.77C1873.35 143.899 1873.71 145.024 1874.08 146.147L1872.5 146.124L1870.96 146.119C1871.45 144.4 1872 142.668 1872.43 140.937Z" fill="#001722"/>
<path d="M1795.04 139.074C1795.25 139.082 1795.46 139.083 1795.66 139.153C1796.46 139.432 1800.27 146.711 1800.86 147.867C1800.86 146.799 1800.77 139.597 1801.01 139.162C1801.42 139.118 1801.48 139.128 1801.88 139.238C1802.13 139.662 1802.03 149.028 1801.98 150.247C1801.58 150.25 1801.03 150.33 1800.8 149.935C1800.3 149.078 1799.82 148.214 1799.33 147.351C1798.25 145.407 1797.15 143.478 1796.02 141.562C1796.02 142.965 1796.22 149.23 1795.87 150.022C1795.77 150.24 1795.67 150.27 1795.45 150.351C1795.23 150.311 1795.31 150.328 1795.12 150.163C1794.79 149.133 1794.95 140.763 1795.04 139.074Z" fill="var(--fill-0, #FEE500)"/>
<path d="M1829 139.049C1830.8 138.924 1831.91 139.156 1832.87 140.754C1832.91 141.366 1833.14 143.163 1831.86 142.332C1831.69 142.071 1831.69 142.046 1831.7 141.736L1831.73 140.662C1831.26 140.547 1830.8 140.436 1830.33 140.329C1829.35 140.108 1828.52 140.004 1827.64 140.563C1826.97 141.517 1827.23 147.262 1827.26 148.809C1828.37 149.073 1831.33 150.049 1831.68 148.1C1831.75 147.705 1831.81 146.26 1831.61 145.952L1831.24 145.924C1830.56 145.909 1829.78 146.154 1829.32 145.65C1829.25 145.349 1829.22 145.331 1829.31 145.028C1829.81 144.779 1832.18 144.903 1832.89 144.918C1832.91 146.047 1833.09 148.205 1832.6 149.12C1831.59 150.854 1826.13 150.98 1826.07 148.404C1826.04 147.256 1825.89 145.912 1825.98 144.747C1826.21 141.598 1824.96 139.434 1829 139.049Z" fill="var(--fill-0, #FEE500)"/>
<path d="M1816.02 139.202C1816.85 139.195 1821.56 139.033 1821.95 139.346C1822 139.72 1822 139.715 1821.94 140.09C1821.51 140.407 1817.92 140.238 1817.21 140.23C1817.18 141.484 1817.18 142.739 1817.21 143.992C1818.28 144.006 1820.24 143.969 1821.38 144.027C1821.58 144.037 1821.79 144.349 1821.87 144.599C1821.49 145.349 1818.12 144.54 1817.3 145.023C1817.2 145.086 1817.22 145.33 1817.21 145.495L1817.21 149.182C1818.73 149.188 1820.43 149.12 1821.94 149.218C1822.06 149.227 1822.03 149.247 1822.12 149.378C1822.14 149.668 1822.19 149.901 1822.09 150.168C1821.37 150.348 1816.99 150.231 1816.02 150.218C1815.98 146.547 1815.99 142.875 1816.02 139.202Z" fill="var(--fill-0, #FEE500)"/>
<path d="M1805.61 139.152C1806.83 139.143 1811.57 139.04 1812.45 139.24C1812.67 139.548 1812.66 139.764 1812.49 140.091C1812.18 140.302 1810.04 140.209 1809.54 140.205C1809.5 142.591 1809.53 145.057 1809.53 147.45C1809.54 148.338 1809.74 149.697 1808.62 149.957L1808.5 149.833C1808.34 149.043 1808.38 147.127 1808.38 146.243L1808.38 140.22C1807.59 140.225 1805.94 140.389 1805.42 139.975C1805.28 139.699 1805.34 139.572 1805.4 139.265L1805.61 139.152Z" fill="var(--fill-0, #FEE500)"/>
<path d="M1789.32 139.116C1789.73 139.113 1790.06 139.051 1790.34 139.364C1790.45 140.314 1790.41 143.195 1790.39 144.248C1790.35 146.016 1790.48 148.553 1790.35 150.241C1789.93 150.249 1789.8 150.27 1789.4 150.159C1789.14 149.763 1789.21 140.481 1789.32 139.116Z" fill="var(--fill-0, #FEE500)"/>
</g>
<g id="Vector_5">
<path d="M2028.73 63.7474C2029.15 63.7619 2029.61 63.7903 2029.99 63.978C2031.98 64.9438 2037.24 78.9492 2038.41 81.7317C2039.79 78.3756 2041.24 75.042 2042.66 71.703C2043.58 69.5509 2044.4 67.1007 2045.71 65.158C2046.1 64.5758 2046.58 63.9718 2047.31 63.867C2047.86 63.7882 2048.41 64.0403 2048.82 64.3938C2050.33 65.7008 2059.21 87.9831 2060.36 91.3687C2060.69 92.3316 2061.02 93.4401 2061.02 94.4672C2061.03 95.5024 2060.5 96.6414 2059.75 97.3468C2057.77 99.2036 2054.17 98.7317 2051.69 98.6995L2051.68 102.993L2051.68 103.265C2051.69 107.625 2049.35 107.919 2045.72 107.744C2042.27 105.647 2043.21 102.322 2043.26 98.6978L2033.61 98.7046C2033.59 100.733 2033.75 102.418 2033.55 104.588C2033.2 108.151 2028.46 108.727 2026.29 106.791C2024.68 105.362 2025.14 100.96 2025.19 98.6995C2024.26 98.7161 2023.33 98.7267 2022.4 98.7307C2020.48 98.7361 2018.36 98.6608 2016.95 97.1548C2016.05 96.1895 2015.74 95.0804 2015.83 93.7854C2015.98 91.5797 2025.58 68.4913 2027.09 65.6811C2027.52 64.8685 2028.02 64.326 2028.73 63.7474ZM2039.84 85.1181C2041.17 88.3446 2043.57 92.7384 2042.69 96.0179L2045.98 96.0008C2045.91 98.2859 2045.43 103.174 2046.49 104.877C2047.46 105.498 2048.96 105.38 2048.99 104.046L2049.02 96.024C2050.95 96.0455 2056.66 96.5056 2058.11 95.2249C2058.42 94.9562 2058.29 94.8065 2058.29 94.3742C2058.28 93.7896 2057.79 92.0486 2057.6 91.6091C2056.55 89.0956 2048.16 67.8798 2047.5 67.2479L2039.84 85.1181ZM2038.34 88.7871C2037.51 90.9452 2034.98 95.1055 2038.26 95.9901C2038.39 96.0242 2038.52 96.056 2038.65 96.0855C2039.24 95.7997 2039.89 95.5237 2040.12 94.8338C2040.56 93.5352 2039.17 89.7494 2038.34 88.7871ZM2034.19 96.0132C2033.34 92.3186 2035.57 88.7542 2036.94 85.1077C2036.16 83.2438 2029.8 67.7779 2029.2 67.2627L2022.37 83.8805C2021.42 86.2076 2018.24 92.9454 2018.69 95.0332C2020.18 96.5788 2025.66 96.0288 2027.85 96.0086L2027.87 104.43C2028.37 105.268 2028.86 105.312 2029.86 105.209C2031.72 103.97 2030.92 98.3061 2030.93 96.02L2034.19 96.0132Z" fill="var(--fill-0, #00577A)"/>
<path d="M2361.39 59.6602C2381.37 59.8436 2384.67 68.2862 2384.46 86.8768C2384.31 99.8273 2382.87 109.504 2367.82 111.66C2362.82 112.749 2350.36 111.393 2345.18 110.634L2345.18 61.0849C2350.48 60.012 2356 59.7766 2361.39 59.6602ZM2355.54 103.155C2360.85 103.795 2365.7 104.047 2370.32 100.904C2374.14 97.1493 2374.04 91.9867 2374.1 86.9951C2374.23 75.7017 2373.81 68.0786 2360.35 68.1496C2359.17 68.1671 2357.98 68.2104 2356.8 68.2799L2355.68 68.4951C2355.25 69.4899 2355.53 99.3657 2355.54 103.155Z" fill="var(--fill-0, #00577A)"/>
<path d="M2274.84 59.664C2282.53 59.7255 2291.82 60.3386 2294.66 69.0384C2296.14 73.56 2296.02 80.0616 2293.9 84.3956C2292.15 87.981 2289.41 89.6755 2285.75 90.9172C2289.7 97.689 2293.58 104.66 2297.46 111.484C2293.48 111.506 2289.49 111.506 2285.5 111.485C2283.74 108.167 2281.95 104.863 2280.13 101.572C2278.41 98.4247 2276.71 95.2666 2275.03 92.0973C2272.96 92.0819 2270.78 91.9696 2268.7 91.8898L2268.71 111.472C2265.4 111.569 2261.68 111.496 2258.34 111.501L2258.33 61.0057C2264.52 60.0445 2268.66 59.7718 2274.84 59.664ZM2268.71 68.0978C2268.69 73.0784 2268.55 78.7685 2268.73 83.7228C2272.59 83.8561 2277.98 84.2825 2281.5 82.9172C2287.4 79.4529 2286.8 69.5667 2279.8 68.1018C2277.8 67.6832 2273.85 67.5183 2271.84 67.8659L2268.71 68.0978Z" fill="var(--fill-0, #00577A)"/>
<path d="M2021.94 42.2192C2023.95 42.5041 2026.2 42.3481 2028.28 42.5618C2032.74 43.0192 2040.61 44.7882 2044.12 47.6065C2029.7 45.391 2015.29 51.7107 2007.15 63.8247C2000.67 73.4756 1999.01 85.5807 2002.65 96.6214C2007.24 110.521 2019.47 120.502 2034 122.213C2027.05 124.897 2017.77 123.271 2010.86 121.398L2010.46 121.165C2006.25 119.619 2002.32 117.382 1998.84 114.547C1990.54 107.819 1985.24 98.08 1984.1 87.4579C1982.56 71.7664 1989.54 56.6772 2003.12 48.3845C2006.6 46.2586 2012.58 43.5388 2016.69 43.1579C2018.28 42.6814 2021.12 42.6837 2021.94 42.2192Z" fill="#02B257"/>
<path d="M2002.65 96.6214C2007.24 110.521 2019.47 120.502 2034 122.213C2027.05 124.897 2017.77 123.271 2010.86 121.398L2010.46 121.165C2010.28 120.844 2009.67 119.94 2009.41 119.599C2005.71 114.731 2001.43 102.7 2002.65 96.6214Z" fill="#00899A"/>
<path d="M2021.94 42.2192C2023.95 42.5041 2026.2 42.3481 2028.28 42.5618C2032.74 43.0192 2040.61 44.7882 2044.12 47.6065C2029.7 45.391 2015.29 51.7107 2007.15 63.8247C2008.58 55.8748 2014.68 48.6755 2020.1 43.4256C2020.47 43.0665 2020.58 43.1301 2021.08 42.9827C2020.26 42.9139 2017.81 43.1442 2016.69 43.1579C2018.28 42.6814 2021.12 42.6837 2021.94 42.2192Z" fill="#00753D"/>
<path d="M2187.42 59.8023C2193.97 59.1643 2196.1 62.023 2198.14 67.962C2199.54 72.058 2200.91 76.2191 2202.29 80.3297L2212.71 111.451C2209.19 111.567 2205.25 111.492 2201.69 111.493C2200.36 107.258 2199.07 103.011 2197.82 98.7519L2180.25 98.7509C2179 103 2177.72 107.242 2176.41 111.476C2172.84 111.517 2169.28 111.512 2165.71 111.462L2176.34 80.3093C2177.82 75.9656 2179.25 71.5969 2180.78 67.2702C2182.13 63.4166 2183.42 61.0681 2187.42 59.8023ZM2182.67 90.7829L2189.01 90.7492L2195.33 90.7709C2194.55 88.2189 2189.56 71.026 2188.86 70.0266C2187 76.9365 2184.66 83.8915 2182.67 90.7829Z" fill="var(--fill-0, #00577A)"/>
<path d="M2072.58 69.0222C2076.77 72.5785 2080.87 80.7268 2082.22 86.0157C2082.45 86.9161 2083.07 90.4834 2083.35 90.9006L2083.19 91.3754C2085.03 99.8993 2081.82 111.265 2077.14 118.535C2071.29 127.623 2062.07 134.008 2051.5 136.278C2041.01 138.5 2030.07 136.523 2021.03 130.771C2017.56 128.524 2013.22 124.839 2010.86 121.398C2017.77 123.271 2027.05 124.897 2034 122.213C2046.23 123.652 2058.39 119.023 2066.56 109.817C2076.5 98.6243 2078.86 82.6083 2072.58 69.0222Z" fill="#00AAD1"/>
<path d="M2072.58 69.0222C2076.77 72.5785 2080.87 80.7268 2082.22 86.0157C2082.45 86.9161 2083.07 90.4834 2083.35 90.9006L2083.19 91.3754C2079.88 98.1173 2076.3 103.07 2070.14 107.613C2069.27 108.253 2067.5 109.467 2066.56 109.817C2076.5 98.6243 2078.86 82.6083 2072.58 69.0222Z" fill="#8C6C18"/>
<path d="M2317.97 60.0737C2320.48 59.7602 2332.63 60.2235 2335.57 60.4412V68.432C2330 68.5594 2323.77 68.1153 2318.25 68.6825C2317.43 68.7663 2315.95 69.4176 2315.42 69.9877C2313.74 71.7824 2314.22 78.6476 2314.23 81.2705L2334.63 81.2509C2334.57 83.9896 2334.57 86.7292 2334.62 89.4678L2314.24 89.4687C2314.21 93.1223 2313.33 100.09 2316.26 102.412C2319.44 103.662 2331.49 103.19 2335.57 103.172V111.201C2328.33 111.766 2319.53 111.991 2312.47 110.919C2305.17 109.335 2303.85 104.266 2303.87 97.829C2303.89 89.5695 2303.84 81.6611 2303.88 73.5202C2303.92 62.8948 2308.1 60.7642 2317.97 60.0737Z" fill="var(--fill-0, #00577A)"/>
<path d="M2021.94 42.2192C2029.92 35.9797 2040.98 33.4857 2050.96 34.7207C2061.68 36.0431 2071.41 41.5906 2078.01 50.1295C2084.71 58.7425 2087.67 69.6783 2086.23 80.4906C2085.77 84.0787 2084.8 87.5832 2083.35 90.9006C2083.07 90.4834 2082.45 86.9161 2082.22 86.0157C2080.87 80.7268 2076.77 72.5785 2072.58 69.0222C2067.28 57.5639 2056.6 49.5227 2044.12 47.6065C2040.61 44.7882 2032.74 43.0192 2028.28 42.5618C2026.2 42.3481 2023.95 42.5041 2021.94 42.2192Z" fill="#E89A0C"/>
<path d="M2131.3 60.179L2141.97 60.1906C2141.32 62.6905 2139.9 66.6598 2139.07 69.2233L2130.85 94.514C2129.46 98.7839 2128.1 103.689 2126.29 107.737C2123.58 113.387 2115.14 113.624 2112.65 107.609C2110.52 102.471 2108.93 97.061 2107.2 91.7635L2096.89 60.1982L2107.96 60.1864C2111.83 73.1763 2115.98 86.9401 2119.58 99.9741C2123.22 86.7374 2127.56 73.4345 2131.3 60.179Z" fill="var(--fill-0, #00577A)"/>
<path d="M2237.24 59.6606C2242.6 59.7373 2245.71 59.983 2250.95 61.1835C2250.57 63.7499 2250.29 66.6004 2249.99 69.1999C2226.62 65.5356 2225.79 72.6651 2227.24 93.9471C2228.04 105.612 2241.83 103.684 2249.99 102.422L2250.6 107.716C2250.72 108.63 2250.83 109.542 2250.96 110.454C2242.99 112.617 2228.61 113.468 2222.11 107.494C2217.8 103.529 2216.43 95.6932 2216.38 89.8896C2216.3 81.8791 2215.76 71.0951 2221.55 64.6792C2225.73 60.2892 2231.63 59.8299 2237.24 59.6606Z" fill="var(--fill-0, #00577A)"/>
<path d="M2393.47 60.1931L2403.89 60.1896L2403.87 111.495L2393.46 111.471L2393.47 60.1931Z" fill="var(--fill-0, #00577A)"/>
<path d="M2148.75 60.1875L2159.18 60.183C2158.88 76.9327 2159.19 94.6386 2159.14 111.464C2155.9 111.581 2152.05 111.489 2148.76 111.489L2148.75 60.1875Z" fill="var(--fill-0, #00577A)"/>
<path d="M2243.06 137.331C2250.19 136.45 2253.12 138.371 2252.63 145.954C2252.47 148.443 2252.27 150.038 2250.34 151.791C2247.57 153.086 2244.39 152.631 2241.44 152.342C2241.42 148.392 2241.18 141.536 2241.5 137.814C2241.87 137.385 2242.36 137.444 2243.06 137.331ZM2243.53 150.877C2245.81 150.98 2247.57 151.235 2249.51 149.823C2250.58 148.097 2250.45 147.508 2250.53 145.575C2250.77 139.467 2249.16 138.655 2243.51 139.016L2243.53 150.877Z" fill="var(--fill-0, #00577A)"/>
<path d="M2313.01 137.312C2313.74 137.268 2314.48 137.232 2315.22 137.203C2321.34 136.972 2322.86 139.434 2322.71 145.346C2322.65 147.82 2322.44 149.865 2320.59 151.65C2317.87 153.14 2314.48 152.637 2311.5 152.338C2311.52 148.045 2311.25 141.933 2311.56 137.811C2311.86 137.388 2312.35 137.435 2313.01 137.312ZM2313.6 150.854C2315.99 151.001 2317.55 151.239 2319.59 149.825C2320.48 148.347 2320.52 147.747 2320.6 146.041C2320.89 139.744 2319.6 138.644 2313.58 139.015L2313.6 150.854Z" fill="var(--fill-0, #00577A)"/>
<path d="M2112.49 137.29C2115.49 137.089 2118.49 137.137 2119.65 140.668C2120.51 143.279 2120.4 147.385 2119.27 149.935C2118.56 151.538 2117.73 151.972 2116.16 152.528C2113.14 152.89 2109.46 152.513 2108.7 148.784C2107.89 144.854 2107.64 138.586 2112.49 137.29ZM2115.77 150.809C2116.87 150.189 2117.4 149.686 2117.69 148.405C2118.32 145.603 2118.9 140.03 2115.27 139.002C2114.68 138.833 2113.35 138.963 2112.73 139.015C2110.53 140.256 2110.45 142.244 2110.37 144.573C2110.23 148.632 2111.08 151.546 2115.77 150.809Z" fill="var(--fill-0, #00577A)"/>
<path d="M2126.89 137.322C2132.78 136.852 2134.83 138.604 2134.87 144.723C2134.88 148.016 2134.48 151.218 2131.03 152.473C2128.11 152.938 2124.77 152.692 2123.61 149.409C2122.67 146.75 2122.73 142.566 2123.86 139.934C2124.54 138.352 2125.37 137.889 2126.89 137.322ZM2130.44 150.812C2131.45 150.267 2132.01 149.813 2132.31 148.63C2133.04 145.786 2133.65 139.936 2129.87 138.972C2129.37 138.844 2128.01 138.971 2127.46 139.016C2125.12 140.22 2125.11 142.511 2125.04 144.913C2124.94 148.757 2125.95 151.591 2130.44 150.812Z" fill="var(--fill-0, #00577A)"/>
<path d="M2346.56 137.313C2348.14 137.193 2349.77 137.009 2351.3 137.668C2355.39 139.426 2354.98 146.499 2353.63 149.903C2353.04 151.395 2352.1 151.963 2350.65 152.488C2342.03 153.578 2341.62 146.798 2343.48 140.009C2343.87 138.56 2345.23 137.813 2346.56 137.313ZM2350.09 150.822C2352.24 149.597 2352.41 147.508 2352.44 145.223C2352.51 140.8 2351.81 138.616 2347.06 139.019C2344.86 140.259 2344.77 142.309 2344.69 144.65C2344.57 148.552 2345.44 151.597 2350.09 150.822Z" fill="var(--fill-0, #00577A)"/>
<path d="M2165.22 137.328C2167.05 137.082 2169.88 136.973 2171.58 137.742C2172.74 138.258 2173.63 139.248 2174.01 140.462C2174.91 143.287 2173.26 145.447 2170.62 146.244L2174.22 152.498C2172.24 152.555 2172.07 152.892 2171.09 151.222L2168.48 146.433L2165.6 146.305L2165.59 151.839C2165.11 152.631 2164.33 152.736 2163.62 152.187C2163.39 150.083 2163.39 139.935 2163.59 137.791C2164.11 137.373 2164.48 137.44 2165.22 137.328ZM2165.61 144.693C2167.28 144.807 2168.55 144.871 2170.21 144.565C2171.14 144.085 2171.67 143.677 2172.02 142.638C2172.25 141.991 2172.19 141.279 2171.86 140.677C2170.91 138.893 2169.45 138.753 2167.64 138.831C2166.6 138.903 2166.45 138.729 2165.79 139.298C2165.24 140.704 2165.62 142.952 2165.61 144.693Z" fill="var(--fill-0, #00577A)"/>
<path d="M2287.5 137.343C2297.47 135.494 2299.14 144.283 2292.91 146.26C2294.1 148.257 2295.23 150.281 2296.31 152.332C2295.83 152.677 2295.04 152.483 2294.45 152.467C2293.93 152.45 2293.56 151.557 2293.26 151.045L2290.77 146.434L2287.89 146.319C2287.84 148.127 2287.93 149.911 2287.92 151.713C2287.91 152.599 2286.61 152.711 2285.94 152.18C2285.68 149.929 2285.72 140.106 2285.89 137.749C2286.32 137.41 2286.89 137.432 2287.5 137.343ZM2287.89 144.717C2289.77 144.806 2290.62 144.827 2292.52 144.568C2296.03 142.567 2294.55 138.695 2289.99 138.833C2288.99 138.894 2288.8 138.735 2288.11 139.255C2287.45 140.693 2287.9 142.891 2287.89 144.717Z" fill="var(--fill-0, #00577A)"/>
<path d="M2139.9 137.344C2142.14 136.983 2145.63 136.872 2147.37 138.519C2149.12 140.164 2149.37 143.348 2147.63 145.084C2145.83 146.884 2142.87 146.534 2140.54 146.497L2140.27 146.591C2139.97 147.728 2140.39 150.643 2140.09 152.351C2139.58 152.65 2139.67 152.538 2138.95 152.467C2137.52 151.287 2138.15 147.687 2138.17 145.914C2138.18 144.299 2137.82 138.377 2138.5 137.477L2139.9 137.344ZM2140.18 139.018L2140.2 144.817C2141.63 144.843 2143.2 144.91 2144.61 144.805C2147.39 143.473 2147.64 140.512 2144.65 139.019C2144.41 138.902 2142.82 138.836 2142.45 138.83C2142 138.867 2140.56 138.951 2140.18 139.018Z" fill="var(--fill-0, #00577A)"/>
<path d="M2182.48 137.226C2182.98 137.216 2183.64 137.146 2184.08 137.417C2185.22 138.112 2189.11 150.206 2189.53 152.163L2189.32 152.422C2186.77 152.488 2186.83 150.421 2186.2 148.312L2184.04 148.265L2180.16 148.231C2179.51 150.165 2179.56 152.766 2176.99 152.429L2176.88 152.157C2177.33 150.075 2181.27 138.481 2182.48 137.226ZM2183.41 146.711L2185.64 146.68C2185.21 145.381 2183.64 140.321 2183.08 139.475C2182.28 141.881 2181.49 144.291 2180.71 146.706L2183.41 146.711Z" fill="var(--fill-0, #00577A)"/>
<path d="M2225.65 137.209C2228.23 137.147 2228.24 138.969 2229.01 141.088C2229.8 143.265 2230.43 145.496 2231.26 147.666C2231.67 148.764 2232.81 151.262 2232.51 152.29C2231.86 152.721 2232.15 152.612 2231.36 152.646C2229.72 151.805 2230.45 150.3 2229.35 148.434C2228.81 148.148 2227.82 148.255 2227.17 148.267L2223.3 148.228C2222.8 149.74 2222.68 151.612 2221.42 152.361C2220.76 152.464 2220.71 152.496 2220.09 152.294C2219.87 150.852 2223.89 141.427 2224.41 139.358C2224.58 138.651 2225.13 137.75 2225.65 137.209ZM2226.21 146.71L2228.76 146.677C2228.4 145.541 2226.73 140.098 2226.22 139.461L2223.87 146.711L2226.21 146.71Z" fill="var(--fill-0, #00577A)"/>
<path d="M2155.21 137.33C2156.32 137.214 2159.24 137.22 2160.2 137.642C2160.36 138.167 2160.31 138.258 2160.2 138.782C2155.73 140.566 2153.45 135.606 2153.61 143.996C2155.39 143.998 2158.07 143.788 2159.72 144.055C2160.08 144.441 2159.96 144.39 2159.97 145.106C2158.96 146.034 2155.13 145.666 2153.59 145.636L2153.64 149.854C2155.27 151.909 2159.74 149.788 2160.42 151.78L2160.14 152.315C2151.74 153.454 2151.11 151.991 2151.45 143.827C2151.61 140.066 2150.7 137.894 2155.21 137.33Z" fill="var(--fill-0, #00577A)"/>
<path d="M2303.32 137.344C2304.71 137.292 2306.72 137.086 2307.94 137.612C2308.38 138.17 2308.28 137.896 2308.24 138.697C2306.28 139.678 2303.72 138.557 2302.23 139.507C2301.28 140.723 2301.56 142.414 2301.6 143.997C2303.39 143.982 2306.58 143.742 2308.07 144.544L2308.13 145.043C2306.88 145.904 2303.13 145.661 2301.58 145.636C2301.57 147.239 2301.56 148.529 2301.72 150.136C2303.44 151.439 2306.02 150.494 2308.29 151.108L2308.56 151.671C2306.91 153.132 2299.32 153.448 2299.57 149.492C2299.77 146.277 2298.72 141.457 2300.17 138.418C2300.57 137.588 2302.54 137.422 2303.32 137.344Z" fill="var(--fill-0, #00577A)"/>
<path d="M2259.65 137.334C2261.01 137.276 2263.23 137.165 2264.5 137.583C2264.89 138.072 2264.76 137.91 2264.69 138.752C2259.78 140.512 2257.91 135.907 2258 143.99C2259.83 143.99 2262.96 143.745 2264.5 144.534L2264.56 145.053C2263.3 145.874 2259.56 145.658 2258.01 145.64L2258.05 149.686C2259.42 151.9 2262.56 150.185 2264.43 151.1C2264.85 151.692 2264.74 151.42 2264.76 152.184L2264.5 152.418C2256.52 152.814 2255.6 152.951 2255.88 144.353C2256 140.47 2254.95 137.901 2259.65 137.334Z" fill="var(--fill-0, #00577A)"/>
<path d="M2217.66 137.386C2218.38 137.32 2218.87 137.196 2219.52 137.473C2219.7 138.194 2219.35 138.77 2219.09 139.593C2218.39 141.613 2215.62 151.18 2214.5 152.21C2214.1 152.578 2213.84 152.551 2213.33 152.523C2211.91 151.738 2211.44 149.942 2210.97 148.494C2209.79 144.891 2208.59 141.293 2207.44 137.68L2207.67 137.339C2208.4 137.32 2208.83 137.235 2209.48 137.567C2210.48 139.656 2212.81 147.731 2213.6 150.251L2217.66 137.386Z" fill="var(--fill-0, #00577A)"/>
<path d="M2277.84 137.291C2279.27 137.131 2282 137.059 2283.24 137.831L2283.32 138.324C2282.92 138.935 2282.17 139.37 2281.47 139.213C2275.93 137.964 2275.54 141.274 2275.58 145.772C2275.62 149.977 2277.05 151.022 2281.06 150.902C2281.99 150.744 2282.77 150.517 2283.24 151.49L2283.08 151.824C2281.6 153.096 2277.93 152.953 2276.22 151.984C2272.59 149.929 2272.86 142.495 2274.62 139.337C2275.35 138.031 2276.44 137.616 2277.84 137.291Z" fill="var(--fill-0, #00577A)"/>
<path d="M2100.94 137.293C2102.17 137.164 2105.2 137.016 2106.19 137.709C2106.23 137.899 2106.21 138.905 2106.09 138.927C2104.04 139.274 2101.44 138.522 2099.75 140.218C2098.02 141.946 2098.53 148.159 2099.96 149.93C2100.72 150.87 2102.96 150.938 2104.18 150.904C2105.28 150.723 2105.6 150.526 2106.45 151.292L2106.35 151.704C2104.99 153.088 2101.24 152.957 2099.54 152.06C2095.8 150.08 2096.09 142.792 2097.69 139.543C2098.39 138.138 2099.49 137.69 2100.94 137.293Z" fill="var(--fill-0, #00577A)"/>
<path d="M2330.75 137.323C2333.23 137.402 2335.73 137.256 2338.21 137.321C2339.23 137.348 2340.53 137.316 2340.93 138.381L2340.7 138.842C2339.69 139.132 2337.93 139.034 2336.82 139.024L2336.81 148.318C2336.83 149.338 2337.02 151.732 2336.5 152.465C2335.85 152.481 2335.42 152.555 2334.83 152.281C2334.54 150.175 2334.73 141.624 2334.74 139.048C2333.66 139.042 2331.85 139.241 2331.03 138.842C2330.62 138.257 2330.75 138.134 2330.75 137.323Z" fill="var(--fill-0, #00577A)"/>
<path d="M2189.96 137.339C2192.41 137.398 2194.88 137.277 2197.32 137.326C2198.35 137.347 2199.66 137.296 2200.05 138.386L2199.83 138.841C2198.82 139.134 2197.05 139.028 2195.94 139.014L2195.92 148.318C2195.92 149.186 2196.06 151.854 2195.74 152.412C2194.92 152.427 2194.79 152.454 2194.02 152.248C2193.66 151.169 2193.85 140.929 2193.87 139.039C2192.62 139.019 2191.1 139.299 2190.06 138.781C2189.75 138.125 2189.88 138.195 2189.96 137.339Z" fill="var(--fill-0, #00577A)"/>
<path d="M2202.6 137.308C2203.15 137.295 2204.25 137.219 2204.6 137.592C2204.81 140.402 2204.75 149.674 2204.56 152.551C2203.82 152.538 2203.27 152.606 2202.62 152.273C2202.18 148.64 2202.46 141.128 2202.6 137.308Z" fill="var(--fill-0, #00577A)"/>
<path d="M2326.09 137.337L2328.17 137.381L2328.13 152.494C2327.36 152.513 2326.88 152.582 2326.14 152.334C2325.86 149.988 2326.06 140.034 2326.09 137.337Z" fill="var(--fill-0, #00577A)"/>
<path d="M2305.09 133.313L2307.36 133.339C2306.5 134.189 2305.56 135.025 2304.67 135.841C2304.22 136.008 2303.91 135.99 2303.43 136.011L2303.27 135.782C2303.59 134.944 2304.48 134.026 2305.09 133.313Z" fill="var(--fill-0, #00577A)"/>
</g>
</g>
</svg>
