<svg width="301.19" height="63.6128" viewBox="0 0 301.19 63.6128" fill="none" xmlns="http://www.w3.org/2000/svg">
<g id="Vector">
<path fill-rule="evenodd" clip-rule="evenodd" d="M10.6014 0L0 10.6014V38.6213C0 52.4239 11.1889 63.6128 24.9915 63.6128H28.0199C41.8225 63.6128 53.0114 52.4239 53.0114 38.6213V10.6014H42.41V0H10.6014ZM10.6014 10.6014H42.4057V37.105C42.4057 45.8876 35.2862 53.0071 26.5035 53.0071C17.7209 53.0071 10.6014 45.8876 10.6014 37.105V10.6014Z" fill="#47D154"/>
<path d="M89.2135 50.3632C85.8352 50.3632 82.8846 49.5942 80.3574 48.0563C77.8344 46.5184 75.8688 44.3843 74.4734 41.6497C73.0737 38.8848 72.3739 35.6707 72.3739 32.0159C72.3739 28.3612 73.091 25.0822 74.521 22.2829C75.9898 19.4489 78.0548 17.2457 80.7159 15.6732C83.4116 14.0661 86.5998 13.2669 90.2849 13.2669C94.4796 13.2669 97.9616 14.2735 100.726 16.2909C103.491 18.3084 105.28 21.0905 106.101 24.6416H98.7824C98.2381 22.9697 97.2445 21.6694 95.8145 20.7492C94.3803 19.7945 92.5399 19.315 90.2892 19.315C86.7078 19.315 83.943 20.4598 81.999 22.7494C80.055 25.0045 79.0829 28.1106 79.0829 32.0764C79.0829 36.0422 80.0377 39.1138 81.9515 41.2997C83.8955 43.4511 86.5221 44.5268 89.8312 44.5268C93.1404 44.5268 95.5121 43.6542 97.1494 41.9132C98.8213 40.1376 99.8279 37.8135 100.169 34.9449H91.11V30.0244H106.77V49.7498H100.731L100.217 45.0366C99.0546 46.743 97.6073 48.0606 95.8664 48.9808C94.1254 49.901 91.9092 50.3632 89.2135 50.3632Z" fill="var(--fill-0, black)"/>
<path d="M123.117 50.3632C120.728 50.3632 118.598 49.7843 116.719 48.6222C114.844 47.4601 113.358 45.8747 112.265 43.8572C111.172 41.8397 110.628 39.5544 110.628 36.9926C110.628 34.4308 111.172 32.1585 112.265 30.1799C113.358 28.1624 114.84 26.5943 116.719 25.4667C118.594 24.3046 120.728 23.7257 123.117 23.7257C125.027 23.7257 126.699 24.0843 128.133 24.8014C129.567 25.5186 130.725 26.5251 131.611 27.8255L131.969 24.3392H138.16V49.7541H132.021L131.611 46.1166C130.794 47.2441 129.701 48.2334 128.336 49.0888C127.005 49.9442 125.264 50.3719 123.117 50.3719V50.3632ZM124.5 44.6262C126.617 44.6262 128.34 43.9263 129.671 42.5266C131.036 41.0924 131.719 39.265 131.719 37.0445C131.719 34.824 131.036 33.0139 129.671 31.6142C128.34 30.1799 126.617 29.4628 124.5 29.4628C122.383 29.4628 120.694 30.1626 119.329 31.5623C117.963 32.962 117.281 34.7721 117.281 36.9926C117.281 39.2131 117.963 41.0405 119.329 42.4748C120.694 43.9091 122.417 44.6262 124.5 44.6262Z" fill="var(--fill-0, black)"/>
<path d="M142.082 49.7498V24.3349H147.919L148.532 29.0999C149.452 27.4583 150.701 26.1623 152.269 25.2075C153.872 24.2182 155.751 23.7214 157.898 23.7214V30.6378H156.053C154.619 30.6378 153.34 30.8582 152.213 31.3031C151.085 31.7481 150.2 32.5171 149.552 33.61C148.938 34.703 148.632 36.2237 148.632 38.172V49.7498H142.078H142.082Z" fill="var(--fill-0, black)"/>
<path d="M172.055 50.3632C169.666 50.3632 167.536 49.7843 165.657 48.6222C163.782 47.4601 162.296 45.8747 161.203 43.8572C160.11 41.8397 159.566 39.5544 159.566 36.9926C159.566 34.4308 160.11 32.1585 161.203 30.1799C162.296 28.1624 163.778 26.5943 165.657 25.4667C167.532 24.3046 169.666 23.7257 172.055 23.7257C173.964 23.7257 175.636 24.0843 177.07 24.8014C178.505 25.5186 179.662 26.5251 180.548 27.8255L180.907 24.3392H187.097V49.7541H180.959L180.548 46.1166C179.732 47.2441 178.639 48.2334 177.274 49.0888C175.943 49.9442 174.202 50.3719 172.055 50.3719V50.3632ZM173.437 44.6262C175.554 44.6262 177.278 43.9263 178.608 42.5266C179.974 41.0924 180.656 39.265 180.656 37.0445C180.656 34.824 179.974 33.0139 178.608 31.6142C177.278 30.1799 175.554 29.4628 173.437 29.4628C171.32 29.4628 169.631 30.1626 168.266 31.5623C166.901 32.962 166.218 34.7721 166.218 36.9926C166.218 39.2131 166.901 41.0405 168.266 42.4748C169.631 43.9091 171.355 44.6262 173.437 44.6262Z" fill="var(--fill-0, black)"/>
<path d="M191.024 49.7498V24.3349H196.809L197.319 28.6377C198.105 27.1343 199.228 25.9376 200.697 25.052C202.196 24.1621 203.954 23.7214 205.967 23.7214C209.108 23.7214 211.545 24.7107 213.285 26.6936C215.026 28.6765 215.895 31.5796 215.895 35.4029V49.7498H209.346V36.0163C209.346 33.8304 208.901 32.1585 208.015 30.9964C207.129 29.8343 205.747 29.2554 203.872 29.2554C201.997 29.2554 200.511 29.9034 199.319 31.2038C198.157 32.4998 197.578 34.3142 197.578 36.6341V49.7498H191.024Z" fill="var(--fill-0, black)"/>
<path d="M231.935 49.7498C229.274 49.7498 227.14 49.1018 225.537 47.8014C223.934 46.5054 223.131 44.1985 223.131 40.885V29.817H218.781V24.3349H223.131L229.68 17.5221V24.3349H236.54V29.817H229.68V40.9369C229.68 42.1681 229.935 43.0191 230.449 43.4986C230.993 43.9436 231.918 44.1639 233.214 44.1639H236.389V49.7498H231.935Z" fill="var(--fill-0, black)"/>
<path d="M240.886 49.7498V30.9964L247.436 24.3349V49.7498H240.886Z" fill="var(--fill-0, black)"/>
<path d="M251.099 49.7498V44.4707L264.046 29.7652H251.254V24.3349H271.52V29.614L258.365 44.3195H271.775V49.7498H251.099Z" fill="var(--fill-0, black)"/>
<path d="M286.148 50.3632C283.759 50.3632 281.629 49.7843 279.75 48.6222C277.875 47.4601 276.389 45.8747 275.296 43.8572C274.203 41.8397 273.658 39.5544 273.658 36.9926C273.658 34.4308 274.203 32.1585 275.296 30.1799C276.389 28.1624 277.87 26.5943 279.75 25.4667C281.624 24.3046 283.759 23.7257 286.148 23.7257C288.057 23.7257 289.729 24.0843 291.163 24.8014C292.597 25.5186 293.755 26.5251 294.641 27.8255L294.999 24.3392H301.19V49.7541H295.051L294.641 46.1166C293.824 47.2441 292.731 48.2334 291.366 49.0888C290.036 49.9442 288.295 50.3719 286.148 50.3719V50.3632ZM287.53 44.6262C289.647 44.6262 291.37 43.9263 292.701 42.5266C294.066 41.0924 294.749 39.265 294.749 37.0445C294.749 34.824 294.066 33.0139 292.701 31.6142C291.37 30.1799 289.647 29.4628 287.53 29.4628C285.413 29.4628 283.724 30.1626 282.359 31.5623C280.994 32.962 280.311 34.7721 280.311 36.9926C280.311 39.2131 280.994 41.0405 282.359 42.4748C283.724 43.9091 285.448 44.6262 287.53 44.6262Z" fill="var(--fill-0, black)"/>
</g>
</svg>
