<svg width="832" height="923" viewBox="0 0 832 923" fill="none" xmlns="http://www.w3.org/2000/svg">
<g id="G5-Seguranca 1 [Vectorized]">
<path id="Vector" d="M415.653 33.383C418.144 34.5103 427.373 42.8599 429.981 45.0112C475.845 82.8379 536.996 79.4429 588.061 54.6891C600.505 48.6576 611.443 41.3673 623.419 34.6449C627.984 38.0639 633.131 44.2223 637.224 48.4539C645.381 56.8911 653.025 65.7588 660.841 74.4534C678.409 93.9865 695.396 113.996 712.505 133.926C722.308 145.344 732.448 156.558 742.238 167.984C742.639 168.454 744.816 171.367 744.766 171.524C744.09 173.645 740.39 178.374 739.178 179.967C729.451 192.758 719.766 205.977 711.784 219.925C688 261.488 676.151 308.917 671.428 356.277C693.034 356.722 714.646 356.921 736.257 356.873C736.433 359.595 736.491 362.706 736.46 365.452C736.284 380.363 737.726 395.337 738.042 410.186C738.803 442.322 738.389 474.475 736.798 506.582C734.972 551.979 729.767 596.439 715.556 639.813C714.848 641.967 714.15 644.135 713.348 646.258C695.288 693.719 662.999 734.443 620.904 762.854C596.038 779.863 568.325 791.806 540.913 804.168C504.554 820.569 467.358 839.876 437.337 866.48C429.834 873.127 423.606 881.208 416.694 888.424L416.091 888.892C413.565 888.689 408.689 881.817 406.665 879.5C395.34 866.755 382.586 855.352 368.654 845.523C347.78 830.889 323.814 818.626 300.315 808.698C251.18 787.944 206.046 767.573 169.031 727.827C155.366 712.999 143.588 696.54 133.963 678.82C109.16 633.819 100.2 589.571 96.6089 538.756C96.0658 522.996 93.4089 505.041 93.7203 489.352C94.5915 445.44 92.4723 400.459 94.0119 356.698C115.809 356.267 138.651 356.58 160.508 356.568C157.869 343.941 157.066 330.272 154.686 317.633C146.104 272.064 129.554 228.471 101.669 191.122C96.9659 184.822 91.4272 178.799 87.1288 172.17L86.6943 171.492C91.7769 164.165 100.151 155.195 106.21 148.435L128.686 122.937L187.783 56.1975C194.316 48.8591 200.277 41.6026 207.02 34.2647C229.557 49.5441 253.24 61.6828 279.733 68.0059C318.388 77.2323 359.151 73.5308 392.873 51.3689C401.298 45.8318 407.803 39.6304 415.653 33.383Z" fill="var(--fill-0, #001722)"/>
<path id="Vector_2" d="M415.458 64.7822C417.982 65.5078 426.051 72.0612 428.855 73.7972C481.749 106.54 546.722 102.331 601.217 75.978C607.572 72.9053 614.179 68.9496 620.417 65.3275C623.247 68.0041 627.457 73.1176 630.175 76.2232C636.268 83.299 642.416 90.3278 648.622 97.3089L716.39 173.799C706.348 187.796 699.615 196.91 690.934 212.499C674.862 241.371 663.811 273.44 656.892 305.723C651.601 330.412 648.856 355.779 646.711 380.927L714.966 380.973C715.236 413.037 715.299 445.103 715.15 477.166C714.15 549.18 711.063 615.733 672.771 678.964C657.496 704.509 637.061 726.588 612.773 743.786C558.089 782.63 486.828 796.498 434.917 840.804C428.287 846.46 422.251 852.193 416.018 858.259C413.089 856.88 402.788 845.784 399.155 842.657C336.568 788.746 248.349 778.912 189.961 719.291C125.827 653.802 117.79 568.262 116.656 481.533C116.354 447.988 116.394 414.442 116.775 380.898L185.095 380.899C183.868 367.806 182.402 354.52 181.19 341.396C180.759 336.722 179.036 329.912 178.23 324.938C168.848 267.066 150.945 220.931 115.337 173.941C116.871 171.804 122.666 165.657 124.656 163.418L144.507 140.985L211.251 65.2428C266.244 98.6326 335.388 109.922 393.979 78.6934C402.133 74.347 407.915 69.7072 415.458 64.7822Z" fill="var(--fill-0, #454E52)"/>
<path id="Vector_3" d="M213.399 76.7681C223.153 81.475 232.315 86.3947 242.442 90.4369C283.672 106.892 332.34 111.468 374.784 96.5459C383.646 93.5083 392.2 89.6396 400.333 84.9917C405.481 82.0217 410.782 78.3915 415.867 75.5918C424.125 80.8197 432.105 85.8841 441.022 90.1435C476.719 107.192 517.021 109.02 555.308 100.986C580.264 95.75 596.088 87.4777 618.204 76.7226C623.531 80.8932 632.956 92.4019 637.76 97.9029L667.642 131.842L692.322 159.469C696.284 163.959 701.805 169.888 705.122 174.69C698.7 182.897 690.542 195.912 685.363 204.806C659.218 249.732 646.242 301.928 640.636 353.273C639.378 364.804 637.454 378.049 637.138 389.62L706.713 389.558C706.722 402.193 707.141 415.363 705.916 427.92C699.087 497.92 676.444 568.596 625.654 619.37C619.241 625.783 612.349 630.853 605.877 636.897L608.162 644.635C605.783 644.784 598.752 645.69 597.377 643.883C595.461 644.185 585.568 650.774 583.022 652.41C574.688 657.764 563.718 662.334 555.813 667.602C556.498 667.494 557.165 667.395 557.841 667.233C607.243 655.537 671.324 624.796 699.02 580.453C697.474 589.246 695.923 598.566 693.71 607.233C683.155 648.412 661.81 688.613 630.679 717.975C584.942 761.114 521.776 777.276 467.903 807.666C455.788 814.615 444.215 822.457 433.272 831.128C427.736 835.558 421.504 841.476 416.076 845.383C413.334 844.951 407.813 839.002 405.428 836.91C365.061 801.509 314.018 784.654 266.593 761.439C254.692 755.616 242.389 749.185 231.316 741.812C191.137 715.28 160.829 676.237 145.087 630.736C138.67 612.213 136.254 599.747 132.434 580.719C149.413 604.186 167.689 620.56 192.997 634.819C197.486 637.348 203.214 641.773 208.159 642.63C203.296 636.924 203.665 634.247 203.771 627.135L213.368 626.919C213.252 626.68 213.135 626.441 213.019 626.202C208.125 620.479 200.595 614.268 195.713 608.585C189.265 601.072 182.84 593.068 177.456 585.037C150.312 544.561 134.149 495.5 128.272 447.289C127.377 439.945 126.006 433.14 125.594 425.669C124.932 413.667 125.148 401.55 125.208 389.529C147.992 389.595 172.245 389.106 194.826 389.632C188.912 323.553 179.672 260.564 145.07 202.378C141.358 196.135 131.309 180.027 126.594 174.672C129.66 170.268 136.21 163.235 140.043 158.884L165.793 129.82L196.165 95.4656C199.616 91.5433 209.967 79.1563 213.399 76.7681Z" fill="var(--fill-0, #001722)"/>
<path id="Vector_4" d="M229.961 629.993C229.598 629.344 228.34 627.131 227.923 626.797C220.913 621.204 208.334 623.039 205.454 612.641C204.644 609.721 204.316 606.958 205.154 603.749C205.939 600.626 207.964 597.958 210.761 596.363C217.929 592.221 234.098 592.613 237.891 601.23C239.436 604.736 239.376 607.017 239.281 610.681C235.602 610.897 233.079 611.037 229.425 610.843C228.498 601.451 225.563 602.505 216.93 602.199C216.237 603.749 214.287 607.549 215.222 609.153C219.607 616.67 235.227 614.187 238.651 623.913C241.184 631.106 240.366 638.01 234.377 643.017C227.961 645.807 222.085 645.794 215.169 645.289C213.011 644.784 210.186 643.554 208.159 642.63C203.296 636.924 203.665 634.247 203.771 627.135L213.368 626.919L213.643 627.622C217.142 629.893 224.516 636.825 227.018 637.352C228.019 635.004 229.215 632.395 229.961 629.993Z" fill="var(--fill-0, #FEE500)"/>
<path id="Vector_5" d="M213.643 627.622C217.142 629.893 224.516 636.825 227.018 637.352C217.436 636.947 214.468 638.132 213.643 627.622Z" fill="var(--fill-0, #454E52)"/>
<path id="Vector_6" d="M583.189 594.091C586.483 593.965 589.679 594.055 592.969 594.123C594.848 598.697 596.512 605.561 597.949 610.501L605.877 636.897L608.162 644.635C605.783 644.784 598.752 645.69 597.377 643.883C596.809 640.989 595.452 636.681 594.623 633.742C590.008 634.004 585.92 633.891 581.332 633.679C579.696 638.055 578.993 640.25 577.816 644.766C574.17 644.892 571.993 644.874 568.37 644.599C569.672 638.227 571.984 631.363 573.864 625.098C576.892 614.741 580.002 604.403 583.189 594.091Z" fill="var(--fill-0, #FEE500)"/>
<path id="Vector_7" d="M587.466 606.918C588.669 608.472 588.223 610.753 588.692 613.015C589.571 617.229 591.36 620.997 592.059 625.238L591.527 625.86L589.634 625.9L583.504 625.905C585.519 618.73 586.398 614.156 587.466 606.918Z" fill="var(--fill-0, #001722)"/>
<path id="Vector_8" d="M215.169 645.289C222.085 645.794 227.961 645.807 234.377 643.017C242.505 651.13 261.468 659.373 271.777 665.011C273.031 665.696 273.248 665.935 273.487 667.192C266.545 667.133 218.849 650.269 215.169 645.289Z" fill="var(--fill-0, #454E52)"/>
<path id="Vector_9" d="M424.187 133.604C471.103 132.47 510.693 139.262 547.434 170.532C569.465 189.283 589.963 224.976 592.248 253.912C585.857 257.489 577.758 258.815 570.776 260.837C558.657 264.348 546.772 267.494 534.733 271.326C531.678 253.423 526.936 236.886 514.24 222.818C497.717 204.506 456.901 191.828 433.103 190.25C400.591 188.095 359.85 201.653 335.84 224.247C308.635 249.846 296.079 298.598 293.95 334.852C291.359 378.975 299.285 425.064 330.455 458.269C348.83 477.846 380.307 492.223 407.281 493.003C430.207 492.809 456.068 492.133 478.522 486.157C495.968 481.519 526.72 470.698 534.765 453.176C535.847 450.828 535.509 439.813 535.585 436.73L536.446 393.123C527.554 392.103 515.655 393.922 507.552 392.878C506.785 392.014 507.051 391.884 506.975 390.404C506.497 381.879 506.79 374.63 506.862 366.18L507.146 334.391C512.086 334.272 517.242 334.259 522.181 334.314C544.784 334.565 568.027 332.647 590.58 333.414L590.423 492.584C584.514 502.318 559.365 516.335 549.021 521.892C468.336 565.261 351.582 575.365 279.365 509.939C239.274 473.619 222.112 413.943 219.845 361.372C217.266 288.226 244.2 210.074 307.118 168.038C346.364 141.34 377.702 135.232 424.187 133.604Z" fill="var(--fill-0, #FEE500)"/>
<path id="Vector_10" d="M398.675 262.493C417.784 263.462 436.791 263.26 455.919 263.31C461.345 263.324 466.704 263.096 472.122 263.591C471.707 272.306 470.616 280.23 470.287 289.533C452.723 290.867 433.111 289.433 415.479 290.064C412.818 295.889 410.419 311.053 410.179 317.622C417.047 315.618 422.903 312.505 430.149 312.728C478.206 314.203 486.639 374.413 456.252 403.451C443.777 415.374 432.81 417.364 416.675 417.381C391.017 416.982 377.143 402.054 372.567 377.751C379.157 376.394 393.535 375.496 400.304 375.267C402.131 383.16 404.237 390.658 412.557 393.961C424.607 398.744 438.069 393.641 442.709 381.293C446.222 371.944 447.534 357.199 443.352 347.889C441.152 342.871 437.018 338.955 431.888 337.029C426.211 334.957 418.999 335.512 413.347 337.361C407.79 339.179 403.902 344.371 398.619 346.748C391.976 345.997 384.643 344.819 377.971 343.903C378.442 338.657 380.636 329.992 381.86 324.526L389.128 291.976C390.172 287.245 394.263 266.373 395.463 263.567C396.885 262.439 396.596 262.789 398.675 262.493Z" fill="var(--fill-0, #FEE500)"/>
<path id="Vector_11" d="M523.412 669.671C530.145 669.454 537.397 669.342 544.099 669.702C556.475 670.369 555.304 681.781 555.195 690.862C555.105 698.501 555.565 705.91 554.61 713.621L552 716.772C545.221 721.635 532.029 720.179 523.331 720.012C523.254 703.233 523.281 686.45 523.412 669.671Z" fill="var(--fill-0, #FEE500)"/>
<path id="Vector_12" d="M528.307 674.286C534.044 674.304 549.607 672.528 549.737 680.645C549.909 690.803 551.428 704.518 547.619 713.964C547.547 714.135 546.988 714.811 546.848 714.987C543.468 715.672 532.124 715.375 528.284 715.343C528.189 701.656 528.194 687.969 528.307 674.286Z" fill="var(--fill-0, #001722)"/>
<path id="Vector_13" d="M386.394 594.691C393.594 594.064 402.489 594.123 409.561 595.015C417.613 596.029 422.218 601.045 422.176 609.126C422.132 617.585 421.404 620.213 414.144 624.729C416.311 630.898 419.884 638.479 422.569 644.581L421.968 644.653C419.433 644.946 413.856 645.613 411.969 644.099C409.978 639.421 405.738 630.182 404.363 625.643L396.691 625.585C396.521 631.89 396.596 638.56 396.564 644.892C393.214 644.987 390.157 644.892 386.804 644.784C385.966 629.425 386.048 610.226 386.394 594.691Z" fill="var(--fill-0, #FEE500)"/>
<path id="Vector_14" d="M396.639 603.015C406.979 602.965 416.411 602.424 409.676 616.107C408.232 618.248 399.382 617.4 396.594 617.355L396.639 603.015Z" fill="var(--fill-0, #001722)"/>
<path id="Vector_15" d="M513.352 594.235C513.821 594.375 513.505 594.249 514.145 594.875C514.727 610.343 514.384 629.208 514.222 644.793C511.694 644.897 505.713 645.618 504.27 643.153C498.785 633.778 492.426 624.003 487.626 614.309C487.198 624.125 487.342 634.896 487.261 644.825C484.899 644.888 482.339 644.834 479.964 644.829C478.328 644.496 478.833 644.906 477.832 643.968C477.372 639.191 477.643 631.687 477.656 626.671L477.805 594.524L486.594 594.38C492.958 604.344 498.97 615.061 504.91 625.333C504.419 615.49 504.672 604.619 504.699 594.709C507.475 594.483 510.549 594.384 513.352 594.235Z" fill="var(--fill-0, #FEE500)"/>
<path id="Vector_16" d="M541.922 593.726C550.116 593.239 559.171 594.465 561.438 603.993C561.893 605.917 561.735 609.085 561.731 611.122C558.278 611.276 555.29 611.253 551.833 611.19L551.712 604.101C547.389 602.92 543.099 601.153 539.042 603.245C535.54 607.386 537.393 622.989 537.086 628.776C536.608 637.749 542.846 636.875 549.535 636.893C551.283 632.746 551.563 631.088 552.059 626.707C555.61 626.563 558.048 626.635 561.614 626.833C561.812 634.891 562.276 639.331 554.601 643.811C551.45 644.865 546.709 644.843 544.216 646.997L545.573 647.74L544.46 646.817L544.252 647.037L545.762 647.835L545.194 647.804C546.628 648.317 548.737 648.137 550.323 648.124C551.392 650.246 552.996 653.072 552.572 655.506C551.41 662.216 541.237 660.882 536.334 659.738C535.495 658.827 535.698 658.89 535.374 657.529C536.554 653.149 542.81 656.795 545.807 654.375L545.532 653.572C543.842 652.977 538.988 653.014 536.928 652.955C537.253 650.395 537.776 647.592 538.199 645.023C533.075 644.054 527.315 641.102 527.072 635.184C526.724 624.517 526.206 613.069 527.283 602.465C527.901 596.358 536.978 594.127 541.922 593.726Z" fill="var(--fill-0, #FEE500)"/>
<path id="Vector_17" d="M304.233 594.123C311.992 593.469 317.413 594.055 323.739 598.684C325.938 602.798 325.741 606.296 325.628 610.775C322.481 610.915 319.606 610.825 316.456 610.744L316.381 604.182C300.225 600.338 300.816 603.975 301.055 619.091C301.136 624.228 300.903 629.154 301.628 634.306C304.401 636.072 308.417 637.411 311.512 637.158C314.831 637.064 318.697 628.632 315.269 627.077C309.797 624.589 306.389 631.453 306.971 620.231C307.096 619.803 307.377 619.203 307.557 618.775C310.255 617.729 321.847 618.27 325.524 618.347C325.712 623.917 326.592 635.243 324.167 639.655C318.956 647.966 293.219 648.006 291.763 636.442C291.211 632.048 290.687 625.896 291.006 621.308C291.948 607.742 286.708 596.985 304.233 594.123Z" fill="var(--fill-0, #FEE500)"/>
<path id="Vector_18" d="M425.297 669.468C432.226 669.256 441.734 669.022 448.517 670.198C458.948 672.014 457.109 685.431 456.978 693.485L447.889 699.154C449.527 701.818 457.807 717.835 456.946 719.778C455.283 720.192 455.198 720.165 453.467 719.963C452.011 719.111 451.552 717.723 450.74 716.163C447.589 710.57 446.287 705.527 442.494 699.664C438.537 699.506 434.425 699.677 430.455 699.772C430.506 702.719 430.913 718.628 429.87 719.976C428.047 720.206 427.983 720.192 426.23 719.701C425.074 718.191 425.348 674.561 425.297 669.468Z" fill="var(--fill-0, #FEE500)"/>
<path id="Vector_19" d="M430.525 674.313C435.456 674.277 444.148 673.596 448.392 675.845C453.183 678.387 452.331 689.136 449.508 693.061C444.462 695.828 436.334 695.031 430.482 694.936L430.525 674.313Z" fill="var(--fill-0, #001722)"/>
<path id="Vector_20" d="M337.577 594.443C340.73 594.316 344.178 594.425 347.356 594.456C348.081 598.553 347.862 605.624 347.849 609.933C347.745 618.401 347.787 626.874 347.976 635.342C350.671 635.978 353.446 636.757 356.229 636.829C358.336 636.884 360.684 636.622 362.229 635.04C364.56 632.656 363.576 600.594 363.736 594.47C366.89 594.411 370.17 594.456 373.337 594.452C373.485 597.35 373.48 600.567 373.536 603.497C373.461 608.81 373.451 614.899 373.688 620.168C374.318 634.143 374.841 645.257 356.885 645.253C335.927 645.248 337.398 637.474 337.436 620.438L337.577 594.443Z" fill="var(--fill-0, #FEE500)"/>
<path id="Vector_21" d="M444.406 594.438C447.586 594.316 451.132 594.407 454.346 594.425C456.735 600.914 458.993 609.347 461.025 616.075C463.86 625.441 466.916 635.333 469.26 644.793C466.087 644.915 462.738 644.892 459.547 644.919C458.375 642.328 456.721 635.423 455.54 634.238L442.422 634.193C441.377 637.965 440.543 640.926 439.181 644.622C435.36 644.973 433.387 644.924 429.572 644.658C433.167 629.655 439.981 609.554 444.406 594.438Z" fill="var(--fill-0, #FEE500)"/>
<path id="Vector_22" d="M448.99 606.021C449.595 607.986 450.357 613.547 450.889 616.048C451.475 618.793 453.206 623.575 453.458 625.571C452.34 626.238 451.056 626.004 449.577 626.013C448.135 626.04 446.945 625.977 445.503 625.9L445.05 625.364C447.129 617.058 447.457 613.89 448.99 606.021Z" fill="var(--fill-0, #001722)"/>
<path id="Vector_23" d="M251.195 594.461C260.452 594.127 270.549 594.343 279.845 594.434L279.831 602.789C273.812 603.064 266.999 602.947 260.919 602.965C260.89 606.922 260.892 610.879 260.925 614.836L278.688 614.85C278.866 617.829 278.674 620.105 278.478 623.075L260.893 623.183L260.86 628.541L260.89 636.568C267.485 636.469 274.082 636.509 280.675 636.703L280.632 644.703C272.068 645.009 259.581 645.145 251.109 644.658C250.752 629.204 250.743 609.865 251.195 594.461Z" fill="var(--fill-0, #FEE500)"/>
<path id="Vector_24" d="M487.049 669.247C488.753 669.306 490.605 669.572 492.309 669.774C495.175 680.753 498.601 691.335 501.94 702.174C503.766 708.101 505.961 714.144 507.304 720.161C505.487 720.161 503.567 719.949 501.746 719.796C500.534 714.861 498.988 710.705 497.294 705.933L491.155 705.951C487.698 705.969 484.246 705.955 480.789 705.906C479.396 709.75 477.886 718.281 474.416 720.093C472.667 720.053 473.379 720.341 472.113 719.453C471.441 717.006 484.665 674.16 487.049 669.247Z" fill="var(--fill-0, #FEE500)"/>
<path id="Vector_25" d="M488.879 677.305C489.235 677.981 488.983 677.422 489.199 678.171C491.434 685.846 493.922 693.679 496.243 701.336L489.352 701.3L482.145 701.291C484.606 692.723 486.851 686.179 488.879 677.305Z" fill="var(--fill-0, #001722)"/>
<path id="Vector_26" d="M585.203 669.315C586.939 669.279 587.624 669.283 589.336 669.495C591.545 671.063 604.151 714.897 605.521 720.138C603.718 720.12 601.496 719.863 599.667 719.706C598.819 715.145 597.125 710.142 595.75 705.671L589.832 705.545L578.655 705.721C577.587 710.029 576.14 714.257 575.22 718.624C574.842 720.413 571.425 720.445 570.06 719.62C569.609 716.429 582.981 674.498 585.203 669.315Z" fill="var(--fill-0, #FEE500)"/>
<path id="Vector_27" d="M587.25 677.612C587.849 678.833 589.372 684.354 589.868 685.99C591.464 691.15 593.1 696.293 594.772 701.426L587.565 701.322L580.534 701.3C582.779 693.44 585.303 685.521 587.25 677.612Z" fill="var(--fill-0, #001722)"/>
<path id="Vector_28" d="M233.486 669.094C234.452 669.13 235.4 669.134 236.323 669.454C239.967 670.73 257.393 704.004 260.099 709.29C260.1 704.405 259.707 671.487 260.781 669.499C262.663 669.297 262.908 669.342 264.738 669.847C265.892 671.784 265.467 714.595 265.221 720.165C263.383 720.179 260.863 720.548 259.817 718.741C257.55 714.825 255.34 710.872 253.111 706.929C248.181 698.046 243.14 689.226 237.989 680.469C237.971 686.882 238.88 715.519 237.282 719.138C236.843 720.134 236.357 720.274 235.364 720.643C234.368 720.458 234.739 720.539 233.851 719.782C232.368 715.077 233.096 676.814 233.486 669.094Z" fill="var(--fill-0, #FEE500)"/>
<path id="Vector_29" d="M388.729 668.981C396.951 668.409 402.031 669.468 406.432 676.774C406.62 679.572 407.654 687.784 401.785 683.985C401.029 682.795 401.039 682.678 401.074 681.262L401.188 676.354C399.067 675.827 396.941 675.318 394.811 674.831C390.323 673.822 386.539 673.344 382.506 675.899C379.437 680.262 380.636 706.523 380.772 713.594C385.851 714.798 399.364 719.26 400.972 710.35C401.297 708.547 401.58 701.94 400.671 700.534L398.986 700.403C395.871 700.335 392.312 701.457 390.19 699.154C389.877 697.775 389.748 697.694 390.163 696.311C392.425 695.17 403.251 695.738 406.507 695.806C406.592 700.966 407.419 710.832 405.175 715.014C400.577 722.942 375.598 723.518 375.328 711.742C375.208 706.492 374.516 700.349 374.907 695.026C375.965 680.631 370.237 670.739 388.729 668.981Z" fill="var(--fill-0, #FEE500)"/>
<path id="Vector_30" d="M329.416 669.68C333.175 669.648 354.711 668.905 356.516 670.338C356.741 672.046 356.718 672.023 356.445 673.74C354.466 675.187 338.08 674.416 334.814 674.376C334.693 680.109 334.701 685.846 334.836 691.574C339.747 691.637 348.693 691.47 353.915 691.736C354.803 691.781 355.753 693.205 356.121 694.35C354.374 697.775 338.996 694.08 335.264 696.288C334.77 696.577 334.89 697.69 334.84 698.447L334.832 715.298C341.781 715.325 349.57 715.014 356.439 715.465C357.008 715.505 356.852 715.595 357.281 716.195C357.384 717.52 357.61 718.583 357.148 719.805C353.852 720.63 333.85 720.093 329.373 720.035C329.225 703.251 329.239 686.468 329.416 669.68Z" fill="var(--fill-0, #FEE500)"/>
<path id="Vector_31" d="M281.818 669.45C287.394 669.409 309.069 668.941 313.079 669.856C314.077 671.262 314.043 672.249 313.262 673.745C311.863 674.709 302.075 674.286 299.777 674.263C299.598 685.17 299.736 696.446 299.732 707.384C299.772 711.44 300.71 717.655 295.587 718.84L295.011 718.277C294.28 714.662 294.456 705.906 294.454 701.868L294.474 674.335C290.857 674.358 283.307 675.106 280.935 673.213C280.301 671.951 280.574 671.37 280.839 669.968L281.818 669.45Z" fill="var(--fill-0, #FEE500)"/>
<path id="Vector_32" d="M207.337 669.288C209.223 669.274 210.706 668.99 212.011 670.419C212.503 674.764 212.331 687.932 212.219 692.746C212.032 700.826 212.653 712.423 212.057 720.138C210.113 720.174 209.563 720.274 207.733 719.764C206.503 717.953 206.845 675.525 207.337 669.288Z" fill="var(--fill-0, #FEE500)"/>
</g>
</svg>
