<svg width="1754" height="1241" viewBox="0 0 1754 1241" fill="none" xmlns="http://www.w3.org/2000/svg">
<path d="M220.037 503.486C221.755 503.545 223.605 503.661 225.178 504.424C233.27 508.353 254.643 565.316 259.397 576.633C265.026 562.983 270.905 549.425 276.7 535.844C280.434 527.091 283.783 517.125 289.089 509.224C290.678 506.856 292.644 504.399 295.606 503.973C297.839 503.652 300.087 504.678 301.746 506.116C307.879 511.432 344.009 602.06 348.695 615.83C350.028 619.746 351.365 624.255 351.392 628.433C351.419 632.643 349.278 637.275 346.213 640.144C338.144 647.697 323.499 645.777 313.436 645.646L313.379 663.109L313.384 664.216C313.408 681.949 303.91 683.145 289.133 682.434C275.13 673.905 278.936 660.378 279.148 645.64L239.9 645.667C239.808 653.917 240.473 660.77 239.627 669.598C238.238 684.088 218.961 686.431 210.111 678.557C203.577 672.745 205.455 654.84 205.655 645.646C201.864 645.714 198.074 645.757 194.283 645.773C186.486 645.795 177.868 645.489 172.136 639.363C168.463 635.437 167.223 630.926 167.577 625.659C168.181 616.688 207.238 522.781 213.352 511.351C215.119 508.046 217.169 505.84 220.037 503.486ZM265.209 590.407C270.657 603.53 280.416 621.401 276.814 634.739L290.204 634.67C289.929 643.964 287.955 663.844 292.276 670.774C296.222 673.299 302.301 672.819 302.461 667.391L302.572 634.764C310.418 634.852 333.621 636.723 339.539 631.514C340.78 630.421 340.288 629.812 340.267 628.054C340.238 625.676 338.221 618.595 337.475 616.808C333.207 606.584 299.078 520.294 296.368 517.724L265.209 590.407ZM259.124 605.33C255.731 614.107 245.451 631.028 258.819 634.626C259.343 634.765 259.87 634.894 260.401 635.014C262.783 633.852 265.424 632.729 266.377 629.924C268.172 624.642 262.499 609.244 259.124 605.33ZM242.236 634.721C238.776 619.693 247.87 605.196 253.442 590.365C250.247 582.784 224.375 519.88 221.935 517.784L194.167 585.373C190.3 594.838 177.387 622.243 179.211 630.735C185.274 637.021 207.538 634.784 216.459 634.702L216.531 668.954C218.568 672.363 220.572 672.541 224.65 672.124C232.212 667.084 228.958 644.046 228.996 634.748L242.236 634.721Z" fill="#00577A"/>
<path d="M1573.07 486.863C1654.34 487.609 1667.76 521.947 1666.88 597.56C1666.27 650.234 1660.42 689.593 1599.2 698.358C1578.87 702.791 1528.21 697.274 1507.13 694.188L1507.11 492.657C1528.68 488.294 1551.14 487.336 1573.07 486.863ZM1549.25 663.769C1570.88 666.371 1590.6 667.397 1609.38 654.613C1624.93 639.341 1624.5 618.343 1624.74 598.041C1625.28 552.108 1623.59 521.103 1568.85 521.391C1564.02 521.462 1559.21 521.639 1554.4 521.921L1549.83 522.797C1548.1 526.843 1549.23 648.356 1549.25 663.769Z" fill="#00577A"/>
<path d="M1221.03 486.878C1252.32 487.128 1290.08 489.622 1301.65 525.006C1307.66 543.397 1307.18 569.841 1298.56 587.468C1291.43 602.051 1280.3 608.943 1265.4 613.994C1281.48 641.536 1297.27 669.887 1313.05 697.644C1296.84 697.733 1280.62 697.734 1264.4 697.648C1257.23 684.154 1249.95 670.714 1242.57 657.328C1235.58 644.529 1228.66 631.684 1221.83 618.793C1213.38 618.731 1204.54 618.274 1196.05 617.949L1196.1 697.594C1182.64 697.992 1167.52 697.691 1153.93 697.715L1153.9 492.335C1179.06 488.426 1195.91 487.316 1221.03 486.878ZM1196.12 521.181C1196.03 541.438 1195.47 564.581 1196.19 584.732C1211.87 585.274 1233.81 587.008 1248.11 581.455C1272.14 567.365 1269.67 527.155 1241.22 521.197C1233.08 519.494 1216.99 518.824 1208.84 520.238L1196.12 521.181Z" fill="#00577A"/>
<path d="M192.432 415.925C200.582 417.084 209.749 416.449 218.225 417.319C236.358 419.179 268.35 426.374 282.635 437.837C223.966 428.826 165.374 454.53 132.275 503.801C105.905 543.054 99.1481 592.288 113.97 637.194C132.629 693.728 182.362 734.323 241.487 741.282C213.211 752.199 175.468 745.585 147.357 737.966L145.731 737.021C128.59 730.73 112.616 721.632 98.4595 710.101C64.7068 682.738 43.1574 643.127 38.5199 599.924C32.2623 536.102 60.6632 474.73 115.876 441.001C130.031 432.354 154.339 421.292 171.087 419.743C177.548 417.805 189.071 417.814 192.432 415.925Z" fill="#02B257"/>
<path d="M113.97 637.194C132.629 693.727 182.362 734.322 241.487 741.282C213.211 752.199 175.468 745.585 147.357 737.966L145.731 737.021C145.002 735.716 142.513 732.037 141.459 730.649C126.422 710.849 109.008 661.917 113.97 637.194Z" fill="#00899A"/>
<path d="M192.432 415.925C200.582 417.084 209.749 416.449 218.225 417.319C236.358 419.179 268.35 426.374 282.635 437.837C223.966 428.826 165.374 454.53 132.275 503.801C138.074 471.466 162.898 442.185 184.941 420.832C186.448 419.371 186.912 419.63 188.922 419.031C185.587 418.75 175.632 419.687 171.087 419.743C177.548 417.805 189.071 417.814 192.432 415.925Z" fill="#00753D"/>
<path d="M865.489 487.441C892.125 484.846 900.775 496.473 909.065 520.628C914.778 537.288 920.353 554.212 925.946 570.931L968.357 697.511C954.02 697.982 937.988 697.675 923.514 697.683C918.109 680.458 912.859 663.183 907.772 645.86L881.71 645.851L836.327 645.855C831.22 663.138 826.009 680.39 820.697 697.612C806.192 697.777 791.683 697.758 777.178 697.555L820.43 570.848C826.434 553.181 832.252 535.412 838.456 517.815C843.98 502.141 849.221 492.589 865.489 487.441ZM846.162 613.447L871.947 613.31L897.64 613.398C894.48 603.019 874.199 533.09 871.347 529.026C863.768 557.13 854.237 585.418 846.162 613.447Z" fill="#00577A"/>
<path d="M398.388 524.94C415.429 539.405 432.107 572.546 437.588 594.058C438.521 597.72 441.062 612.229 442.214 613.926L441.543 615.857C449.039 650.526 435.961 696.755 416.942 726.323C393.159 763.286 355.634 789.255 312.662 798.49C270.006 807.528 225.506 799.485 188.712 776.088C174.611 766.95 156.956 751.964 147.357 737.966C175.468 745.585 213.211 752.199 241.487 741.282C291.213 747.134 340.66 728.308 373.902 690.865C414.318 645.341 423.932 580.199 398.388 524.94Z" fill="#00AAD1"/>
<path d="M398.388 524.94C415.429 539.405 432.107 572.546 437.588 594.058C438.521 597.72 441.062 612.229 442.214 613.926L441.543 615.857C428.072 643.278 413.501 663.421 388.464 681.898C384.934 684.503 377.721 689.441 373.902 690.865C414.318 645.341 423.932 580.199 398.388 524.94Z" fill="#8C6C18"/>
<path d="M1396.48 488.545C1406.65 487.269 1456.07 489.154 1468.02 490.039V522.54C1445.41 523.058 1420.05 521.252 1397.59 523.559C1394.26 523.9 1388.26 526.549 1386.09 528.867C1379.27 536.167 1381.2 564.09 1381.26 574.758L1464.23 574.678C1463.99 585.817 1463.97 596.96 1464.18 608.099L1381.31 608.102C1381.17 622.962 1377.59 651.303 1389.51 660.747C1402.45 665.832 1451.45 663.909 1468.03 663.837V696.493C1438.6 698.792 1402.79 699.707 1374.07 695.346C1344.39 688.902 1339.04 668.285 1339.11 642.106C1339.21 608.512 1338.99 576.347 1339.14 543.235C1339.33 500.019 1356.32 491.353 1396.48 488.545Z" fill="#00577A"/>
<path d="M192.432 415.925C224.898 390.548 269.855 380.404 310.474 385.427C354.038 390.805 393.648 413.369 420.493 448.099C447.71 483.13 459.75 527.609 453.919 571.585C452.028 586.179 448.088 600.433 442.214 613.926C441.062 612.229 438.521 597.72 437.588 594.058C432.107 572.546 415.429 539.405 398.388 524.94C376.845 478.337 333.381 445.63 282.635 437.837C268.35 426.374 236.358 419.179 218.225 417.319C209.749 416.449 200.582 417.084 192.432 415.925Z" fill="#E89A0C"/>
<path d="M637.234 488.973L680.638 489.02C677.965 499.188 672.215 515.332 668.83 525.758L635.388 628.623C629.73 645.99 624.21 665.94 616.842 682.406C605.803 705.384 571.501 706.347 561.363 681.885C552.702 660.987 546.246 638.982 539.205 617.436L497.268 489.051L542.272 489.003C558.038 541.837 574.926 597.818 589.537 650.83C604.364 596.993 622.002 542.887 637.234 488.973Z" fill="#00577A"/>
<path d="M1068.09 486.864C1089.91 487.176 1102.56 488.175 1123.88 493.058C1122.34 503.497 1121.21 515.09 1119.96 525.663C1024.9 510.759 1021.53 539.757 1027.45 626.317C1030.7 673.759 1086.78 665.919 1119.95 660.785L1122.46 682.32C1122.92 686.035 1123.4 689.746 1123.9 693.455C1091.5 702.253 1033.01 705.713 1006.59 681.418C989.049 665.289 983.473 633.419 983.259 609.814C982.959 577.233 980.741 533.371 1004.28 507.276C1021.29 489.421 1045.3 487.553 1068.09 486.864Z" fill="#00577A"/>
<path d="M1703.52 489.03L1745.92 489.016L1745.83 697.69L1703.51 697.593L1703.52 489.03Z" fill="#00577A"/>
<path d="M708.213 489.007L750.636 488.989C749.387 557.115 750.64 629.13 750.443 697.564C737.26 698.039 721.612 697.667 708.242 697.665L708.213 489.007Z" fill="#00577A"/>
<path d="M1091.77 802.771C1120.77 799.189 1132.7 806.999 1130.71 837.842C1130.06 847.965 1129.22 854.454 1121.4 861.583C1110.12 866.85 1097.2 865 1085.18 863.827C1085.11 847.76 1084.15 819.875 1085.42 804.738C1086.94 802.991 1088.95 803.229 1091.77 802.771ZM1093.67 857.866C1102.96 858.286 1110.14 859.322 1118 853.58C1122.38 846.558 1121.86 844.164 1122.17 836.302C1123.13 811.459 1116.57 808.157 1093.6 809.623L1093.67 857.866Z" fill="#00577A"/>
<path d="M1376.27 802.693C1379.27 802.517 1382.27 802.369 1385.27 802.25C1410.18 801.311 1416.36 811.324 1415.75 835.372C1415.5 845.432 1414.63 853.75 1407.11 861.009C1396.05 867.073 1382.26 865.026 1370.14 863.81C1370.24 846.349 1369.14 821.487 1370.4 804.725C1371.62 803.002 1373.62 803.194 1376.27 802.693ZM1378.7 857.772C1388.42 858.371 1394.76 859.339 1403.06 853.589C1406.68 847.576 1406.82 845.137 1407.14 838.197C1408.32 812.585 1403.1 808.114 1378.59 809.62L1378.7 857.772Z" fill="#00577A"/>
<path d="M560.732 802.604C572.918 801.786 585.106 801.981 589.827 816.343C593.318 826.964 592.888 843.665 588.283 854.034C585.385 860.555 582.024 862.319 575.646 864.58C563.358 866.053 548.392 864.52 545.282 849.353C542.004 833.369 540.978 807.877 560.732 802.604ZM574.067 857.592C578.53 855.067 580.671 853.023 581.851 847.813C584.431 836.418 586.794 813.751 572.037 809.568C569.605 808.878 564.227 809.409 561.687 809.619C552.746 814.667 552.401 822.754 552.081 832.227C551.523 848.737 554.968 860.589 574.067 857.592Z" fill="#00577A"/>
<path d="M619.283 802.735C643.233 800.822 651.598 807.95 651.731 832.838C651.802 846.229 650.151 859.253 636.134 864.358C624.245 866.251 610.656 865.249 605.929 851.896C602.101 841.083 602.365 824.063 606.952 813.359C609.71 806.923 613.104 805.041 619.283 802.735ZM633.722 857.6C637.838 855.386 640.122 853.539 641.346 848.727C644.288 837.161 646.787 813.367 631.413 809.447C629.366 808.926 623.843 809.44 621.601 809.625C612.072 814.522 612.044 823.839 611.777 833.608C611.348 849.243 615.447 860.769 633.722 857.6Z" fill="#00577A"/>
<path d="M1512.75 802.697C1519.18 802.212 1525.79 801.461 1532.03 804.141C1548.67 811.293 1546.97 840.061 1541.49 853.904C1539.08 859.973 1535.26 862.285 1529.37 864.418C1494.3 868.854 1492.65 841.277 1500.2 813.664C1501.81 807.769 1507.32 804.732 1512.75 802.697ZM1527.1 857.643C1535.84 852.661 1536.54 844.163 1536.68 834.87C1536.95 816.88 1534.08 807.998 1514.77 809.637C1505.82 814.679 1505.46 823.017 1505.15 832.54C1504.64 848.412 1508.19 860.795 1527.1 857.643Z" fill="#00577A"/>
<path d="M775.197 802.76C782.626 801.758 794.154 801.315 801.044 804.443C805.773 806.541 809.373 810.57 810.925 815.506C814.585 826.994 807.875 835.783 797.149 839.025L811.778 864.461C803.742 864.692 803.047 866.062 799.077 859.271L788.456 839.791L776.715 839.27L776.695 861.78C774.747 865 771.566 865.428 768.661 863.193C767.749 854.636 767.738 813.361 768.541 804.643C770.681 802.942 772.19 803.214 775.197 802.76ZM776.759 832.714C783.575 833.179 788.719 833.439 795.495 832.196C799.243 830.24 801.408 828.584 802.847 824.356C803.764 821.725 803.526 818.828 802.193 816.38C798.308 809.123 792.392 808.557 785.014 808.872C780.805 809.166 780.166 808.456 777.492 810.771C775.247 816.49 776.805 825.633 776.759 832.714Z" fill="#00577A"/>
<path d="M1272.54 802.818C1313.08 795.301 1319.89 831.048 1294.55 839.086C1299.36 847.209 1303.96 855.444 1308.37 863.784C1306.4 865.188 1303.21 864.4 1300.8 864.332C1298.67 864.263 1297.16 860.632 1295.96 858.551L1285.83 839.797L1274.1 839.33C1273.92 846.681 1274.28 853.937 1274.22 861.266C1274.19 864.872 1268.92 865.325 1266.18 863.167C1265.14 854.009 1265.3 814.056 1265.98 804.472C1267.72 803.092 1270.03 803.184 1272.54 802.818ZM1274.12 832.81C1281.75 833.176 1285.23 833.262 1292.96 832.207C1307.21 824.066 1301.21 808.318 1282.64 808.881C1278.6 809.13 1277.81 808.482 1275.02 810.596C1272.33 816.446 1274.15 825.385 1274.12 832.81Z" fill="#00577A"/>
<path d="M672.21 802.823C681.33 801.355 695.492 800.906 702.593 807.604C709.681 814.292 710.722 827.243 703.655 834.304C696.326 841.625 684.27 840.202 674.794 840.052L673.718 840.435C672.499 845.059 674.18 856.915 672.96 863.861C670.91 865.077 671.281 864.623 668.327 864.332C662.506 859.536 665.077 844.893 665.151 837.681C665.219 831.111 663.733 807.027 666.523 803.365L672.21 802.823ZM673.339 809.632L673.433 833.22C679.225 833.323 685.637 833.596 691.363 833.171C702.665 827.754 703.663 815.708 691.502 809.635C690.554 809.163 684.063 808.892 682.585 808.87C680.756 809.018 674.877 809.36 673.339 809.632Z" fill="#00577A"/>
<path d="M845.388 802.343C847.436 802.302 850.086 802.017 851.894 803.122C856.522 805.949 872.358 855.137 874.071 863.099L873.197 864.152C862.834 864.418 863.091 856.012 860.522 847.436L851.735 847.244L835.941 847.105C833.298 854.97 833.506 865.548 823.064 864.178L822.618 863.073C824.449 854.603 840.458 807.447 845.388 802.343ZM849.166 840.923L858.244 840.798C856.48 835.512 850.099 814.932 847.844 811.492C844.572 821.276 841.356 831.079 838.197 840.902L849.166 840.923Z" fill="#00577A"/>
<path d="M1020.97 802.276C1031.45 802.022 1031.51 809.434 1034.65 818.052C1037.87 826.907 1040.4 835.982 1043.77 844.807C1045.47 849.271 1050.1 859.433 1048.87 863.613C1046.22 865.368 1047.41 864.923 1044.2 865.06C1037.53 861.643 1040.5 855.522 1036 847.929C1033.82 846.765 1029.8 847.201 1027.13 847.252L1011.4 847.092C1009.37 853.243 1008.89 860.855 1003.76 863.904C1001.07 864.324 1000.87 864.452 998.367 863.63C997.459 857.763 1013.79 819.431 1015.91 811.015C1016.63 808.141 1018.84 804.476 1020.97 802.276ZM1023.24 840.919L1033.64 840.785C1032.14 836.165 1025.34 814.027 1023.29 811.433L1013.74 840.923L1023.24 840.919Z" fill="#00577A"/>
<path d="M734.465 802.769C738.99 802.294 750.862 802.32 754.783 804.035C755.406 806.173 755.204 806.542 754.767 808.671C736.57 815.927 727.324 795.757 727.954 829.879C735.193 829.89 746.1 829.033 752.803 830.121C754.289 831.689 753.777 831.48 753.835 834.397C749.73 838.168 734.127 836.672 727.883 836.549L728.067 853.706C734.733 862.063 752.894 853.437 755.668 861.54L754.517 863.716C720.339 868.349 717.804 862.397 719.179 829.193C719.812 813.896 716.127 805.062 734.465 802.769Z" fill="#00577A"/>
<path d="M1336.89 802.824C1342.51 802.612 1350.69 801.775 1355.65 803.916C1357.46 806.183 1357.03 805.069 1356.9 808.329C1348.91 812.316 1338.5 807.758 1332.46 811.623C1328.56 816.567 1329.71 823.445 1329.86 829.884C1337.15 829.825 1350.13 828.848 1356.18 832.111L1356.45 834.137C1351.37 837.64 1336.1 836.65 1329.79 836.549C1329.78 843.071 1329.73 848.315 1330.39 854.854C1337.37 860.152 1347.86 856.309 1357.1 858.808L1358.18 861.095C1351.47 867.038 1320.59 868.323 1321.61 852.235C1322.44 839.158 1318.16 819.551 1324.08 807.192C1325.7 803.815 1333.69 803.142 1336.89 802.824Z" fill="#00577A"/>
<path d="M1159.28 802.782C1164.78 802.548 1173.83 802.095 1178.97 803.797C1180.57 805.783 1180.05 805.127 1179.77 808.55C1159.8 815.71 1152.18 796.981 1152.55 829.856C1160 829.854 1172.71 828.857 1178.98 832.067L1179.23 834.18C1174.08 837.517 1158.88 836.64 1152.59 836.565L1152.77 853.023C1158.31 862.028 1171.11 855.051 1178.69 858.774C1180.4 861.18 1179.97 860.075 1180.03 863.184L1179 864.135C1146.51 865.745 1142.8 866.302 1143.91 831.334C1144.42 815.538 1140.13 805.09 1159.28 802.782Z" fill="#00577A"/>
<path d="M988.484 802.996C991.387 802.727 993.391 802.222 996.029 803.35C996.765 806.282 995.352 808.626 994.273 811.97C991.455 820.188 980.176 859.099 975.62 863.287C974.001 864.786 972.93 864.675 970.841 864.563C965.077 861.369 963.193 854.066 961.266 848.173C956.47 833.52 951.571 818.885 946.903 804.193L947.837 802.803C950.808 802.725 952.556 802.381 955.185 803.73C959.253 812.227 968.76 845.071 971.971 855.32L988.484 802.996Z" fill="#00577A"/>
<path d="M1233.24 802.608C1239.06 801.958 1250.17 801.665 1255.22 804.807L1255.55 806.808C1253.89 809.296 1250.86 811.065 1248.01 810.424C1225.45 805.346 1223.89 818.809 1224.06 837.102C1224.21 854.204 1230.03 858.457 1246.32 857.969C1250.1 857.326 1253.3 856.404 1255.22 860.358L1254.57 861.72C1248.52 866.893 1233.6 866.31 1226.64 862.371C1211.9 854.009 1212.97 823.776 1220.15 810.929C1223.12 805.619 1227.55 803.929 1233.24 802.608Z" fill="#00577A"/>
<path d="M513.726 802.615C518.737 802.093 531.045 801.492 535.084 804.308C535.266 805.084 535.185 809.173 534.705 809.264C526.331 810.674 515.784 807.616 508.881 814.516C501.85 821.543 503.949 846.811 509.766 854.017C512.854 857.84 521.945 858.114 526.913 857.977C531.411 857.241 532.682 856.437 536.141 859.553L535.753 861.232C530.203 866.859 514.952 866.328 508.053 862.679C492.838 854.626 494.017 824.981 500.538 811.766C503.358 806.052 507.854 804.23 513.726 802.615Z" fill="#00577A"/>
<path d="M1448.42 802.737C1458.51 803.06 1468.7 802.467 1478.8 802.732C1482.94 802.841 1488.23 802.711 1489.83 807.041L1488.92 808.919C1484.79 810.096 1477.64 809.696 1473.12 809.658L1473.09 847.46C1473.19 851.605 1473.96 861.343 1471.81 864.324C1469.17 864.392 1467.43 864.692 1465.05 863.578C1463.85 855.013 1464.63 820.233 1464.67 809.756C1460.27 809.732 1452.92 810.542 1449.58 808.919C1447.91 806.537 1448.45 806.039 1448.42 802.737Z" fill="#00577A"/>
<path d="M875.827 802.803C885.762 803.042 895.808 802.553 905.742 802.751C909.93 802.835 915.24 802.628 916.842 807.062L915.968 808.914C911.832 810.104 904.655 809.672 900.116 809.618L900.056 847.46C900.056 850.989 900.638 861.84 899.311 864.109C895.996 864.169 895.448 864.281 892.313 863.441C890.875 859.056 891.645 817.405 891.697 809.719C886.635 809.636 880.443 810.777 876.229 808.669C874.953 805.999 875.476 806.284 875.827 802.803Z" fill="#00577A"/>
<path d="M927.213 802.677C929.457 802.623 933.945 802.314 935.341 803.832C936.198 815.263 935.975 852.974 935.204 864.675C932.164 864.623 929.963 864.897 927.299 863.544C925.526 848.768 926.648 818.216 927.213 802.677Z" fill="#00577A"/>
<path d="M1429.48 802.798L1437.93 802.974L1437.79 864.443C1434.66 864.52 1432.7 864.803 1429.71 863.792C1428.55 854.249 1429.37 813.767 1429.48 802.798Z" fill="#00577A"/>
<path d="M1344.05 786.427L1353.3 786.534C1349.83 789.99 1345.99 793.391 1342.36 796.711C1340.54 797.392 1339.26 797.317 1337.34 797.403L1336.69 796.473C1337.97 793.064 1341.59 789.329 1344.05 786.427Z" fill="#00577A"/>
</svg>
